<?xml version="1.0" encoding="UTF-8" standalone="no"?>
<svg
   viewBox="0 0 24 24"
   version="1.1"
   id="svg6"
   sodipodi:docname="attention-icon_filled_26px.html"
   inkscape:version="1.1.2 (0a00cf5339, 2022-02-04, custom)"
   xmlns:inkscape="http://www.inkscape.org/namespaces/inkscape"
   xmlns:sodipodi="http://sodipodi.sourceforge.net/DTD/sodipodi-0.dtd"
   xmlns="http://www.w3.org/2000/svg"
   xmlns:svg="http://www.w3.org/2000/svg">
  <defs
     id="defs10" />
  <sodipodi:namedview
     id="namedview8"
     pagecolor="#ffffff"
     bordercolor="#666666"
     borderopacity="1.0"
     inkscape:pageshadow="2"
     inkscape:pageopacity="0.0"
     inkscape:pagecheckerboard="0"
     showgrid="false"
     inkscape:zoom="16"
     inkscape:cx="-2.9375"
     inkscape:cy="5.5"
     inkscape:window-width="1271"
     inkscape:window-height="1041"
     inkscape:window-x="-1664"
     inkscape:window-y="94"
     inkscape:window-maximized="0"
     inkscape:current-layer="svg6" />
  <circle
     fill="#444444"
     cx="-12"
     cy="-12"
     r="12"
     id="circle2"
     style="fill:#004484;fill-opacity:1"
     transform="scale(-1)" />
  <path
     fill="#ffffff"
     d="m 10.38,17.21775 c 0,-0.45 0.158,-0.832 0.473,-1.147 A 1.562,1.562 0 0 1 12,15.59875 c 0.45,0 0.832,0.157 1.147,0.472 a 1.562,1.562 0 0 1 0.472,1.147 c 0,0.45 -0.157,0.832 -0.472,1.147 A 1.562,1.562 0 0 1 12,18.83675 c -0.45,0 -0.832,-0.157 -1.147,-0.472 -0.315,-0.315 -0.472,-0.697 -0.472,-1.147 z m 3.24,-10.391 v 5.173 c 0,0.45 -0.158,0.832 -0.473,1.147 A 1.562,1.562 0 0 1 12,13.61875 c -0.45,0 -0.832,-0.157 -1.147,-0.472 -0.315,-0.315 -0.472,-0.697 -0.472,-1.147 v -5.173 c 0,-0.45 0.157,-0.84 0.472,-1.17 0.315,-0.33 0.697,-0.494 1.147,-0.494 0.45,0 0.832,0.165 1.147,0.494 a 1.637,1.637 0 0 1 0.472,1.17 z"
     id="path4" />
</svg>
