<svg width="16" height="16" viewBox="0 0 16 16" xmlns="http://www.w3.org/2000/svg">
<path d="M1.33325 4.68604C1.33317 4.77611 1.35083 4.8653 1.38524 4.94854C1.41965 5.03177 1.47013 5.1074 1.53379 5.17111L7.53899 11.1711C7.66772 11.2996 7.84215 11.3717 8.02402 11.3717C8.20588 11.3717 8.38032 11.2996 8.50905 11.1711L14.5143 5.17111C14.5779 5.10741 14.6285 5.0318 14.6629 4.94857C14.6974 4.86535 14.7152 4.77616 14.7152 4.68608C14.7152 4.596 14.6974 4.5068 14.6629 4.42358C14.6285 4.34036 14.5779 4.26474 14.5143 4.20104C14.4506 4.13735 14.3749 4.08682 14.2917 4.05235C14.2085 4.01788 14.1193 4.00014 14.0292 4.00014C13.9391 4.00014 13.8499 4.01788 13.7667 4.05235C13.6835 4.08682 13.6079 4.13735 13.5442 4.20104L8.02419 9.71664L2.50419 4.20104C2.40831 4.10507 2.28611 4.03969 2.15307 4.0132C2.02002 3.98671 1.8821 4.00028 1.75677 4.05221C1.63145 4.10414 1.52434 4.19209 1.44902 4.30491C1.3737 4.41774 1.33355 4.55038 1.33365 4.68604H1.33325Z"/>
</svg>