<svg width="24" height="24" viewBox="0 0 24 24" fill="none" xmlns="http://www.w3.org/2000/svg">
<path d="M16.0284 22.0729C15.8933 22.073 15.7596 22.0465 15.6347 21.9949C15.5099 21.9432 15.3965 21.8675 15.3009 21.7721L6.30091 12.7643C6.10822 12.5712 6 12.3095 6 12.0367C6 11.7639 6.10822 11.5023 6.30091 11.3092L15.3009 2.30136C15.4939 2.1084 15.7556 2 16.0285 2C16.3013 2 16.5631 2.1084 16.756 2.30136C16.949 2.49432 17.0574 2.75603 17.0574 3.02891C17.0574 3.3018 16.949 3.5635 16.756 3.75646L8.48251 12.0365L16.756 20.3165C16.9001 20.4603 16.9983 20.6436 17.0382 20.8433C17.078 21.043 17.0577 21.2499 16.9797 21.438C16.9018 21.6261 16.7698 21.7869 16.6005 21.8999C16.4311 22.0129 16.232 22.0731 16.0284 22.0729Z" fill="black"/>
</svg>
