<svg width="32" height="32" viewBox="0 0 32 32" fill="none" xmlns="http://www.w3.org/2000/svg">
<path d="M8.4109 14.9681L20.5999 2.41006C20.8643 2.14741 21.2218 2 21.5944 2C21.967 2 22.3246 2.14741 22.5889 2.41006C22.8528 2.68586 23.0001 3.05285 23.0001 3.43456C23.0001 3.81626 22.8528 4.18325 22.5889 4.45906L11.3939 15.9931L22.5889 27.5261C22.8528 27.8019 23.0001 28.1689 23.0001 28.5506C23.0001 28.9323 22.8528 29.2992 22.5889 29.5751C22.4604 29.7094 22.3061 29.8163 22.1352 29.8894C21.9642 29.9624 21.7803 30.0001 21.5944 30.0001C21.4085 30.0001 21.2246 29.9624 21.0536 29.8894C20.8827 29.8163 20.7284 29.7094 20.5999 29.5751L8.4109 17.0171C8.14703 16.7412 7.99976 16.3743 7.99976 15.9926C7.99976 15.6109 8.14703 15.2439 8.4109 14.9681Z" fill="black"/>
</svg>
