<?xml version="1.0" encoding="UTF-8"?>
<svg xmlns="http://www.w3.org/2000/svg" viewBox="0 0 24 24"><path d="M12,2h0A10,10,0,1,0,22,12,10.011,10.011,0,0,0,12,2Zm-.475,18.926-.039-.243a7.906,7.906,0,0,1-1.158-.149L8.619,17.857l1.3-1.734h4.161l1.332,1.759-1.481,2.6c-.11.025-.222.049-.339.068l-.066.012c-.136.024-.273.044-.411.062l-.11.014c-.128.015-.257.026-.388.035l-.121.01a8.307,8.307,0,0,1-.96,0l-.012.243Zm4.494-9.1,2.889-.964,1.733,2.083a8.55,8.55,0,0,1-.16.961q-.051.229-.114.453l-.018.061c-.047.161-.1.32-.157.492a8.515,8.515,0,0,1-.407.954c-.072.144-.15.292-.254.473-.059.1-.12.2-.183.3l-2.839.448L15.151,15.3ZM18.54,9.561l-2.951.985L12.676,8.215V5.342L15.7,4.134A8.531,8.531,0,0,1,17.628,5.38c.135.116.27.237.4.362l.048.046c.135.132.267.273.422.442.1.116.208.241.321.383l.074.094c.088.115.169.223.243.329ZM5.753,5.615l.218.129c.123-.119.255-.239.424-.383A8.744,8.744,0,0,1,8.289,4.139l3.036,1.2V8.215L8.412,10.542,5.461,9.56,4.867,7.033c.077-.108.157-.219.24-.326l.074-.094c.1-.129.208-.257.35-.418.122-.133.254-.271.392-.405l-.17-.175Zm2.23,6.213L8.852,15.3,7.5,17.093l-2.849-.448c-.066-.1-.131-.211-.2-.339q-.125-.217-.237-.444A8.311,8.311,0,0,1,3.8,14.9c-.056-.156-.107-.315-.152-.473l-.017-.061c-.042-.149-.081-.3-.126-.5a8.922,8.922,0,0,1-.15-.916l1.735-2.083Z"/></svg>