<?xml version="1.0" encoding="UTF-8" ?>
<svg xmlns="http://www.w3.org/2000/svg" viewBox="0 0 32 32"><path d="M7.6182,18.1054H6.5l.1877-.7438h.84c0-.0907-.0113-.1815-.0113-.2723v-.2837a5.8947,5.8947,0,0,1,.0361-.6467H6.5l.1877-.7438H7.679a3.5433,3.5433,0,0,1,3.6383-2.8346,5.4535,5.4535,0,0,1,2.1157.3992l-.4446,1.3544a3.5681,3.5681,0,0,0-.4127-.1393A6.0584,6.0584,0,0,0,11.5,14.0256,1.9745,1.9745,0,0,0,9.445,15.41h3.1431l-.1991.7437H9.2944a5.2809,5.2809,0,0,0-.0484.6282,4.0751,4.0751,0,0,0,.0361.5746H11.964l-.1929.7437H9.378a1.9032,1.9032,0,0,0,1.98,1.8232c.0249-.0011.05-.0026.0748-.0046a4.6494,4.6494,0,0,0,1.6257-.26L13.5,21.0308a7.3067,7.3067,0,0,1-2.2849.393C9.5647,21.4238,8.005,20.59,7.6182,18.1054Z"/><path d="M23.1211,7,28,7a1.0294,1.0294,0,0,1,1,1l0,4.879a1,1,0,1,1-2,0l0-2.4647-3.9145,3.9145a1,1,0,1,1-1.4142-1.4142L25.5859,9,23.1211,9a1,1,0,1,1,0-2Z"/><path d="M26,22.4338A1.5684,1.5684,0,0,1,24.4336,24H5.5664A1.5684,1.5684,0,0,1,4,22.4338V11.5666A1.5684,1.5684,0,0,1,5.5664,10H20V8H5.5664A3.57,3.57,0,0,0,2,11.5666V22.4338A3.57,3.57,0,0,0,5.5664,26H24.4336A3.57,3.57,0,0,0,28,22.4338V16H26Z"/></svg>