<?xml version="1.0" encoding="UTF-8"?>
<svg xmlns="http://www.w3.org/2000/svg" viewBox="0 0 32 32"><path d="M16 2a14 14 0 1 0 14 14A14.017 14.017 0 0 0 16 2zm9.681 10.771l-4.6 1.535-4.46-3.569V6.209l4.7-1.878a13.159 13.159 0 0 1 1.535.832A12.873 12.873 0 0 1 24.263 6.2l.04.035c.2.171.4.35.585.531l.073.069c.2.194.393.4.578.6l.046.053c.151.17.306.354.474.565l.109.139c.166.217.314.418.446.613zm-4.207 2.71l4.555-1.518 2.735 3.285a12.839 12.839 0 0 1-.236 1.5l-.016.065q-.075.339-.17.671l-.025.089c-.069.238-.144.473-.225.7l-.007.026a12.369 12.369 0 0 1-.6 1.406c-.106.214-.222.432-.346.647l-.03.053c-.111.192-.23.387-.355.579l-4.436.7-2.176-2.872zm-6.156 13.328h-.074a11.696 11.696 0 0 1-1.859-.25l-2.662-4.169 2.117-2.823h6.32l2.156 2.846L19 28.471c-.213.051-.43.1-.649.136l-.1.019q-.3.052-.605.091l-.162.021c-.189.022-.379.038-.568.051l-.181.015a12.454 12.454 0 0 1-1.417.005zm-4.789-13.328l1.333 5.331L9.7 23.687l-4.452-.7c-.129-.2-.247-.391-.357-.583l-.029-.05a12.89 12.89 0 0 1-.35-.654 12.8 12.8 0 0 1-.6-1.4l-.006-.025a11.798 11.798 0 0 1-.225-.7l-.025-.089c-.062-.22-.12-.445-.176-.7l-.009-.041a12.628 12.628 0 0 1-.237-1.5L5.97 13.96zM7.036 6.838a.885.885 0 0 1 .069-.067c.181-.175.376-.352.579-.527l.047-.038a12.9 12.9 0 0 1 2.932-1.867l4.718 1.87v4.527l-4.46 3.564-4.6-1.531L5.387 8.8c.14-.2.29-.409.445-.61l.108-.139c.151-.19.307-.377.468-.558l.051-.059c.18-.197.374-.399.577-.596z"/></svg>