<?xml version="1.0" encoding="UTF-8"?>
<svg xmlns="http://www.w3.org/2000/svg" viewBox="0 0 32 32"><path d="M28.5,7H26V4a2,2,0,0,0-2-2H8A2,2,0,0,0,6,4V7H3.5A1.5,1.5,0,0,0,2,8.5v4A1.5,1.5,0,0,0,3.5,14H6V25a2,2,0,0,0,2,2v1.5A1.5,1.5,0,0,0,9.5,30h3A1.5,1.5,0,0,0,14,28.5V27h4v1.5A1.5,1.5,0,0,0,19.5,30h3A1.5,1.5,0,0,0,24,28.5V27a2,2,0,0,0,2-2V14h2.5A1.5,1.5,0,0,0,30,12.5v-4A1.5,1.5,0,0,0,28.5,7ZM6,12H4V9H6Zm6,16H10V27h2Zm10,0H20V27h2Zm.5-3H8V19H24V17H8V8H24V6H8V4H24V25ZM28,12H26V9h2Z"/><path d="M20.25,20a2,2,0,1,0,2,2A2,2,0,0,0,20.25,20Zm0,2.5a.5.5,0,1,1,.5-.5A.5.5,0,0,1,20.25,22.5Z"/><path d="M11.75,20a2,2,0,1,0,2,2A2,2,0,0,0,11.75,20Zm0,2.5a.5.5,0,1,1,.5-.5A.5.5,0,0,1,11.75,22.5Z"/></svg>