<?xml version="1.0" encoding="UTF-8"?>
<svg xmlns="http://www.w3.org/2000/svg" viewBox="0 0 32 32"><path d="M29.514 21.47a3 3 0 0 0-2-2.816v-7.463a1.979 1.979 0 0 0-.3-3.6L16.188 3.649a1.976 1.976 0 0 0-1.346 0L3.814 7.586a2 2 0 0 0 0 3.766l3.7 1.322V16.9a1.992 1.992 0 0 0 1.035 1.75 14.849 14.849 0 0 0 6.965 1.82 14.844 14.844 0 0 0 6.964-1.82 1.993 1.993 0 0 0 1.036-1.75v-4.226l2-.714v6.694a2.982 2.982 0 0 0 0 5.631v3.185a1 1 0 0 0 2 0v-3.185a3 3 0 0 0 2-2.815zm-14-15.939L26.541 9.47l-11.027 3.938L4.487 9.47zm6 11.365a13.033 13.033 0 0 1-6 1.574 13.019 13.019 0 0 1-6-1.572v-3.51l6 2.143 6-2.143zm5 5.574a1 1 0 1 1 1-1 1 1 0 0 1-1 1z"/></svg>