<?xml version="1.0" encoding="UTF-8"?>
<svg xmlns="http://www.w3.org/2000/svg" viewBox="0 0 24 24"><path d="M20.556,14.214V9.129a1.672,1.672,0,0,0-.379-2.965L12.219,3.318a1.67,1.67,0,0,0-1.137,0L3.12,6.16a1.688,1.688,0,0,0,0,3.178l2.509.9v2.878A1.682,1.682,0,0,0,6.5,14.591a11,11,0,0,0,5.148,1.344,11,11,0,0,0,5.142-1.344,1.681,1.681,0,0,0,.874-1.477V10.235l.957-.342v4.321a2.4,2.4,0,0,0,0,4.4v2.133a.966.966,0,0,0,1.931,0V18.611A2.416,2.416,0,0,0,22,16.414v0A2.417,2.417,0,0,0,20.556,14.214ZM18.885,7.75l-7.236,2.584L4.413,7.75l7.236-2.585Zm-3.148,3.175v2.039A9.2,9.2,0,0,1,11.653,14a9.181,9.181,0,0,1-4.092-1.038v-2.04l4.088,1.46Zm4.331,5.488a.478.478,0,1,1-.478-.478A.478.478,0,0,1,20.068,16.413Z"/></svg>