<?xml version="1.0" encoding="UTF-8" ?>
<svg xmlns="http://www.w3.org/2000/svg" viewBox="0 0 24 24"><path d="M20.343,14.61l-3.065-.667a2.173,2.173,0,0,0-2.1.7l-.668.767a.2811.2811,0,0,1-.362.051,16.9208,16.9208,0,0,1-4.769-4.389.27.27,0,0,1,0-.325L10.2,9.66a2.1721,2.1721,0,0,0,.238-2.2l-1.3-2.855A2.1671,2.1671,0,0,0,6.552,3.418l-.306.089A7.9483,7.9483,0,0,0,2.6,6.549a4.5641,4.5641,0,0,0-.093,3.368c.156.395,3.938,9.69,13.586,12.011a2.3164,2.3164,0,0,0,.358.056c.129.011.257.016.385.016a4.6737,4.6737,0,0,0,1.295-.183h0c1.6062-.4685,3.7561-2.88,3.89-4.548l.03-.384A2.167,2.167,0,0,0,20.343,14.61ZM8.674,8.524,7.859,9.607a2.19,2.19,0,0,0,0,2.606,18.8006,18.8006,0,0,0,5.3,4.867,2.173,2.173,0,0,0,2.777-.428l.669-.768a.28.28,0,0,1,.263-.089l3.062.668a.2729.2729,0,0,1,.215.286l-.022.309a1.4889,1.4889,0,0,1-.02.2c-.1781,1.193-2.29,3.0157-3.4825,2.8376L16.61,20.094a.6377.6377,0,0,1-.079-.013C8.089,18.049,4.641,10.122,4.279,9.234A2.6607,2.6607,0,0,1,4.3,7.384,6.8232,6.8232,0,0,1,6.748,5.336l.334-.1a.2779.2779,0,0,1,.08-.012.2721.2721,0,0,1,.247.157L8.7,8.247A.2741.2741,0,0,1,8.674,8.524Z"/><path d="M12.867,9.7a1.2,1.2,0,0,1,1.2,1.2A.9665.9665,0,1,0,16,10.9a3.1341,3.1341,0,0,0-3.131-3.13.966.966,0,0,0,0,1.931Z"/><path d="M16.953,10.9a.966.966,0,1,0,1.931.0622q.001-.0312,0-.0622a6.032,6.032,0,0,0-6.017-6.016.966.966,0,0,0,0,1.932A4.1,4.1,0,0,1,16.953,10.9Z"/><path d="M12.867,2a.966.966,0,0,0,0,1.931A6.9919,6.9919,0,0,1,19.84,10.9a.965.965,0,0,0,1.93,0A8.925,8.925,0,0,0,12.867,2Z"/></svg>