<svg width="32" height="32" viewBox="0 0 32 32" fill="none" xmlns="http://www.w3.org/2000/svg">
<path d="M21 30H5C4.20435 30 3.44129 29.6839 2.87868 29.1213C2.31607 28.5587 2 27.7956 2 27V11C2 10.2044 2.31607 9.44129 2.87868 8.87868C3.44129 8.31607 4.20435 8 5 8H21C21.7956 8 22.5587 8.31607 23.1213 8.87868C23.6839 9.44129 24 10.2044 24 11V27C24 27.7956 23.6839 28.5587 23.1213 29.1213C22.5587 29.6839 21.7956 30 21 30ZM5 10C4.73478 10 4.48043 10.1054 4.29289 10.2929C4.10536 10.4804 4 10.7348 4 11V27C4 27.2652 4.10536 27.5196 4.29289 27.7071C4.48043 27.8946 4.73478 28 5 28H21C21.2652 28 21.5196 27.8946 21.7071 27.7071C21.8946 27.5196 22 27.2652 22 27V11C22 10.7348 21.8946 10.4804 21.7071 10.2929C21.5196 10.1054 21.2652 10 21 10H5Z" fill="black"/>
<path d="M27 2H11C10.2044 2 9.44129 2.31607 8.87868 2.87868C8.31607 3.44129 8 4.20435 8 5V6.5H10V5C10 4.73478 10.1054 4.48043 10.2929 4.29289C10.4804 4.10536 10.7348 4 11 4H27C27.2652 4 27.5196 4.10536 27.7071 4.29289C27.8946 4.48043 28 4.73478 28 5V21C28 21.2652 27.8946 21.5196 27.7071 21.7071C27.5196 21.8946 27.2652 22 27 22H25.5V24H27C27.7956 24 28.5587 23.6839 29.1213 23.1213C29.6839 22.5587 30 21.7956 30 21V5C30 4.20435 29.6839 3.44129 29.1213 2.87868C28.5587 2.31607 27.7956 2 27 2Z" fill="black"/>
<path d="M16.5359 14.05L12.9999 17.586L9.46392 14.05C9.27531 13.8679 9.02271 13.7671 8.76052 13.7694C8.49832 13.7716 8.24751 13.8768 8.0621 14.0622C7.87669 14.2476 7.77152 14.4984 7.76924 14.7606C7.76696 15.0228 7.86776 15.2754 8.04992 15.464L11.5859 19L8.04992 22.536C7.95441 22.6283 7.87822 22.7386 7.82582 22.8606C7.77341 22.9826 7.74582 23.1139 7.74467 23.2466C7.74351 23.3794 7.76881 23.5111 7.8191 23.634C7.86938 23.7569 7.94363 23.8685 8.03752 23.9624C8.13142 24.0563 8.24307 24.1306 8.36596 24.1809C8.48886 24.2311 8.62054 24.2564 8.75332 24.2553C8.8861 24.2541 9.01732 24.2265 9.13932 24.1741C9.26133 24.1217 9.37167 24.0456 9.46392 23.95L12.9999 20.414L16.5359 23.95C16.6282 24.0456 16.7385 24.1217 16.8605 24.1741C16.9825 24.2265 17.1137 24.2541 17.2465 24.2553C17.3793 24.2564 17.511 24.2311 17.6339 24.1809C17.7568 24.1306 17.8684 24.0563 17.9623 23.9624C18.0562 23.8685 18.1305 23.7569 18.1807 23.634C18.231 23.5111 18.2563 23.3794 18.2552 23.2466C18.254 23.1139 18.2264 22.9826 18.174 22.8606C18.1216 22.7386 18.0454 22.6283 17.9499 22.536L14.4139 19L17.9499 15.464C18.0454 15.3718 18.1216 15.2614 18.174 15.1394C18.2264 15.0174 18.254 14.8862 18.2552 14.7534C18.2563 14.6207 18.231 14.489 18.1807 14.3661C18.1305 14.2432 18.0562 14.1315 17.9623 14.0376C17.8684 13.9438 17.7568 13.8695 17.6339 13.8192C17.511 13.7689 17.3793 13.7436 17.2465 13.7448C17.1137 13.7459 16.9825 13.7735 16.8605 13.8259C16.7385 13.8783 16.6282 13.9545 16.5359 14.05Z" fill="black"/>
</svg>
