<?xml version="1.0" encoding="UTF-8"?>
<svg xmlns="http://www.w3.org/2000/svg" viewBox="0 0 32 32"><path d="M27 5h-5V4a1 1 0 0 0-2 0v1h-8V4a1 1 0 0 0-2 0v1H5a2 2 0 0 0-2 2v20a2 2 0 0 0 2 2h22a2 2 0 0 0 2-2V7a2 2 0 0 0-2-2zM10 7v1a1 1 0 0 0 2 0V7h8v1a1 1 0 0 0 2 0V7h5v4H5V7zM5 27V13h22v14z"/><rect x="15" y="23" width="2" height="2" rx=".499"/><rect x="19" y="23" width="2" height="2" rx=".499"/><rect x="11" y="23" width="2" height="2" rx=".499"/><rect x="15" y="19" width="2" height="2" rx=".499"/><rect x="19" y="19" width="2" height="2" rx=".499"/><rect x="11" y="19" width="2" height="2" rx=".499"/><rect x="7" y="23" width="2" height="2" rx=".499"/><rect x="7" y="19" width="2" height="2" rx=".499"/><rect x="15" y="15" width="2" height="2" rx=".499"/><rect x="19" y="15" width="2" height="2" rx=".499"/><rect x="23" y="19" width="2" height="2" rx=".499"/><rect x="23" y="15" width="2" height="2" rx=".499"/><rect x="11" y="15" width="2" height="2" rx=".499"/></svg>