<svg width="24" height="24" viewBox="0 0 24 24" fill="none" xmlns="http://www.w3.org/2000/svg">
<path fill-rule="evenodd" clip-rule="evenodd" d="M2 12C2 17.5228 6.47715 22 12 22C17.5203 21.9939 21.9939 17.5203 22 12C22 6.47715 17.5228 2 12 2C6.47715 2 2 6.47715 2 12ZM4 12C4 7.58172 7.58172 4 12 4C16.4162 4.00496 19.995 7.58378 20 12C20 16.4183 16.4183 20 12 20C7.58172 20 4 16.4183 4 12Z" fill="black"/>
<path d="M9.99992 15.9999C9.73472 15.9999 9.48041 15.8945 9.29292 15.7069L6.29292 12.7069C5.91395 12.3145 5.91937 11.6908 6.3051 11.3051C6.69083 10.9194 7.31454 10.9139 7.70692 11.2929L9.99992 13.5859L15.2929 8.29292C15.6853 7.91395 16.309 7.91937 16.6947 8.3051C17.0805 8.69083 17.0859 9.31454 16.7069 9.70692L10.7069 15.7069C10.5194 15.8945 10.2651 15.9999 9.99992 15.9999Z" fill="black"/>
</svg>
