<?xml version="1.0" encoding="UTF-8"?>
<svg xmlns="http://www.w3.org/2000/svg" viewBox="0 0 32 32"><path d="M11,29.494a9,9,0,1,1,9-9A9,9,0,0,1,11,29.494Zm0-16a7,7,0,1,0,7,7A7,7,0,0,0,11,13.494Z"/><path d="M29,23.5H28v-3a1,1,0,0,0-1-1H21.45c.031.327.05.658.05.994s-.019.674-.051,1.006H26v2H21.056a10.366,10.366,0,0,1-.829,2H28v2H18.8a10.579,10.579,0,0,1-2.428,2H29a1,1,0,0,0,1-1v-4A1,1,0,0,0,29,23.5Z"/><path d="M27.707,6.793l-4-4a1,1,0,0,0-1.414,0l-4,4a1,1,0,0,0,1.414,1.414L22,5.914v8.58a1,1,0,0,0,2,0V5.914l2.293,2.293a1,1,0,0,0,1.414-1.414Z"/><path d="M11,26.489a.5.5,0,0,1,0-1,5.006,5.006,0,0,0,5-5,.5.5,0,0,1,1,0A6.005,6.005,0,0,1,11,26.489Z"/></svg>