<?xml version="1.0" encoding="UTF-8"?><svg xmlns="http://www.w3.org/2000/svg" viewBox="0 0 24 24"><defs><style>.d{fill:none;}</style></defs><g id="a"/><g id="b"><g id="c"><path d="M20.2,13.95l-3.07-.67c-.78-.17-1.58,.1-2.1,.7l-.67,.77c-.09,.1-.25,.13-.36,.05-1.86-1.14-3.48-2.63-4.77-4.39-.07-.1-.07-.23,0-.32l.82-1.09c.47-.63,.57-1.48,.24-2.2l-1.3-2.86c-.45-.99-1.55-1.49-2.59-1.19l-.31,.09c-1.5,.62-2.77,1.68-3.65,3.04-.46,1.07-.49,2.27-.09,3.37,.16,.4,3.94,9.69,13.59,12.01,.12,.03,.24,.05,.36,.06,.13,.01,.26,.02,.39,.02,.44,0,.87-.06,1.3-.18h0c1.61-.47,3.76-2.88,3.89-4.55l.03-.38c.08-1.08-.65-2.05-1.71-2.27ZM8.53,7.86l-.81,1.08c-.57,.77-.57,1.83,0,2.61,1.44,1.95,3.24,3.6,5.3,4.87,.91,.56,2.08,.37,2.78-.43l.67-.77c.07-.07,.17-.11,.26-.09l3.06,.67c.13,.03,.22,.15,.22,.29l-.02,.31c0,.07,0,.13-.02,.2-.18,1.19-2.29,3.02-3.48,2.84h-.01s-.05,0-.08-.01C7.95,17.38,4.5,9.46,4.14,8.57c-.21-.6-.21-1.26,.02-1.85,.64-.87,1.48-1.57,2.45-2.05l.33-.1s.05-.01,.08-.01c.11,0,.2,.06,.25,.16l1.29,2.87c.04,.09,.03,.2-.03,.28Z"/><rect class="d" width="24" height="24"/></g></g></svg>