<svg width="40" height="40" viewBox="0 0 40 40" xmlns="http://www.w3.org/2000/svg">
<path d="M7.5 27.5H32.5C33.163 27.5 33.7989 27.2366 34.2678 26.7678C34.7366 26.2989 35 25.663 35 25V10C35 9.33696 34.7366 8.70107 34.2678 8.23223C33.7989 7.76339 33.163 7.5 32.5 7.5H7.5C6.83696 7.5 6.20107 7.76339 5.73223 8.23223C5.26339 8.70107 5 9.33696 5 10V25C5 25.663 5.26339 26.2989 5.73223 26.7678C6.20107 27.2366 6.83696 27.5 7.5 27.5ZM20 8.125C20.1236 8.125 20.2444 8.16166 20.3472 8.23033C20.45 8.29901 20.5301 8.39662 20.5774 8.51082C20.6247 8.62503 20.6371 8.75069 20.613 8.87193C20.5889 8.99317 20.5294 9.10453 20.4419 9.19194C20.3545 9.27935 20.2432 9.33888 20.1219 9.36299C20.0007 9.38711 19.875 9.37473 19.7608 9.32742C19.6466 9.28012 19.549 9.20001 19.4803 9.09723C19.4117 8.99445 19.375 8.87361 19.375 8.75C19.375 8.58424 19.4408 8.42527 19.5581 8.30806C19.6753 8.19085 19.8342 8.125 20 8.125ZM7.5 10H32.5V25H7.5V10Z"/>
<path d="M36.25 28.75H3.75C3.41848 28.75 3.10054 28.8817 2.86612 29.1161C2.6317 29.3505 2.5 29.6685 2.5 30C2.5 30.3315 2.6317 30.6495 2.86612 30.8839C3.10054 31.1183 3.41848 31.25 3.75 31.25H36.25C36.5815 31.25 36.8995 31.1183 37.1339 30.8839C37.3683 30.6495 37.5 30.3315 37.5 30C37.5 29.6685 37.3683 29.3505 37.1339 29.1161C36.8995 28.8817 36.5815 28.75 36.25 28.75Z"/>
</svg>