<?xml version="1.0" encoding="UTF-8"?>
<svg xmlns="http://www.w3.org/2000/svg" viewBox="0 0 24 24"><path d="M15.5,8.989a6.5,6.5,0,1,0,6.5,6.5h0A6.51,6.51,0,0,0,15.5,8.989Zm4.563,6.5A4.564,4.564,0,1,1,15.5,10.925h0A4.568,4.568,0,0,1,20.064,15.489Z"/><path d="M9.518,20H4V4H9V8a1,1,0,0,0,1,1h1.756A7.446,7.446,0,0,1,15.5,7.989c.169,0,.334.015.5.026V8a1,1,0,0,0-.293-.707l-5-5A1,1,0,0,0,10,2H4A2,2,0,0,0,2,4V20a2,2,0,0,0,2,2h7.787A7.544,7.544,0,0,1,10.2,20.792,7.67,7.67,0,0,1,9.518,20ZM11,5.414,12.586,7H11Z"/><path d="M7 11a1 1 0 000 2H8.434a7.5 7.5 0 011.072-2zM8.025 15H7a1 1 0 000 2H8.153A7.6 7.6 0 018 15.487C8 15.323 8.014 15.162 8.025 15zM18.091 14.591H16.5V13a1 1 0 00-2 0v1.591H12.909a1 1 0 100 2H14.5v1.591a1 1 0 102 0V16.591h1.591a1 1 0 100-2z"/></svg>