<svg width="24" height="25" viewBox="0 0 24 25" fill="none" xmlns="http://www.w3.org/2000/svg">
<path d="M15.5 9.30768C14.2144 9.30768 12.9577 9.6889 11.8888 10.4031C10.8199 11.1174 9.98676 12.1325 9.49479 13.3202C9.00282 14.508 8.87409 15.8149 9.1249 17.0758C9.3757 18.3366 9.99477 19.4948 10.9038 20.4039C11.8128 21.3129 12.971 21.932 14.2319 22.1828C15.4928 22.4336 16.7997 22.3049 17.9874 21.8129C19.1752 21.3209 20.1903 20.4878 20.9046 19.4189C21.6188 18.35 22 17.0933 22 15.8077C21.9974 14.0846 21.3117 12.4328 20.0933 11.2144C18.8749 9.99599 17.2231 9.31032 15.5 9.30768ZM20.063 15.8077C20.063 16.7104 19.7953 17.5928 19.2938 18.3434C18.7922 19.094 18.0794 19.679 17.2453 20.0244C16.4113 20.3698 15.4936 20.4601 14.6082 20.2839C13.7229 20.1077 12.9097 19.6729 12.2714 19.0346C11.6332 18.3962 11.1986 17.5829 11.0226 16.6975C10.8466 15.8121 10.9371 14.8944 11.2827 14.0604C11.6283 13.2265 12.2134 12.5137 12.9641 12.0124C13.7148 11.511 14.5973 11.2435 15.5 11.2437C16.7101 11.2447 17.8704 11.7259 18.7261 12.5816C19.5818 13.4373 20.0629 14.5976 20.064 15.8077H20.063Z" fill="currentColor"/>
<path d="M15.586 12.3997L16.693 14.6427L19.169 15.0027L17.378 16.7497L17.801 19.2157L15.586 18.0517L13.371 19.2157L13.794 16.7497L12 15.0077L14.476 14.6477L15.586 12.3997Z" fill="currentColor"/>
<path d="M10.2 21.1077C9.95288 20.8571 9.72333 20.5898 9.513 20.3077H4V4.30768H9V8.30768C9 8.57289 9.10536 8.82725 9.29289 9.01478C9.48043 9.20232 9.73478 9.30768 10 9.30768H11.774C12.9066 8.65275 14.1917 8.30784 15.5 8.30768C15.669 8.30768 15.834 8.32268 16 8.33368V8.30768C15.9999 8.04248 15.8945 7.78817 15.707 7.60068L10.707 2.60068C10.5195 2.41313 10.2652 2.30773 10 2.30768H4C3.46957 2.30768 2.96086 2.51839 2.58579 2.89346C2.21071 3.26854 2 3.77725 2 4.30768V20.3077C2 20.8381 2.21071 21.3468 2.58579 21.7219C2.96086 22.097 3.46957 22.3077 4 22.3077H11.768C11.1949 21.9782 10.6678 21.5747 10.2 21.1077ZM11 5.72168L12.586 7.30768H11V5.72168Z" fill="currentColor"/>
<path d="M9.514 11.3077H7C6.73478 11.3077 6.48043 11.413 6.29289 11.6006C6.10536 11.7881 6 12.0425 6 12.3077C6 12.5729 6.10536 12.8272 6.29289 13.0148C6.48043 13.2023 6.73478 13.3077 7 13.3077H8.438C8.69274 12.5901 9.05559 11.9157 9.514 11.3077Z" fill="currentColor"/>
<path d="M8 15.8077C8 15.6397 8.014 15.4747 8.025 15.3077H7C6.73478 15.3077 6.48043 15.413 6.29289 15.6006C6.10536 15.7881 6 16.0425 6 16.3077C6 16.5729 6.10536 16.8272 6.29289 17.0148C6.48043 17.2023 6.73478 17.3077 7 17.3077H8.15C8.05063 16.8139 8.00039 16.3114 8 15.8077Z" fill="currentColor"/>
<path d="M11.991 16.3517C11.991 16.3367 12 16.3237 12 16.3077C11.9941 16.2628 11.9851 16.2183 11.973 16.1747C11.979 16.2337 11.982 16.2937 11.991 16.3517Z" fill="currentColor"/>
</svg>
