<?xml version="1.0" encoding="UTF-8"?>
<svg xmlns="http://www.w3.org/2000/svg" viewBox="0 0 24 24"><path d="M18.707 7.293l-5-5A1 1 0 0 0 13 2H7a2 2 0 0 0-2 2v16a2 2 0 0 0 2 2h10a2 2 0 0 0 2-2V8a1 1 0 0 0-.293-.707zM14 5.414L15.586 7H14zM7 20V4h5v4a1 1 0 0 0 1 1h4v11z"/><path d="M12.023 10.628l-.035.012a.124.124 0 0 0-.041.009.137.137 0 0 0-.066.049.674.674 0 0 0-.065.256 2.306 2.306 0 0 0-.009.526 3.7 3.7 0 0 0 .1.559 8.027 8.027 0 0 0 .173-.983l.015-.143c.009-.088.019-.178.021-.231a.747.747 0 0 0-.093-.054m-.052 2.772a11.09 11.09 0 0 1-.665 1.4l.055-.017a9.6 9.6 0 0 1 1.064-.258c.11-.021.21-.039.3-.054-.079-.1-.154-.192-.224-.285a8.078 8.078 0 0 1-.533-.79m1.732 1.479a.273.273 0 0 1 .023.025 5.011 5.011 0 0 0 .642.574 1.768 1.768 0 0 0 .475.27.441.441 0 0 0 .278 0 .232.232 0 0 0 .135-.1.285.285 0 0 0-.012-.218.636.636 0 0 0-.241-.26 1.391 1.391 0 0 0-.439-.175 3.99 3.99 0 0 0-.62-.1q-.118-.009-.24-.012m-3.558.9a3.055 3.055 0 0 0-.762.534.623.623 0 0 0-.2.318c0 .015-.006.03-.008.042a1.031 1.031 0 0 0 .39-.24 4.35 4.35 0 0 0 .578-.654M9.1 17.157a.34.34 0 0 1-.326-.194.669.669 0 0 1-.035-.441 1.126 1.126 0 0 1 .324-.552 3.651 3.651 0 0 1 .927-.645c.187-.094.409-.191.65-.284a11.025 11.025 0 0 0 .958-1.937 6.43 6.43 0 0 0 .092-.266 5.014 5.014 0 0 1-.332-1.313 2.86 2.86 0 0 1 .011-.635 1.107 1.107 0 0 1 .139-.458.6.6 0 0 1 .287-.229.585.585 0 0 1 .142-.034.418.418 0 0 1 .224 0 .8.8 0 0 1 .175.088c.278.136.252.376.216.707l-.015.14a9.67 9.67 0 0 1-.358 1.7c.015.033.032.066.049.1a7 7 0 0 0 .638.991c.123.162.266.338.414.511a4.791 4.791 0 0 1 .7 0 4.4 4.4 0 0 1 .69.116 1.786 1.786 0 0 1 .573.234 1.083 1.083 0 0 1 .416.471.764.764 0 0 1 .008.614.65.65 0 0 1-.408.347.867.867 0 0 1-.547 0 2.22 2.22 0 0 1-.609-.337 5.5 5.5 0 0 1-.7-.626c-.1-.105-.2-.217-.307-.331a7.721 7.721 0 0 0-.585.094 8.968 8.968 0 0 0-1.018.247 9.496 9.496 0 0 0-.555.187l-.068.105a6.331 6.331 0 0 1-1.01 1.252 1.363 1.363 0 0 1-.652.357.712.712 0 0 1-.109.01"  fill="#ff0000"/></svg>