<svg version="1.1" xmlns="http://www.w3.org/2000/svg"  viewBox="0 0 32 32">
<path d="M11.541 17.6h-1.625l0.271-1.081h1.223c-0.010-0.119-0.016-0.258-0.017-0.399v-0.41c0.001-0.332 0.020-0.659 0.056-0.98l-0.004 0.040h-1.529l0.271-1.082h1.442c0.495-2.372 2.568-4.128 5.051-4.128 0.084 0 0.169 0.002 0.252 0.006l-0.012-0c0.028-0 0.060-0.001 0.093-0.001 1.075 0 2.1 0.213 3.036 0.6l-0.053-0.019-0.65 1.978c-0.163-0.069-0.365-0.137-0.572-0.192l-0.034-0.008c-0.455-0.12-0.989-0.208-1.537-0.245l-0.027-0.001c-0.074-0.007-0.16-0.011-0.246-0.011-1.283 0-2.369 0.841-2.737 2.002l-0.006 0.020h4.571l-0.291 1.082h-4.5c-0.038 0.268-0.064 0.584-0.071 0.905l-0 0.009c-0 0.009-0 0.021-0 0.032 0 0.283 0.019 0.562 0.057 0.835l-0.004-0.032h3.9l-0.279 1.079h-3.48c0.063 1.479 1.278 2.654 2.767 2.654 0.078 0 0.155-0.003 0.231-0.010l-0.010 0.001c0.039 0.001 0.086 0.001 0.133 0.001 0.8 0 1.567-0.139 2.28-0.394l-0.047 0.015 0.641 1.995c-0.989 0.35-2.129 0.559-3.316 0.572l-0.006 0c-2.391 0-4.662-1.213-5.221-4.834z"></path>
<path d="M16 30c-7.732 0-14-6.268-14-14s6.268-14 14-14c7.732 0 14 6.268 14 14v0c-0.009 7.729-6.271 13.991-13.999 14h-0.001zM16 4c-6.627 0-12 5.373-12 12s5.373 12 12 12c6.627 0 12-5.373 12-12v0c-0.007-6.624-5.376-11.993-11.999-12h-0.001z"></path>
</svg>
