<svg width="32" height="32" viewBox="0 0 32 32" fill="none" xmlns="http://www.w3.org/2000/svg">
<path d="M17.209 17.192H16L16.2 16.392H17.107C17.099 16.292 17.095 16.192 17.094 16.099V15.792C17.0949 15.5581 17.1079 15.3245 17.133 15.092H16L16.2 14.292H17.27C17.4516 13.397 17.9475 12.5966 18.6679 12.0353C19.3883 11.4741 20.2858 11.1892 21.198 11.232C21.9804 11.2228 22.7568 11.3693 23.482 11.663L23 13.127C22.8531 13.0671 22.7025 13.017 22.549 12.977C22.1684 12.881 21.7798 12.82 21.388 12.795C20.9037 12.7535 20.4197 12.879 20.0166 13.1506C19.6135 13.4222 19.3154 13.8235 19.172 14.288H22.564L22.349 15.088H19.011C18.981 15.3128 18.964 15.5392 18.96 15.766C18.9579 15.9733 18.971 16.1805 18.999 16.386H21.899L21.69 17.186H19.1C19.1224 17.7305 19.36 18.2438 19.7608 18.613C20.1615 18.9822 20.6925 19.1772 21.237 19.155L21.318 19.15C21.915 19.1611 22.5093 19.0659 23.073 18.869L23.55 20.349C22.7561 20.6218 21.9235 20.7653 21.084 20.774C19.31 20.78 17.627 19.879 17.209 17.192Z" fill="black"/>
<path d="M20.9079 25.0519C19.1181 25.0519 17.3684 24.5212 15.8802 23.5268C14.392 22.5325 13.232 21.1192 12.547 19.4657C11.862 17.8121 11.6826 15.9925 12.0317 14.2371C12.3807 12.4816 13.2424 10.869 14.5079 9.6033C15.7734 8.33755 17.3857 7.47547 19.1411 7.12605C20.8965 6.77662 22.7161 6.95556 24.3698 7.64022C26.0235 8.32489 27.4371 9.48454 28.4317 10.9725C29.4264 12.4605 29.9575 14.2101 29.9579 15.9999C29.9558 18.3997 29.0017 20.7005 27.305 22.3976C25.6083 24.0947 23.3077 25.0493 20.9079 25.0519ZM20.9079 8.95191C19.5135 8.95191 18.1503 9.36543 16.9909 10.1402C15.8315 10.9149 14.9279 12.0161 14.3944 13.3045C13.8608 14.5928 13.7213 16.0104 13.9935 17.378C14.2657 18.7457 14.9374 20.0018 15.9235 20.9877C16.9097 21.9736 18.1661 22.6449 19.5338 22.9167C20.9015 23.1885 22.319 23.0486 23.6072 22.5147C24.8954 21.9808 25.9963 21.0769 26.7707 19.9172C27.5452 18.7576 27.9583 17.3944 27.9579 15.9999C27.955 14.1313 27.2112 12.3401 25.8896 11.0191C24.568 9.69806 22.7765 8.95502 20.9079 8.95291V8.95191Z" fill="black"/>
<path d="M10.6569 12H7.02295C6.75773 12 6.50338 11.8946 6.31584 11.7071C6.12831 11.5196 6.02295 11.2652 6.02295 11C6.02295 10.7348 6.12831 10.4804 6.31584 10.2929C6.50338 10.1054 6.75773 10 7.02295 10H10.6569C10.9222 10 11.1765 10.1054 11.3641 10.2929C11.5516 10.4804 11.6569 10.7348 11.6569 11C11.6569 11.2652 11.5516 11.5196 11.3641 11.7071C11.1765 11.8946 10.9222 12 10.6569 12Z" fill="black"/>
<path d="M9.6141 17H5.0271C4.76188 17 4.50753 16.8946 4.31999 16.7071C4.13246 16.5196 4.0271 16.2652 4.0271 16C4.0271 15.7348 4.13246 15.4804 4.31999 15.2929C4.50753 15.1054 4.76188 15 5.0271 15H9.6141C9.87932 15 10.1337 15.1054 10.3212 15.2929C10.5087 15.4804 10.6141 15.7348 10.6141 16C10.6141 16.2652 10.5087 16.5196 10.3212 16.7071C10.1337 16.8946 9.87932 17 9.6141 17Z" fill="black"/>
<path d="M10.657 22H3C2.73478 22 2.48043 21.8946 2.29289 21.7071C2.10536 21.5196 2 21.2652 2 21C2 20.7348 2.10536 20.4804 2.29289 20.2929C2.48043 20.1054 2.73478 20 3 20H10.657C10.9222 20 11.1766 20.1054 11.3641 20.2929C11.5516 20.4804 11.657 20.7348 11.657 21C11.657 21.2652 11.5516 21.5196 11.3641 21.7071C11.1766 21.8946 10.9222 22 10.657 22Z" fill="black"/>
</svg>
