<svg viewBox="0 0 16 16" width="16" height="16" xmlns="http://www.w3.org/2000/svg">
<path d="M13.3333 8C12.9653 8 12.6667 8.29867 12.6667 8.66667V12.6667C12.6667 13.0347 12.368 13.3333 12 13.3333H3.33334C2.96534 13.3333 2.66667 13.0347 2.66667 12.6667V4C2.66667 3.632 2.96534 3.33333 3.33334 3.33333H7.33334C7.70134 3.33333 8 3.03467 8 2.66667C8 2.29867 7.70134 2 7.33334 2H3.33334C2.22867 2 1.33334 2.89533 1.33334 4V12.6667C1.33334 13.7713 2.22867 14.6667 3.33334 14.6667H12C13.1047 14.6667 14 13.7713 14 12.6667V8.66667C14 8.29867 13.7013 8 13.3333 8Z"/>
<path d="M14.6153 1.7455C14.546 1.5815 14.4187 1.45416 14.2593 1.38616L14.2547 1.38483C14.1793 1.35283 14.092 1.33416 14 1.3335H10C9.632 1.3335 9.33333 1.63216 9.33333 2.00016C9.33333 2.36816 9.632 2.66683 10 2.66683H12.3907L6.19533 8.86216C6.07 8.9835 5.992 9.1535 5.992 9.3415C5.992 9.7095 6.29066 10.0082 6.65866 10.0082C6.84666 10.0082 7.01666 9.93016 7.138 9.80483L13.3333 3.6095V6.00016C13.3333 6.36816 13.632 6.66683 14 6.66683C14.368 6.66683 14.6667 6.36816 14.6667 6.00016V2.00016C14.6667 1.90816 14.648 1.82083 14.614 1.7415L14.6153 1.7455Z"/>
</svg>
