<svg width="24" height="24" viewBox="0 0 24 24" fill="none" xmlns="http://www.w3.org/2000/svg">
<path d="M11.7 12.7409H10.76L10.917 12.1149H11.624C11.618 12.0389 11.614 11.9629 11.613 11.8869V11.6479C11.6138 11.4661 11.6242 11.2846 11.644 11.1039H10.76L10.917 10.4779H11.751C11.8925 9.7805 12.279 9.15677 12.8404 8.71951C13.4018 8.28225 14.1012 8.06033 14.812 8.09389C15.4213 8.08699 16.0259 8.20085 16.591 8.42889L16.215 9.57289C16.1005 9.52673 15.9833 9.48766 15.864 9.45589C15.5689 9.38151 15.2677 9.33398 14.964 9.31389C14.5866 9.28191 14.2095 9.3799 13.8954 9.59161C13.5813 9.80332 13.349 10.116 13.237 10.4779H15.881L15.713 11.1039H13.113C13.0892 11.2793 13.0758 11.4559 13.073 11.6329C13.0715 11.7941 13.0815 11.9551 13.103 12.1149H15.36L15.197 12.7409H13.177C13.1855 12.951 13.2353 13.1573 13.3236 13.3482C13.4119 13.539 13.5369 13.7105 13.6916 13.853C13.8462 13.9954 14.0274 14.106 14.2248 14.1784C14.4222 14.2508 14.6319 14.2836 14.842 14.2749H14.905C15.3703 14.283 15.8335 14.2088 16.273 14.0559L16.645 15.2089C16.0262 15.4215 15.3773 15.5332 14.723 15.5399C14.3403 15.5564 13.9581 15.4968 13.5986 15.3648C13.239 15.2327 12.9092 15.0308 12.6281 14.7705C12.347 14.5103 12.1203 14.1969 11.961 13.8486C11.8017 13.5002 11.713 13.1237 11.7 12.7409Z" fill="black"/>
<path d="M14.5 19.5C13.0166 19.5 11.5666 19.0601 10.3332 18.236C9.09986 17.4119 8.13856 16.2406 7.57091 14.8701C7.00325 13.4997 6.85472 11.9917 7.14411 10.5368C7.4335 9.08197 8.14781 7.7456 9.1967 6.6967C10.2456 5.64781 11.582 4.9335 13.0368 4.64411C14.4917 4.35472 15.9997 4.50325 17.3701 5.07091C18.7406 5.63856 19.9119 6.59986 20.736 7.83323C21.5601 9.0666 22 10.5166 22 12C21.9979 13.9885 21.207 15.8949 19.801 17.301C18.3949 18.707 16.4885 19.4979 14.5 19.5ZM14.5 6.5C13.4122 6.5 12.3488 6.82257 11.4444 7.42692C10.5399 8.03127 9.83495 8.89025 9.41867 9.89524C9.00238 10.9002 8.89347 12.0061 9.10568 13.073C9.3179 14.1399 9.84173 15.1199 10.6109 15.8891C11.3801 16.6583 12.3601 17.1821 13.427 17.3943C14.4939 17.6065 15.5998 17.4976 16.6048 17.0813C17.6098 16.6651 18.4687 15.9601 19.0731 15.0556C19.6774 14.1512 20 13.0878 20 12C19.9984 10.5418 19.4184 9.14378 18.3873 8.11267C17.3562 7.08156 15.9582 6.50159 14.5 6.5Z" fill="black"/>
<path d="M6 9H5C4.73478 9 4.48043 8.89464 4.29289 8.70711C4.10536 8.51957 4 8.26522 4 8C4 7.73478 4.10536 7.48043 4.29289 7.29289C4.48043 7.10536 4.73478 7 5 7H6C6.26522 7 6.51957 7.10536 6.70711 7.29289C6.89464 7.48043 7 7.73478 7 8C7 8.26522 6.89464 8.51957 6.70711 8.70711C6.51957 8.89464 6.26522 9 6 9Z" fill="black"/>
<path d="M5.0001 13.0071H4.0061C3.74089 13.0071 3.48653 12.9017 3.299 12.7142C3.11146 12.5267 3.0061 12.2723 3.0061 12.0071C3.0061 11.7419 3.11146 11.4875 3.299 11.3C3.48653 11.1124 3.74089 11.0071 4.0061 11.0071H5.0001C5.26532 11.0071 5.51967 11.1124 5.70721 11.3C5.89475 11.4875 6.0001 11.7419 6.0001 12.0071C6.0001 12.2723 5.89475 12.5267 5.70721 12.7142C5.51967 12.9017 5.26532 13.0071 5.0001 13.0071Z" fill="black"/>
<path d="M6 17.0149H3C2.73478 17.0149 2.48043 16.9095 2.29289 16.722C2.10536 16.5345 2 16.2801 2 16.0149C2 15.7497 2.10536 15.4953 2.29289 15.3078C2.48043 15.1202 2.73478 15.0149 3 15.0149H6C6.26522 15.0149 6.51957 15.1202 6.70711 15.3078C6.89464 15.4953 7 15.7497 7 16.0149C7 16.2801 6.89464 16.5345 6.70711 16.722C6.51957 16.9095 6.26522 17.0149 6 17.0149Z" fill="black"/>
</svg>
