<svg width="24" height="24" viewBox="0 0 24 24" fill="none" xmlns="http://www.w3.org/2000/svg">
<path d="M7.57743 8.85006H6.00006C5.76137 8.85006 5.53245 8.94488 5.36367 9.11367C5.19488 9.28245 5.10006 9.51137 5.10006 9.75006C5.10006 9.98876 5.19488 10.2177 5.36367 10.3865C5.53245 10.5552 5.76137 10.6501 6.00006 10.6501L9.75006 10.6501C9.98876 10.6501 10.2177 10.5552 10.3865 10.3865C10.5552 10.2177 10.6501 9.98876 10.6501 9.75006L10.6501 6.00006C10.6501 5.76137 10.5552 5.53245 10.3865 5.36367C10.2177 5.19488 9.98876 5.10006 9.75006 5.10006C9.51137 5.10006 9.28245 5.19488 9.11367 5.36367C8.94488 5.53245 8.85006 5.76137 8.85006 6.00006V7.57743L2.88638 1.61375L2.88639 1.61373L2.88452 1.61192C2.71478 1.44798 2.48743 1.35726 2.25146 1.35931C2.01548 1.36136 1.78975 1.45601 1.62288 1.62288C1.45601 1.78975 1.36136 2.01548 1.35931 2.25146C1.35726 2.48743 1.44798 2.71478 1.61192 2.88452L1.6119 2.88453L1.61375 2.88638L7.57743 8.85006Z" fill="#292929" stroke="#292929" stroke-width="0.3"/>
<path d="M14.8864 5.36354C14.7176 5.19476 14.4887 5.09994 14.25 5.09994C14.0113 5.09994 13.7824 5.19476 13.6136 5.36354C13.4448 5.53233 13.35 5.76124 13.35 5.99994L13.35 9.74994C13.35 9.98863 13.4448 10.2176 13.6136 10.3863C13.7824 10.5551 14.0113 10.6499 14.25 10.6499H18C18.2387 10.6499 18.4676 10.5551 18.6364 10.3863C18.8052 10.2176 18.9 9.98863 18.9 9.74994C18.9 9.51124 18.8052 9.28233 18.6364 9.11354C18.4676 8.94476 18.2387 8.84994 18 8.84994H16.4226L22.3854 2.88712C22.4709 2.80429 22.5392 2.70533 22.5861 2.59595C22.6333 2.48614 22.6581 2.36805 22.6592 2.24854C22.6602 2.12904 22.6375 2.01053 22.5922 1.89992C22.5469 1.78932 22.4801 1.68883 22.3956 1.60433C22.3111 1.51982 22.2106 1.453 22.1 1.40774C21.9894 1.36249 21.8709 1.33972 21.7514 1.34076C21.6319 1.3418 21.5138 1.36662 21.404 1.41379C21.2946 1.46078 21.1956 1.529 21.1128 1.6145L15.15 7.57731L15.15 5.99994C15.15 5.76124 15.0552 5.53233 14.8864 5.36354Z" fill="#292929" stroke="#292929" stroke-width="0.3"/>
<path d="M2.88452 22.3881L2.88453 22.3882L2.88638 22.3863L8.85006 16.4226L8.85006 18C8.85006 18.2387 8.94488 18.4676 9.11367 18.6364C9.28245 18.8052 9.51137 18.9 9.75006 18.9C9.98876 18.9 10.2177 18.8052 10.3865 18.6364C10.5552 18.4676 10.6501 18.2387 10.6501 18L10.6501 14.25C10.6501 14.0113 10.5552 13.7824 10.3865 13.6136C10.2177 13.4448 9.98876 13.35 9.75006 13.35L6.00006 13.35C5.76137 13.35 5.53245 13.4448 5.36367 13.6136C5.19488 13.7824 5.10006 14.0113 5.10006 14.25C5.10006 14.4887 5.19488 14.7176 5.36367 14.8864C5.53245 15.0552 5.76137 15.15 6.00006 15.15H7.57743L1.61375 21.1137L1.61373 21.1137L1.61192 21.1155C1.44798 21.2853 1.35726 21.5126 1.35931 21.7486C1.36136 21.9846 1.45601 22.2103 1.62288 22.3772C1.78975 22.544 2.01548 22.6387 2.25146 22.6407C2.48743 22.6428 2.71478 22.5521 2.88452 22.3881Z" fill="#292929" stroke="#292929" stroke-width="0.3"/>
<path d="M16.4226 15.15H18C18.2387 15.15 18.4676 15.0552 18.6364 14.8864C18.8052 14.7176 18.9 14.4887 18.9 14.25C18.9 14.0113 18.8052 13.7824 18.6364 13.6136C18.4676 13.4448 18.2387 13.35 18 13.35H14.25C14.0113 13.35 13.7824 13.4448 13.6136 13.6136C13.4448 13.7824 13.35 14.0113 13.35 14.25L13.35 18C13.35 18.2387 13.4448 18.4676 13.6136 18.6364C13.7824 18.8052 14.0113 18.9 14.25 18.9C14.4887 18.9 14.7176 18.8052 14.8864 18.6364C15.0552 18.4676 15.15 18.2387 15.15 18L15.15 16.4226L21.1137 22.3863L21.1137 22.3863L21.1155 22.3881C21.2853 22.5521 21.5126 22.6428 21.7486 22.6407C21.9846 22.6387 22.2103 22.544 22.3772 22.3772C22.544 22.2103 22.6387 21.9846 22.6407 21.7486C22.6428 21.5126 22.5521 21.2853 22.3881 21.1155L22.3882 21.1155L22.3863 21.1137L16.4226 15.15Z" fill="#292929" stroke="#292929" stroke-width="0.3"/>
</svg>