<svg width="24" height="24" viewBox="0 0 24 24" fill="none" xmlns="http://www.w3.org/2000/svg">
<path d="M4.43185 3.15922L6.00922 3.15922C6.24791 3.15922 6.47683 3.06439 6.64561 2.89561C6.8144 2.72683 6.90922 2.49791 6.90922 2.25922C6.90922 2.02052 6.8144 1.7916 6.64561 1.62282C6.47683 1.45404 6.24791 1.35922 6.00922 1.35922L2.25922 1.35922C2.02052 1.35922 1.7916 1.45404 1.62282 1.62282C1.45404 1.7916 1.35922 2.02052 1.35922 2.25922L1.35922 6.00922C1.35922 6.24791 1.45404 6.47683 1.62282 6.64561C1.7916 6.81439 2.02052 6.90922 2.25922 6.90922C2.49791 6.90922 2.72683 6.81439 2.89561 6.64561C3.06439 6.47683 3.15922 6.24791 3.15922 6.00922L3.15922 4.43185L9.1229 10.3955L9.12288 10.3955L9.12476 10.3974C9.2945 10.5613 9.52184 10.652 9.75782 10.65C9.9938 10.6479 10.2195 10.5533 10.3864 10.3864C10.5533 10.2195 10.6479 9.9938 10.65 9.75782C10.652 9.52184 10.5613 9.2945 10.3974 9.12476L10.3974 9.12474L10.3955 9.1229L4.43185 3.15922Z" fill="#292929" stroke="#292929" stroke-width="0.3"/>
<path d="M20.8593 4.41342L20.8593 5.99078C20.8593 6.22948 20.9541 6.4584 21.1229 6.62718C21.2917 6.79596 21.5206 6.89078 21.7593 6.89078C21.998 6.89078 22.2269 6.79596 22.3957 6.62718C22.5645 6.4584 22.6593 6.22948 22.6593 5.99078L22.6593 2.24078C22.6593 2.00209 22.5645 1.77317 22.3957 1.60439C22.2269 1.43561 21.998 1.34078 21.7593 1.34078L18.0093 1.34078C17.7706 1.34078 17.5417 1.43561 17.3729 1.60439C17.2041 1.77317 17.1093 2.00209 17.1093 2.24078C17.1093 2.47948 17.2041 2.7084 17.3729 2.87718C17.5417 3.04596 17.7706 3.14078 18.0093 3.14078L19.5866 3.14078L13.6239 9.10357C13.5383 9.18641 13.4701 9.28538 13.4231 9.39478C13.376 9.50458 13.3511 9.62268 13.3501 9.74218C13.3491 9.86168 13.3718 9.98019 13.4171 10.0908C13.4623 10.2014 13.5292 10.3019 13.6137 10.3864C13.6982 10.4709 13.7987 10.5377 13.9093 10.583C14.0199 10.6282 14.1384 10.651 14.2579 10.65C14.3774 10.6489 14.4955 10.6241 14.6053 10.5769C14.7147 10.5299 14.8136 10.4617 14.8965 10.3762L20.8593 4.41342Z" fill="#292929" stroke="#292929" stroke-width="0.3"/>
<path d="M9.12476 13.6026L9.12474 13.6026L9.1229 13.6044L3.15922 19.5681L3.15922 17.9907C3.15922 17.752 3.06439 17.5231 2.89561 17.3543C2.72683 17.1855 2.49791 17.0907 2.25922 17.0907C2.02052 17.0907 1.7916 17.1855 1.62282 17.3543C1.45404 17.5231 1.35922 17.752 1.35922 17.9907L1.35922 21.7407C1.35922 21.9794 1.45404 22.2083 1.62282 22.3771L1.72828 22.2717L1.62282 22.3771C1.7916 22.5459 2.02052 22.6407 2.25922 22.6407L6.00922 22.6407C6.24791 22.6407 6.47683 22.5459 6.64561 22.3771C6.81439 22.2083 6.90922 21.9794 6.90922 21.7407C6.90922 21.502 6.81439 21.2731 6.64561 21.1043C6.47683 20.9355 6.24791 20.8407 6.00922 20.8407L4.43185 20.8407L10.3955 14.877L10.3955 14.8771L10.3974 14.8752C10.5613 14.7054 10.652 14.4781 10.65 14.2421C10.6479 14.0061 10.5533 13.7804 10.3864 13.6135C10.2195 13.4467 9.9938 13.352 9.75782 13.35C9.52184 13.3479 9.2945 13.4386 9.12476 13.6026Z" fill="#292929" stroke="#292929" stroke-width="0.3"/>
<path d="M19.5681 20.8407L17.9907 20.8407C17.752 20.8407 17.5231 20.9355 17.3543 21.1043C17.1855 21.2731 17.0907 21.502 17.0907 21.7407C17.0907 21.9794 17.1855 22.2083 17.3543 22.3771C17.5231 22.5459 17.752 22.6407 17.9907 22.6407L21.7407 22.6407C21.9794 22.6407 22.2083 22.5459 22.3771 22.3771C22.5459 22.2083 22.6407 21.9794 22.6407 21.7407L22.6407 17.9907C22.6407 17.752 22.5459 17.5231 22.3771 17.3543C22.2083 17.1855 21.9794 17.0907 21.7407 17.0907C21.502 17.0907 21.2731 17.1855 21.1043 17.3543C20.9355 17.5231 20.8407 17.752 20.8407 17.9907L20.8407 19.5681L14.877 13.6044L14.8771 13.6044L14.8752 13.6026C14.7054 13.4386 14.4781 13.3479 14.2421 13.35C14.0061 13.352 13.7804 13.4467 13.6135 13.6135C13.4467 13.7804 13.352 14.0061 13.35 14.2421C13.3479 14.4781 13.4386 14.7054 13.6026 14.8752L13.6026 14.8752L13.6044 14.877L19.5681 20.8407Z" fill="#292929" stroke="#292929" stroke-width="0.3"/>
</svg>