
<svg width="24" height="24" viewBox="0 0 24 24" fill="none" xmlns="http://www.w3.org/2000/svg">
<rect x="6" y="17" width="16" height="2" rx="1" fill="currentColor" fill-opacity="0.6"/>
<rect x="13" y="5" width="9" height="2" rx="1" fill="currentColor" fill-opacity="0.6"/>
<path d="M13 4.00002C12.2884 4.00201 11.6317 4.38311 11.277 5.00002H3C2.44772 5.00002 2 5.44774 2 6.00002C2 6.55231 2.44772 7.00002 3 7.00002H11.277C11.7629 7.84155 12.7833 8.21208 13.6959 7.87835C14.6085 7.54462 15.1492 6.60321 14.9776 5.64676C14.806 4.69032 13.9717 3.99563 13 4.00002Z" fill="currentColor"/>
<path d="M20 10C19.2884 10.002 18.6317 10.3831 18.277 11H3C2.44772 11 2 11.4477 2 12C2 12.5523 2.44772 13 3 13H18.277C18.7629 13.8416 19.7833 14.2121 20.6959 13.8783C21.6085 13.5446 22.1492 12.6032 21.9776 11.6468C21.806 10.6903 20.9717 9.99563 20 10Z" fill="currentColor"/>
<path d="M6 16C5.28837 16.002 4.63174 16.3831 4.277 17H3C2.44772 17 2 17.4477 2 18C2 18.5523 2.44772 19 3 19H4.277C4.76287 19.8416 5.78331 20.2121 6.69592 19.8783C7.60854 19.5446 8.14922 18.6032 7.9776 17.6468C7.80597 16.6903 6.97171 15.9956 6 16Z" fill="currentColor"/>
</svg>
