<svg width="32" height="32" viewBox="0 0 32 32" xmlns="http://www.w3.org/2000/svg">
<path d="M16 26.6667C16 25.9304 15.403 25.3334 14.6667 25.3334L6.66667 25.3334C5.93029 25.3334 5.33333 24.7365 5.33333 24.0001L5.33333 6.66675C5.33333 5.93037 5.93029 5.33341 6.66667 5.33341L24 5.33341C24.7364 5.33341 25.3333 5.93037 25.3333 6.66675L25.3333 14.6667C25.3333 15.4031 25.9303 16.0001 26.6667 16.0001C27.403 16.0001 28 15.4031 28 14.6667L28 6.66675C28 4.45761 26.2091 2.66675 24 2.66675L6.66667 2.66675C4.45753 2.66675 2.66667 4.45761 2.66667 6.66675L2.66667 24.0001C2.66667 26.2092 4.45753 28.0001 6.66666 28.0001L14.6667 28.0001C15.403 28.0001 16 27.4031 16 26.6667Z"/>
<path d="M28.5093 29.2307C28.8358 29.0954 29.0953 28.8359 29.2306 28.5094C29.2975 28.3479 29.3324 28.1749 29.3333 28.0001L29.3333 20.0001C29.3333 19.2637 28.7363 18.6667 27.9999 18.6667C27.2635 18.6667 26.6666 19.2637 26.6666 20.0001L26.6666 24.7814L14.2759 12.3907C13.9412 12.0441 13.4454 11.9051 12.9792 12.0271C12.5131 12.1492 12.149 12.5132 12.027 12.9794C11.905 13.4456 12.044 13.9413 12.3906 14.2761L24.7813 26.6667L19.9999 26.6667C19.2635 26.6667 18.6666 27.2637 18.6666 28.0001C18.6666 28.7364 19.2635 29.3334 19.9999 29.3334L27.9999 29.3334C28.1748 29.3332 28.3479 29.2983 28.5093 29.2307Z"/>
</svg>