<?xml version="1.0" encoding="UTF-8"?>
<svg xmlns="http://www.w3.org/2000/svg" viewBox="0 0 24 24"><path d="M21.049,19.77H19.388V14.481c1.563-.686,2.6-3.048,2.6-5.965,0-3.516-1.523-6.168-3.543-6.168S14.905,5,14.905,8.516c0,2.917,1.038,5.279,2.6,5.965V19.77H15.461l-.44.022V11.325a.946.946,0,0,0-.091-.4.919.919,0,0,0-.255-.326L9.1,6.045a.966.966,0,0,0-1.191,0L2.337,10.6a.943.943,0,0,0-.257.326.953.953,0,0,0-.09.4v9.386a.941.941,0,0,0,.94.941H21.049a.941.941,0,1,0,0-1.882ZM9.307,15.38v4.39H7.7V15.38Zm1.606-1.606a.934.934,0,0,0-.665-.276H6.763a.941.941,0,0,0-.94.941V19.77H3.871v-8L8.505,7.988l4.635,3.783v8H11.188V14.439A.936.936,0,0,0,10.913,13.774Zm5.873-5.258c0-2.577,1-4.286,1.661-4.286s1.661,1.709,1.661,4.286-1,4.285-1.661,4.285S16.786,11.092,16.786,8.516Z"/></svg>