<svg width="32" height="32" viewBox="0 0 32 32" fill="none" xmlns="http://www.w3.org/2000/svg">
<path fill-rule="evenodd" clip-rule="evenodd" d="M2 16C2 8.26801 8.26801 2 16 2C19.713 2 23.274 3.475 25.8995 6.1005C28.525 8.72601 30 12.287 30 16C30 23.732 23.732 30 16 30C8.26801 30 2 23.732 2 16ZM28 16C28 9.37258 22.6274 4 16 4C9.37555 4.00716 4.00716 9.37555 4 16C4 22.6274 9.37258 28 16 28C22.6274 28 28 22.6274 28 16Z" fill="black"/>
<path fill-rule="evenodd" clip-rule="evenodd" d="M16.0902 7.19312H15.9352C15.6087 7.19284 15.2955 7.32305 15.0655 7.55479C14.8354 7.78653 14.7075 8.10059 14.7102 8.42712L14.7882 17.7941C14.7931 18.4666 15.3397 19.0091 16.0122 19.0091C16.6849 19.0091 17.2317 18.4668 17.2372 17.7941L17.3142 8.42712C17.3169 8.10076 17.1891 7.78686 16.9592 7.55515C16.7294 7.32343 16.4166 7.19311 16.0902 7.19312ZM15.9835 21.3962C15.0383 21.4057 14.2604 22.1428 14.2002 23.0861C14.2258 24.0539 15.0251 24.8211 15.9932 24.8071C16.9735 24.8112 17.7768 24.0301 17.8002 23.0501C17.7211 22.1082 16.9287 21.3868 15.9835 21.3962Z" fill="black"/>
</svg>
