<?xml version="1.0" encoding="UTF-8"?>
<svg xmlns="http://www.w3.org/2000/svg" viewBox="0 0 24 24"><path d="M20.335,4.83l0,0a5.723,5.723,0,0,0-8.074,0L12,5.084l-.257-.256A5.709,5.709,0,0,0,3.672,12.9L11.34,20.57a.939.939,0,0,0,1.326,0L20.333,12.9A5.721,5.721,0,0,0,20.335,4.83ZM7.842,11.245l2.111,2.11a.939.939,0,0,0,1.326,0l3.5-3.5,2.975,2.975L12,18.581,6.254,12.833ZM14.113,7.87l-3.5,3.5L8.505,9.257a.94.94,0,0,0-1.325,0l-2.25,2.25a3.835,3.835,0,0,1,5.491-5.353l.919.919a.96.96,0,0,0,1.326,0l.921-.921a3.844,3.844,0,0,1,5.421,0l.049.049a3.84,3.84,0,0,1,.018,5.305L15.438,7.87A.939.939,0,0,0,14.113,7.87Z"/></svg>