<?xml version="1.0" encoding="UTF-8" ?>
<svg version="1.1" xmlns="http://www.w3.org/2000/svg" viewBox="0 0 24 24">
<path d="M12 16.65c-0.552 0-1-0.448-1-1s0.448-1 1-1c0.552 0 1 0.448 1 1v0c0 0.552-0.448 1-1 1v0z"></path>
<path d="M12 12.65c-0.552 0-1-0.448-1-1v0-4c0-0.552 0.448-1 1-1s1 0.448 1 1v0 4c0 0.552-0.448 1-1 1v0z"></path>
<path d="M12 22c-0.577-0.002-1.099-0.235-1.48-0.61l0 0-7.91-7.91c-0.387-0.383-0.626-0.913-0.626-1.5s0.239-1.117 0.626-1.5l7.91-7.91c0.383-0.387 0.913-0.626 1.5-0.626s1.117 0.239 1.5 0.626l7.91 7.91c0.387 0.383 0.626 0.913 0.626 1.5s-0.239 1.117-0.626 1.5l-7.91 7.91c-0.383 0.377-0.908 0.61-1.488 0.61-0.011 0-0.022-0-0.033-0l0.002 0zM12 4c-0.010-0.004-0.022-0.006-0.035-0.006s-0.025 0.002-0.036 0.006l0.001-0-7.93 7.93c-0.018 0.018-0.029 0.043-0.029 0.070s0.011 0.052 0.029 0.070l7.9 7.9c0.018 0.018 0.043 0.029 0.070 0.029s0.052-0.011 0.070-0.029l7.9-7.9c0.014-0.019 0.023-0.044 0.023-0.070s-0.008-0.051-0.023-0.070l0 0-7.87-7.93c-0.010-0.004-0.022-0.006-0.035-0.006s-0.025 0.002-0.036 0.006l0.001-0z"></path>
</svg>
