<?xml version="1.0" encoding="UTF-8"?>
<svg xmlns="http://www.w3.org/2000/svg" viewBox="0 0 32 32"><path d="M27.855 6.12l-.003-.003a7.89 7.89 0 0 0-11.145-.002l-.003.003-.618.618-.619-.619A7.882 7.882 0 0 0 4.32 17.264l11.06 11.06a1 1 0 0 0 1.414 0l11.058-11.06a7.889 7.889 0 0 0 .003-11.145zM16.086 26.201l-8.788-8.788 2.788-2.788 3.293 3.293a1 1 0 0 0 1.414 0l5.293-5.293 4.788 4.788zM26.438 15.85l-.15.15-5.495-5.495a1 1 0 0 0-1.414 0l-5.293 5.293-3.293-3.293a1 1 0 0 0-1.414 0L5.884 16l-.15-.15a5.882 5.882 0 0 1 8.32-8.318l1.326 1.326a1 1 0 0 0 1.414 0L18.12 7.53l.003-.002a5.888 5.888 0 0 1 8.315.002l.71-.705-.707.707a5.881 5.881 0 0 1-.003 8.317z" /></svg>