<?xml version="1.0" encoding="UTF-8"?>
<svg xmlns="http://www.w3.org/2000/svg" viewBox="0 0 24 24"><path d="M22 12a1 1 0 0 0-.594-.914L17.837 9.5l3.569-1.586a1 1 0 0 0 0-1.828l-9-4a1 1 0 0 0-.812 0l-9 4a1 1 0 0 0 0 1.828L6.163 9.5l-3.569 1.586a1 1 0 0 0 0 1.828L6.163 14.5l-3.569 1.586a1 1 0 0 0 0 1.828l9 4a1 1 0 0 0 .812 0l9-4a1 1 0 0 0 0-1.828L17.837 14.5l3.569-1.586A1 1 0 0 0 22 12zM5.462 7L12 4.094 18.538 7l-3.163 1.406L12.913 9.5 12 9.906l-.913-.406-2.462-1.094zm13.076 10L12 19.906 5.462 17l3.163-1.406 2.969 1.32a1 1 0 0 0 .812 0l2.969-1.32zm-3.163-3.594L12.913 14.5l-.913.406-.913-.406-2.462-1.094L5.462 12l3.163-1.406 2.969 1.32a1 1 0 0 0 .812 0l2.969-1.32L18.538 12z"/></svg>