<svg width="24" height="24" viewBox="0 0 24 24" fill="none" xmlns="http://www.w3.org/2000/svg">
<path fill-rule="evenodd" clip-rule="evenodd" d="M21.4639 2.859L21.6999 2.8C22.8579 7.46 20.5859 15.486 15.9309 18.848C13.0969 20.889 9.76793 20.969 6.33093 18.969L3.60493 21.722C3.42911 21.8998 3.18947 21.9998 2.93943 21.9998C2.6894 21.9998 2.44976 21.8998 2.27393 21.722C1.90869 21.3488 1.90869 20.7522 2.27393 20.379L5.02693 17.601C2.98193 13.579 3.98293 10.505 5.19393 8.626C8.17793 4 15.7319 1.5 20.8949 2.087L20.9459 2.097C21.0102 2.11068 21.0729 2.13113 21.1329 2.158C21.1768 2.1704 21.2194 2.18715 21.2599 2.208C21.3054 2.23668 21.3477 2.27021 21.3859 2.308C21.4395 2.34966 21.4887 2.39656 21.5329 2.448C21.557 2.48125 21.5771 2.51715 21.5929 2.555C21.635 2.62617 21.6685 2.70202 21.6929 2.781L21.4639 2.859ZM15.7824 8.0965C16.1497 8.46736 16.1468 9.06573 15.7759 9.433L7.71393 17.572C9.91841 18.9458 12.7373 18.8385 14.8309 17.301C18.6099 14.576 20.6439 8.058 19.9999 3.924C15.4939 3.7 9.18493 5.914 6.77193 9.661C5.51092 11.6181 5.3845 14.0978 6.43993 16.173L14.4459 8.09C14.8168 7.72273 15.4152 7.72564 15.7824 8.0965Z" fill="black"/>
</svg>
