<?xml version="1.0" encoding="UTF-8"?>
<svg xmlns="http://www.w3.org/2000/svg" viewBox="0 0 32 32"><path d="M25.518 11.605h-2.957V8.536h.022a6.58 6.58 0 0 0-13.15-.229l-.01 3.3H6.482a1.539 1.539 0 0 0-1.539 1.539V28.4a1.539 1.539 0 0 0 1.539 1.539h19.036a1.539 1.539 0 0 0 1.539-1.539V13.144a1.539 1.539 0 0 0-1.539-1.539zM11.433 8.366a4.579 4.579 0 0 1 9.128-.166v3.378h-9.138zm13.624 19.572H6.943V13.605h18.114z"/><path d="M14.983 21.445v2.162a1 1 0 0 0 1 1h.034a1 1 0 0 0 1-1v-2.162a2.144 2.144 0 1 0-2.034 0z"/></svg>