<?xml version="1.0" encoding="UTF-8"?>
<svg xmlns="http://www.w3.org/2000/svg" viewBox="0 0 32 32"><path d="M30 15.968a1 1 0 0 0-.64-.9l-6.06-2.334 6.123-2.826a1 1 0 0 0-.06-1.842l-13-5a1.009 1.009 0 0 0-.778.026l-13 6a1 1 0 0 0 .06 1.842L8.7 13.266l-6.119 2.826a1 1 0 0 0 .06 1.842L8.7 20.266l-6.119 2.826a1 1 0 0 0 .06 1.842l13 5A1.014 1.014 0 0 0 16 30a1 1 0 0 0 .419-.092l13-6a1 1 0 0 0-.06-1.842L23.3 19.734l6.123-2.826a1 1 0 0 0 .577-.94zM5.567 9.916l10.468-4.831 10.4 4-5.74 2.649L18.16 12.9l-2.2 1.013-2.12-.813-2.6-1zm20.866 13.168l-10.468 4.831-10.4-4 5.74-2.649 4.334 1.667A1.014 1.014 0 0 0 16 23a1 1 0 0 0 .419-.092l4.344-2.008zm-5.74-4.351L18.16 19.9l-2.2 1.013-2.12-.813-2.6-1-5.67-2.181 5.74-2.649 4.334 1.667A1.014 1.014 0 0 0 16 16a1 1 0 0 0 .419-.092l4.344-2 5.67 2.181z"/></svg>