<?xml version="1.0" encoding="UTF-8"?>
<svg xmlns="http://www.w3.org/2000/svg" viewBox="0 0 24 24"><path d="M18.533,2.533h0a3.38,3.38,0,0,0-3.25-.6c-.2.06-.372.117-.538.171a8.756,8.756,0,0,1-5.492,0c-.178-.059-.357-.115-.528-.168a3.376,3.376,0,0,0-3.259.6C4.269,3.536,3,6,3.759,12.029c1.012,8.056,7.232,9.992,7.938,10.186a.969.969,0,0,0,.256.035h.1a.951.951,0,0,0,.255-.035c.706-.194,6.928-2.123,7.938-10.186C21,6,19.73,3.536,18.533,2.533ZM6.707,4.015a1.326,1.326,0,0,1,.868-.324h.007a1.9,1.9,0,0,1,.558.091c.181.057.346.109.5.16a10.709,10.709,0,0,0,6.713,0c.154-.051.319-.1.513-.165a1.431,1.431,0,0,1,1.422.241c.427.354,1.762,1.96,1.031,7.77-.63,5.024-3.579,7.208-5.28,8.062a2.329,2.329,0,0,1-2.082,0c-1.7-.854-4.65-3.038-5.281-8.062C4.946,5.984,6.278,4.373,6.707,4.015Z"/><path d="M9.1,12.754a.546.546,0,0,0-.067.211.343.343,0,0,0,.007.153c.059,1.707,1.219,4.186,2.9,4.186s2.844-2.479,2.893-4.127a.623.623,0,0,0,.014-.244.578.578,0,0,0-.667-.467.586.586,0,0,0-.184.065A4.113,4.113,0,0,1,11.938,13a4.017,4.017,0,0,1-2.049-.471A.577.577,0,0,0,9.1,12.754Z"/><path d="M12.994,10.463a.844.844,0,0,0,1.135-.312.811.811,0,0,1,.7-.349.835.835,0,0,1,.707.361.846.846,0,0,0,.73.418.842.842,0,0,0,.724-1.271,2.53,2.53,0,0,0-2.157-1.2h0A2.483,2.483,0,0,0,12.65,9.342.839.839,0,0,0,12.994,10.463Z"/><path d="M6.928,10.463a.855.855,0,0,0,.409.1.84.84,0,0,0,.727-.416.8.8,0,0,1,.662-.35.381.381,0,0,1,.048,0,.85.85,0,0,1,.7.367.844.844,0,0,0,1.159.269.844.844,0,0,0,.29-1.129A2.527,2.527,0,0,0,8.771,8.115a.192.192,0,0,1-.048,0A2.484,2.484,0,0,0,6.584,9.342.84.84,0,0,0,6.928,10.463Z"/></svg>