<?xml version="1.0" encoding="UTF-8"?>
<svg xmlns="http://www.w3.org/2000/svg" viewBox="0 0 24 24"><path d="M15.11,7.5h-6.11c-.55,0-1-.45-1-1s.45-1,1-1h6.11c.55,0,1,.45,1,1s-.45,1-1,1Z"/><path d="M13.13,10.5h-4.13c-.55,0-1-.45-1-1s.45-1,1-1h4.13c.55,0,1,.45,1,1s-.45,1-1,1Z"/><path d="M21.98,8.57v-.04c-.08-.9-.9-1.55-1.8-1.55h-.17V3.94c-.01-1.07-.88-1.94-1.95-1.94H5.94c-1.07,0-1.94,.87-1.94,1.94v2.99h-.23c-.91,0-1.67,.71-1.75,1.62v.02c0,.06-.02,.12-.02,.18v10.5c.02,1.53,1.27,2.76,2.8,2.75h14.4c1.53,.01,2.78-1.22,2.8-2.75V8.75c0-.06-.01-.12-.02-.18ZM6,4.02s0-.02,.02-.02h11.96s.02,0,.02,.02v5.55s0,.01,0,.02l-5.98,4.07s-.02,0-.02,0l-5.98-4.07s0-.01,0-.02V4.02Zm14,10.99v4.24c-.02,.43-.37,.76-.8,.75H4.8c-.43,0-.78-.32-.8-.75V10.64h0l2,1.36,2.94,2,2.49,1.69c.35,.24,.8,.24,1.15,0l2.49-1.69,2.94-2,1.97-1.34s.03,0,.03,.02v4.33Z"/></svg>