<svg width="40" height="40" viewBox="0 0 40 40" xmlns="http://www.w3.org/2000/svg">
<path d="M20.625 27.5C22.2347 27.4983 23.7779 26.8582 24.9162 25.7199C26.0544 24.5817 26.6946 23.0384 26.6962 21.4287V8.57125C26.6962 6.96105 26.0566 5.41681 24.918 4.27823C23.7794 3.13965 22.2352 2.5 20.625 2.5C19.0148 2.5 17.4705 3.13965 16.3319 4.27823C15.1934 5.41681 14.5537 6.96105 14.5537 8.57125V21.4287C14.5554 23.0384 15.1955 24.5817 16.3338 25.7199C17.472 26.8582 19.0153 27.4983 20.625 27.5ZM17.0537 8.57125C17.0537 7.6241 17.43 6.71573 18.0997 6.04599C18.7694 5.37626 19.6778 5 20.625 5C21.5721 5 22.4805 5.37626 23.1502 6.04599C23.82 6.71573 24.1962 7.6241 24.1962 8.57125V8.75H21.25C20.9184 8.75 20.6005 8.8817 20.3661 9.11612C20.1317 9.35054 20 9.66848 20 10C20 10.3315 20.1317 10.6495 20.3661 10.8839C20.6005 11.1183 20.9184 11.25 21.25 11.25H24.1962V13.75H21.25C20.9184 13.75 20.6005 13.8817 20.3661 14.1161C20.1317 14.3505 20 14.6685 20 15C20 15.3315 20.1317 15.6495 20.3661 15.8839C20.6005 16.1183 20.9184 16.25 21.25 16.25H24.1962V18.75H21.25C20.9184 18.75 20.6005 18.8817 20.3661 19.1161C20.1317 19.3505 20 19.6685 20 20C20 20.3315 20.1317 20.6495 20.3661 20.8839C20.6005 21.1183 20.9184 21.25 21.25 21.25H24.1962V21.4287C24.1962 22.3759 23.82 23.2843 23.1502 23.954C22.4805 24.6237 21.5721 25 20.625 25C19.6778 25 18.7694 24.6237 18.0997 23.954C17.43 23.2843 17.0537 22.3759 17.0537 21.4287V8.57125Z"/>
<path d="M30 15.7961C29.6685 15.7961 29.3505 15.9278 29.1161 16.1623C28.8817 16.3967 28.75 16.7146 28.75 17.0461V19.9999C28.75 25.0124 25.105 29.0899 20.625 29.0899C16.145 29.0899 12.5 25.0124 12.5 19.9999V17.0461C12.5 16.7146 12.3683 16.3967 12.1339 16.1623C11.8995 15.9278 11.5815 15.7961 11.25 15.7961C10.9185 15.7961 10.6005 15.9278 10.3661 16.1623C10.1317 16.3967 10 16.7146 10 17.0461V19.9999C10 25.9861 14.1812 30.9261 19.525 31.5274V34.9999H14.8662C14.5347 34.9999 14.2168 35.1316 13.9824 35.366C13.7479 35.6004 13.6162 35.9184 13.6162 36.2499C13.6162 36.5814 13.7479 36.8994 13.9824 37.1338C14.2168 37.3682 14.5347 37.4999 14.8662 37.4999H26.685C27.0165 37.4999 27.3345 37.3682 27.5689 37.1338C27.8033 36.8994 27.935 36.5814 27.935 36.2499C27.935 35.9184 27.8033 35.6004 27.5689 35.366C27.3345 35.1316 27.0165 34.9999 26.685 34.9999H22.025V31.4774C27.2225 30.7261 31.25 25.8749 31.25 19.9999V17.0461C31.25 16.7146 31.1183 16.3967 30.8839 16.1623C30.6495 15.9278 30.3315 15.7961 30 15.7961Z"/>
</svg>