<?xml version="1.0" encoding="UTF-8"?>
<svg xmlns="http://www.w3.org/2000/svg" viewBox="0 0 32 32"><path d="M27.968 9.976l-.859.778L27.025 4a2 2 0 0 0-2-1.975H7a2 2 0 0 0-2 2v6.934l-.945-.966h-.006l-.017-.017A2.032 2.032 0 0 0 2 12.008v15.936a2.032 2.032 0 0 0 2.032 2.032h23.936A2.032 2.032 0 0 0 30 27.944V12.008a2.032 2.032 0 0 0-2.032-2.032zm-2.943-5.952l.081 8.577-3.127 2.968-5.942 5.615a.235.235 0 0 1-.274 0l-5.941-5.615L7 12.9V4.024zm2.943 23.952L4 27.944l.03-15.1 4.418 4.175 5.941 5.615a2.23 2.23 0 0 0 3.022 0l5.942-5.615L28 12.632z"/><rect x="9" y="6" width="14" height="2" rx="1"/><rect x="9" y="10" width="14" height="2" rx="1"/></svg>