<svg width="40" height="40" viewBox="0 0 40 40" xmlns="http://www.w3.org/2000/svg">
<path d="M17.0537 8.57125C17.0509 7.64856 17.4061 6.76075 18.0447 6.09473C18.6833 5.42871 19.5554 5.03643 20.4774 5.00047C21.3993 4.96451 22.2993 5.28768 22.9878 5.90194C23.6764 6.5162 24.0997 7.37364 24.1687 8.29375H24.1962V11.2275L26.6962 8.74125V8.57125C26.6962 6.96105 26.0566 5.41681 24.918 4.27823C23.7794 3.13965 22.2352 2.5 20.625 2.5C19.0148 2.5 17.4705 3.13965 16.3319 4.27823C15.1934 5.41681 14.5537 6.96105 14.5537 8.57125V20.8212L17.0537 18.335V8.57125Z"/>
<path d="M26.6964 21.4287V17.5537L24.1964 20.04V21.49C24.18 22.4264 23.7965 23.3189 23.1286 23.9754C22.4607 24.6318 21.5617 24.9998 20.6251 25C20.2179 24.9959 19.8145 24.9214 19.4326 24.78L17.5576 26.64C18.4839 27.1978 19.5438 27.4949 20.6251 27.5C22.2348 27.4983 23.7781 26.8581 24.9163 25.7199C26.0545 24.5817 26.6947 23.0384 26.6964 21.4287Z"/>
<path d="M12.8275 22.5349C12.6108 21.7073 12.5007 20.8554 12.5 19.9999V17.0461C12.5 16.7146 12.3683 16.3967 12.1339 16.1623C11.8995 15.9278 11.5815 15.7961 11.25 15.7961C10.9185 15.7961 10.6005 15.9278 10.3661 16.1623C10.1317 16.3967 10 16.7146 10 17.0461V19.9999C9.99978 21.5414 10.2863 23.0695 10.845 24.5061L12.8275 22.5349Z"/>
<path d="M30 15.7961C29.6684 15.7961 29.3505 15.9278 29.1161 16.1623C28.8817 16.3967 28.75 16.7146 28.75 17.0461V19.9999C28.75 25.0124 25.105 29.0899 20.625 29.0899C19.1246 29.0829 17.6614 28.6223 16.4275 27.7686L14.6325 29.5524C16.0577 30.6357 17.7471 31.3177 19.525 31.5274V34.9999H14.8662C14.5347 34.9999 14.2167 35.1316 13.9823 35.366C13.7479 35.6004 13.6162 35.9184 13.6162 36.2499C13.6162 36.5814 13.7479 36.8994 13.9823 37.1338C14.2167 37.3682 14.5347 37.4999 14.8662 37.4999H26.685C27.0165 37.4999 27.3344 37.3682 27.5688 37.1338C27.8033 36.8994 27.935 36.5814 27.935 36.2499C27.935 35.9184 27.8033 35.6004 27.5688 35.366C27.3344 35.1316 27.0165 34.9999 26.685 34.9999H22.025V31.4774C27.2225 30.7261 31.25 25.8749 31.25 19.9999V17.0461C31.25 16.7146 31.1183 16.3967 30.8838 16.1623C30.6494 15.9278 30.3315 15.7961 30 15.7961Z"/>
<path d="M35.7762 4.12502C35.5418 3.89068 35.2239 3.75903 34.8925 3.75903C34.561 3.75903 34.2431 3.89068 34.0087 4.12502L26.6962 11.3975L24.1962 13.8838L17.0537 20.9875L14.84 23.1875L13.5525 24.4688L11.7112 26.2888L4.0087 33.9488C3.88903 34.0637 3.79346 34.2014 3.72755 34.3537C3.66165 34.506 3.62673 34.6699 3.62484 34.8359C3.62294 35.0018 3.65412 35.1665 3.71653 35.3203C3.77895 35.474 3.87136 35.6138 3.98838 35.7315C4.10539 35.8492 4.24467 35.9424 4.39809 36.0057C4.5515 36.069 4.71598 36.1011 4.88194 36.1001C5.04789 36.0992 5.21199 36.0652 5.36467 36.0001C5.51735 35.9351 5.65555 35.8403 5.7712 35.7213L13.2312 28.3025L15 26.5438L16.1062 25.4438L17.875 23.6825L24.1937 17.3975L26.6937 14.9113L35.7687 5.88627C36.0021 5.65311 36.1339 5.33711 36.1353 5.00719C36.1367 4.67726 36.0076 4.36015 35.7762 4.12502Z"/>
</svg>