<svg width="32" height="32" viewBox="0 0 32 32" fill="none" xmlns="http://www.w3.org/2000/svg">
<path fill-rule="evenodd" clip-rule="evenodd" d="M3 17C3 18.6569 4.34315 20 6 20C7.65685 20 9 18.6569 9 17C9 15.3431 7.65685 14 6 14C4.34315 14 3 15.3431 3 17ZM5 17C5 16.4477 5.44772 16 6 16C6.55228 16 7 16.4477 7 17C7 17.5523 6.55228 18 6 18C5.44772 18 5 17.5523 5 17Z" fill="black"/>
<path fill-rule="evenodd" clip-rule="evenodd" d="M13 17C13 18.6569 14.3431 20 16 20C17.6569 20 19 18.6569 19 17C19 15.3431 17.6569 14 16 14C14.3431 14 13 15.3431 13 17ZM15 17C15 16.4477 15.4477 16 16 16C16.5523 16 17 16.4477 17 17C17 17.5523 16.5523 18 16 18C15.4477 18 15 17.5523 15 17Z" fill="black"/>
<path fill-rule="evenodd" clip-rule="evenodd" d="M23 17C23 18.6569 24.3431 20 26 20C27.6569 20 29 18.6569 29 17C29 15.3431 27.6569 14 26 14C24.3431 14 23 15.3431 23 17ZM25 17C25 16.4477 25.4477 16 26 16C26.5523 16 27 16.4477 27 17C27 17.5523 26.5523 18 26 18C25.4477 18 25 17.5523 25 17Z" fill="black"/>
</svg>
