<svg width="24" height="24" viewBox="0 0 24 24" fill="none" xmlns="http://www.w3.org/2000/svg">
<path d="M7.02952 22.0729C7.16462 22.073 7.29842 22.0465 7.42326 21.9949C7.54811 21.9433 7.66156 21.8675 7.75713 21.7721L16.7571 12.7643C16.9498 12.5712 17.058 12.3095 17.058 12.0367C17.058 11.7639 16.9498 11.5023 16.7571 11.3092L7.75713 2.30136C7.56417 2.1084 7.30246 2 7.02957 2C6.75669 2 6.49498 2.1084 6.30202 2.30136C6.10907 2.49432 6.00066 2.75603 6.00066 3.02891C6.00066 3.3018 6.10907 3.5635 6.30202 3.75646L14.5754 12.0365L6.30202 20.3165C6.1579 20.4603 6.05971 20.6436 6.01987 20.8433C5.98004 21.0429 6.00037 21.2499 6.07828 21.438C6.15619 21.6261 6.28817 21.7868 6.45751 21.8999C6.62686 22.0129 6.82593 22.0731 7.02952 22.0729Z" fill="black"/>
</svg>
