<svg width="24" height="24" viewBox="0 0 24 24" fill="none" xmlns="http://www.w3.org/2000/svg">
<path fill-rule="evenodd" clip-rule="evenodd" d="M18 8.00008H19.2C20.7396 7.99565 21.9923 9.23844 22 10.7781V15.2221C21.9923 16.7617 20.7396 18.0045 19.2 18.0001H19V16.0001H19.2C19.6355 16.0056 19.9934 15.6576 20 15.2221V10.7781C19.9934 10.3425 19.6355 9.99452 19.2 10.0001H4.8C4.36445 9.99452 4.00658 10.3425 4 10.7781V15.2221C4.00658 15.6576 4.36445 16.0056 4.8 16.0001H5V18.0001H4.8C3.26035 18.0045 2.00771 16.7617 2 15.2221V10.7781C2.00771 9.23844 3.26035 7.99565 4.8 8.00008H6V3.00708C6 2.4548 6.44772 2.00708 7 2.00708H17C17.5523 2.00708 18 2.4548 18 3.00708V8.00008ZM16 4.00708H8V8.00008H16V4.00708Z" fill="black"/>
<path fill-rule="evenodd" clip-rule="evenodd" d="M7 13H17C17.5523 13 18 13.4477 18 14V21.007C18 21.5593 17.5523 22.007 17 22.007H7C6.44772 22.007 6 21.5593 6 21.007V14C6 13.4477 6.44772 13 7 13ZM8 20.007H16V15H8V20.007Z" fill="black"/>
</svg>
