<svg width="24" height="24" viewBox="0 0 24 24" fill="none" xmlns="http://www.w3.org/2000/svg">
<path d="M21.9001 2.38999C21.8201 2.23999 21.6901 2.11999 21.5301 2.06999C21.4001 2.02999 21.2601 2.01999 21.1201 2.06999L2.40009 8.29999C2.07009 8.40999 1.89009 8.76999 2.00009 9.10999C2.06009 9.29999 2.21009 9.43999 2.39009 9.50999L11.2101 12.64C11.2801 12.66 11.3301 12.72 11.3601 12.79L14.4901 21.61C14.5801 21.87 14.8301 22.03 15.0901 22.03C15.1601 22.03 15.2301 22.02 15.3001 21.99C15.4901 21.92 15.6301 21.78 15.6901 21.59L21.9401 2.87999C22.0001 2.71999 21.9801 2.54999 21.9101 2.38999H21.9001ZM17.3401 5.31999L11.8101 10.85L6.45009 8.94999L17.3401 5.31999ZM18.6801 6.65999L15.0501 17.55L13.1501 12.19L18.6801 6.65999Z" fill="black"/>
</svg>
