<svg width="32" height="32" viewBox="0 0 32 32" fill="none" xmlns="http://www.w3.org/2000/svg">
<path fill-rule="evenodd" clip-rule="evenodd" d="M26 11H28C29.1046 11 30 11.8954 30 13V24C30 25.1046 29.1046 26 28 26H27.5V24H28V13H4V24H4.5V26H4C2.89543 26 2 25.1046 2 24V13C2 11.8954 2.89543 11 4 11H6V4C6 2.89543 6.89543 2 8 2H24C25.1046 2 26 2.89543 26 4V11ZM8 11H24V4H8V11Z" fill="black"/>
<path fill-rule="evenodd" clip-rule="evenodd" d="M6 20C6 18.8954 6.89543 18 8 18H24C25.1046 18 26 18.8954 26 20V28C26 29.1046 25.1046 30 24 30H8C6.89543 30 6 29.1046 6 28V20ZM24 28V20H8V28H24Z" fill="black"/>
<path d="M21 23H11C10.7239 23 10.5 22.7761 10.5 22.5C10.5 22.2239 10.7239 22 11 22H21C21.2761 22 21.5 22.2239 21.5 22.5C21.5 22.7761 21.2761 23 21 23Z" fill="black"/>
<path d="M21 26H11C10.7239 26 10.5 25.7761 10.5 25.5C10.5 25.2239 10.7239 25 11 25H21C21.2761 25 21.5 25.2239 21.5 25.5C21.5 25.7761 21.2761 26 21 26Z" fill="black"/>
</svg>
