<?xml version="1.0" encoding="UTF-8"?>
<svg xmlns="http://www.w3.org/2000/svg" viewBox="0 0 32 32"><path d="M26.427,16.966h2.607a.935.935,0,0,0,.935-.935V8.211a.935.935,0,0,0-.935-.935H22.149V5.6a3.542,3.542,0,0,0-7.084,0V7.276H8.18a.935.935,0,0,0-.935.935V15.1H5.573a3.542,3.542,0,1,0,0,7.083H7.245v6.886A.935.935,0,0,0,8.18,30H16a.935.935,0,0,0,.935-.935V26.459a1.672,1.672,0,1,1,3.344,0v2.606a.935.935,0,0,0,.935.935h7.82a.935.935,0,0,0,.935-.935V21.244a.935.935,0,0,0-.935-.934H26.427a1.672,1.672,0,0,1,0-3.344Zm-3.542,1.672a3.545,3.545,0,0,0,3.542,3.541H28.1V28.13h-5.95V26.459a3.542,3.542,0,0,0-7.084,0V28.13H9.115V21.244a.936.936,0,0,0-.935-.934H5.573a1.672,1.672,0,1,1,0-3.344H8.18a.936.936,0,0,0,.935-.935V9.145H16a.935.935,0,0,0,.935-.934V5.6a1.672,1.672,0,1,1,3.344,0V8.211a.935.935,0,0,0,.935.934H28.1V15.1H26.427A3.546,3.546,0,0,0,22.885,18.638Z"/></svg>