<svg width="28" height="28" viewBox="0 0 28 28" fill="none" xmlns="http://www.w3.org/2000/svg">
<rect x="1" y="1" width="26" height="26" rx="3" stroke="currentColor" stroke-width="2"/>
<path d="M10.9129 19C10.9177 18.5409 10.926 17.9576 10.9379 17.2502C10.9498 16.5427 10.9724 15.6714 11.0057 14.636C11.039 13.6006 11.0676 12.8253 11.0914 12.3099L13.3112 17.9178H14.6674L16.9086 12.338C16.961 13.6217 17.0026 14.8737 17.0335 16.0942C17.0645 17.3146 17.0799 18.2832 17.0799 19H19C19 18.5502 18.9941 18.049 18.9822 17.4961C18.9703 16.9433 18.9536 16.3647 18.9322 15.7604C18.9108 15.156 18.8846 14.5411 18.8537 13.9157C18.8227 13.2902 18.7894 12.6824 18.7537 12.0921C18.7181 11.5018 18.6788 10.9419 18.636 10.4125C18.5931 9.88311 18.5479 9.41227 18.5004 9H16.4804L14.0393 15.2403L11.5839 9H9.49251C9.44492 9.41696 9.39971 9.88545 9.35689 10.4055C9.31406 10.9255 9.27361 11.4736 9.23555 12.0499C9.19748 12.6261 9.16417 13.2188 9.13562 13.8278C9.10707 14.4369 9.08327 15.0412 9.06424 15.6409C9.04521 16.2406 9.02974 16.8262 9.01784 17.3978C9.00595 17.9693 9 18.5034 9 19H10.9129Z" fill="currentColor"/>
</svg>
