<svg width="32" height="32" viewBox="0 0 32 32" fill="none" xmlns="http://www.w3.org/2000/svg">
<path fill-rule="evenodd" clip-rule="evenodd" d="M26.9859 20.7999L28.9499 26.6869C29.0703 27.0461 28.9774 27.4425 28.71 27.7108C28.4426 27.9791 28.0465 28.0732 27.6869 27.9539L22.3569 26.1769C17.335 29.3216 10.7688 28.3239 6.90767 23.8294C3.04657 19.3349 3.05003 12.6933 6.91582 8.20283C10.7816 3.71237 17.3489 2.72148 22.3675 5.87143C27.3861 9.02138 29.349 15.3663 26.9859 20.7999ZM9.58659 8.3332C7.31679 10.2332 6.00373 13.0399 5.99992 15.9999C6.00598 21.5203 10.4796 25.9939 15.9999 25.9999C18.1556 25.952 20.2466 25.255 21.9999 23.9999L26.4189 25.4189L24.9999 20.9999C25.7127 19.593 26.0568 18.0281 25.9999 16.4519C26.1498 11.4645 22.663 7.10341 17.7649 6.15193C14.8504 5.6347 11.8564 6.43324 9.58659 8.3332Z" fill="black"/>
</svg>
