<svg width="32" height="32" viewBox="0 0 32 32" fill="none" xmlns="http://www.w3.org/2000/svg">
<path fill-rule="evenodd" clip-rule="evenodd" d="M16 1.97803C8.25589 1.97803 1.97803 8.25589 1.97803 16C1.97803 23.7442 8.25589 30.022 16 30.022C23.7442 30.022 30.022 23.7442 30.022 16C30.022 8.25589 23.7442 1.97803 16 1.97803ZM3.97803 16C3.97313 11.3189 6.68877 7.06157 10.9356 5.09253C15.1825 3.12349 20.1864 3.80166 23.756 6.83003L6.83003 23.756C4.98833 21.5915 3.97731 18.842 3.97803 16ZM8.24403 25.17C10.4086 27.0117 13.158 28.0227 16 28.022C20.6811 28.0269 24.9385 25.3113 26.9075 21.0644C28.8766 16.8176 28.1984 11.8136 25.17 8.24403L8.24403 25.17Z" fill="black"/>
</svg>
