<?xml version="1.0" encoding="UTF-8"?>
<svg xmlns="http://www.w3.org/2000/svg" viewBox="0 0 24 24"><path d="M10.12,2c1.1,0,2,.89,2,2s-.89,2-2,2-2-.89-2-2h0c-.01-1.09,.87-1.98,1.96-2h.04Zm2.24,13.85v-1.28c0-.93,.53-1.73,1.34-2.12H5.74v-1.69h11.97v-.51c.07-1.52-1.04-2.81-2.48-2.88H5.02c-1.43,.07-2.54,1.36-2.48,2.88h0v5.6H12.36Zm.02,1.69H2.54v.51c-.07,1.52,1.04,2.81,2.47,2.88H13.74c-.72-.9-1.3-2.04-1.36-3.39Z"/><path d="M20.98,13.84l-3.01-1.17c-.17-.06-.35-.06-.52,0l-3,1.17c-.29,.11-.49,.41-.49,.73v2.74c0,2.8,3.28,4.54,3.42,4.61,.21,.11,.46,.11,.67,0,.14-.07,3.42-1.81,3.42-4.61v-2.74c0-.33-.19-.62-.49-.73Zm-1.18,2.21l-2.26,2.35c-.18,.18-.46,.18-.64,0l-.92-.96c-.17-.19-.17-.48,0-.66s.45-.18,.63,0l.6,.63,1.94-2.02c.18-.18,.46-.18,.64,0,.17,.18,.17,.47,0,.66h.01Z" fill="#356b00"/></svg>