<svg width="24" height="24" viewBox="0 0 24 24" fill="none" xmlns="http://www.w3.org/2000/svg">
<path fill-rule="evenodd" clip-rule="evenodd" d="M17.0981 21.378C17.2411 21.4537 17.4004 21.4932 17.5621 21.493L17.5631 21.498C17.858 21.4981 18.1378 21.3681 18.3279 21.1428C18.518 20.9174 18.5989 20.6196 18.5491 20.329L17.5751 14.653L21.6991 10.633C21.9719 10.3674 22.0701 9.9699 21.9525 9.60778C21.8349 9.24566 21.5219 8.98173 21.1451 8.92702L15.4451 8.10002L12.8921 2.93102C12.7048 2.61428 12.3641 2.41998 11.9961 2.41998C11.6281 2.41998 11.2875 2.61428 11.1001 2.93102L8.55412 8.09502L2.85412 8.92202C2.47734 8.97673 2.16432 9.24066 2.04672 9.60278C1.92913 9.9649 2.02737 10.3624 2.30012 10.628L6.42412 14.65L5.45012 20.326C5.38612 20.7009 5.54028 21.0796 5.84788 21.3032C6.15549 21.5268 6.5633 21.5566 6.90012 21.38L12.0001 18.7L17.0981 21.378ZM12.4651 16.683C12.3218 16.6074 12.1622 16.5679 12.0001 16.568C11.8385 16.5691 11.6796 16.6096 11.5371 16.686L7.76812 18.668L8.48712 14.468C8.54287 14.1438 8.43555 13.8128 8.20012 13.583L5.14912 10.611L9.36212 10C9.68826 9.9523 9.96994 9.74693 10.1151 9.45102L12.0001 5.63302L13.8851 9.45202C14.0306 9.74755 14.3122 9.95251 14.6381 10L18.8511 10.607L15.8021 13.58C15.5667 13.8098 15.4594 14.1408 15.5151 14.465L16.2341 18.665L12.4651 16.683Z" fill="currentColor"/>
</svg>
