<?xml version="1.0" encoding="UTF-8"?>
<svg xmlns="http://www.w3.org/2000/svg" viewBox="0 0 32 32"><path d="M12.5 23.864a3 3 0 1 0 3 3 3 3 0 0 0-3-3zm0 4a1 1 0 1 1 1-1 1 1 0 0 1-1 1z"/><path d="M22.5 23.864a3 3 0 1 0 3 3 3 3 0 0 0-3-3zm0 4a1 1 0 1 1 1-1 1 1 0 0 1-1 1z"/><path d="M29.77 8.407a1 1 0 0 0-.77-.362H8.729L7.708 2.939a1 1 0 0 0-.981-.8H3a1 1 0 0 0 0 2h2.908L6.92 9.194c0 .033.012.064.019.095l1.975 9.865a3.356 3.356 0 0 0 3.28 2.71h12.6a3.366 3.366 0 0 0 3.3-2.716l1.89-9.915a1 1 0 0 0-.214-.826zm-3.641 10.358a1.41 1.41 0 0 1-1.384 1.1H12.239a1.344 1.344 0 0 1-1.364-1.1l-1.745-8.72h18.661z"/></svg>