<svg width="32" height="32" viewBox="0 0 32 32" fill="none" xmlns="http://www.w3.org/2000/svg">
<path fill-rule="evenodd" clip-rule="evenodd" d="M23.5511 29.875C23.6987 29.9573 23.865 30.0003 24.0341 30C24.3284 30.0012 24.6082 29.8728 24.7992 29.6489C24.9901 29.425 25.0728 29.1284 25.0251 28.838L23.5721 19.929L29.7201 13.629C29.9819 13.3607 30.0717 12.9685 29.9526 12.613C29.8336 12.2575 29.5257 11.9985 29.1551 11.942L20.7001 10.65L16.9101 2.57499C16.7452 2.22428 16.3926 2.0004 16.0051 2.0004C15.6176 2.0004 15.2649 2.22428 15.1001 2.57499L11.3001 10.65L2.84909 11.943C2.47848 11.9995 2.1706 12.2585 2.05155 12.614C1.93249 12.9695 2.02226 13.3617 2.28409 13.63L8.43209 19.93L6.97909 28.839C6.91773 29.2167 7.0773 29.5963 7.39008 29.8167C7.70286 30.0372 8.11402 30.0598 8.44909 29.875L16.0001 25.7L23.5511 29.875ZM16.4831 23.684C16.3352 23.6022 16.1691 23.5592 16.0001 23.559C15.8321 23.5597 15.6671 23.6027 15.5201 23.684L9.28709 27.129L10.4871 19.754C10.5381 19.4409 10.4376 19.1221 10.2161 18.895L5.07509 13.625L12.1341 12.547C12.4637 12.4965 12.7465 12.285 12.8881 11.983L16.0001 5.35399L19.1151 11.983C19.2567 12.285 19.5394 12.4965 19.8691 12.547L26.9281 13.625L21.7871 18.895C21.5656 19.1221 21.4651 19.4409 21.5161 19.754L22.7161 27.129L16.4831 23.684Z" fill="currentColor"/>
</svg>
