
<svg width="24" height="25" viewBox="0 0 24 25" fill="none" xmlns="http://www.w3.org/2000/svg">
<path d="M11.9995 22.3257C11.7415 22.3254 11.4871 22.2652 11.2563 22.1499C10.9477 21.9956 3.67773 18.2983 3.67773 12.3384V6.51035C3.67867 6.1721 3.78235 5.84212 3.97504 5.56412C4.16773 5.28612 4.44033 5.07323 4.75673 4.95365L11.4154 2.45655C11.7891 2.31891 12.1993 2.31789 12.5736 2.45365L19.2426 4.95465C19.5594 5.07424 19.8322 5.28741 20.0249 5.56582C20.2175 5.84422 20.3209 6.17468 20.3212 6.51325V12.3384C20.3212 18.2984 13.0512 21.9956 12.7421 22.1499C12.5115 22.2652 12.2573 22.3254 11.9995 22.3257ZM5.67763 6.74465V12.3384C5.67763 16.6655 11.0258 19.7554 11.9994 20.2808C12.9745 19.7544 18.3212 16.6655 18.3212 12.3384V6.74525L11.9979 4.37455L5.67763 6.74465Z" fill="#565656"/>
<path d="M10.9145 14.9731C10.7832 14.9733 10.6531 14.9475 10.5318 14.8973C10.4104 14.847 10.3002 14.7732 10.2075 14.6802L8.16601 12.6392C8.07083 12.5469 7.99497 12.4366 7.94284 12.3147C7.8907 12.1927 7.86334 12.0617 7.86233 11.9291C7.86133 11.7965 7.88671 11.665 7.93699 11.5423C7.98727 11.4196 8.06146 11.3081 8.15522 11.2144C8.24899 11.1206 8.36047 11.0464 8.48317 10.9962C8.60587 10.9459 8.73735 10.9205 8.86995 10.9215C9.00254 10.9225 9.13362 10.9499 9.25553 11.0021C9.37745 11.0542 9.48778 11.1301 9.58011 11.2252L10.9145 12.5592L15.2187 8.25455C15.3111 8.15976 15.4214 8.08426 15.5433 8.03244C15.6651 7.98061 15.796 7.9535 15.9284 7.95266C16.0608 7.95182 16.192 7.97727 16.3145 8.02755C16.4369 8.07782 16.5482 8.15192 16.6418 8.24553C16.7354 8.33914 16.8095 8.45041 16.8598 8.57288C16.9101 8.69535 16.9355 8.82659 16.9347 8.95897C16.9339 9.09136 16.9067 9.22226 16.8549 9.34408C16.8031 9.46591 16.7276 9.57623 16.6328 9.66865L11.6216 14.6802C11.5288 14.7732 11.4186 14.847 11.2973 14.8973C11.1759 14.9475 11.0459 14.9733 10.9145 14.9731Z" fill="#565656"/>
</svg>