<svg width="32" height="32" viewBox="0 0 32 32" fill="none" xmlns="http://www.w3.org/2000/svg">
<path fill-rule="evenodd" clip-rule="evenodd" d="M11 16C11 18.7614 13.2386 21 16 21C18.7601 20.9967 20.9967 18.7601 21 16C21 13.2386 18.7614 11 16 11C13.2386 11 11 13.2386 11 16ZM13 16C13 14.3431 14.3431 13 16 13C17.6569 13 19 14.3431 19 16C19 17.6569 17.6569 19 16 19C14.3431 19 13 17.6569 13 16Z" fill="black"/>
<path fill-rule="evenodd" clip-rule="evenodd" d="M30 14V18C30.0002 18.4968 29.6356 18.9185 29.144 18.99L25.344 19.533C25.2041 19.9053 25.0421 20.2689 24.859 20.622L27.24 23.2C27.6044 23.5946 27.592 24.2065 27.212 24.586L24.586 27.213C24.2062 27.5927 23.5943 27.6046 23.2 27.24L20.622 24.856C20.2689 25.0391 19.9053 25.2011 19.533 25.341L18.99 29.141C18.9198 29.6338 18.4978 30 18 30H14C13.5036 29.9997 13.0825 29.6353 13.011 29.144L12.468 25.344C12.0957 25.2041 11.7321 25.0421 11.379 24.859L8.8 27.24C8.40557 27.6053 7.79292 27.5934 7.413 27.213L4.787 24.586C4.40728 24.2062 4.39536 23.5943 4.76 23.2L7.144 20.622C6.96086 20.2689 6.79891 19.9053 6.659 19.533L2.859 18.99C2.36617 18.9198 2 18.4978 2 18V14C1.99979 13.5032 2.36436 13.0815 2.856 13.01L6.656 12.467C6.79591 12.0947 6.95786 11.7311 7.141 11.378L4.76 8.8C4.39536 8.40571 4.40728 7.79379 4.787 7.414L7.414 4.788C7.79352 4.40799 8.40544 4.39563 8.8 4.76L11.378 7.144C11.7311 6.96086 12.0947 6.79891 12.467 6.659L13.01 2.859C13.0802 2.36616 13.5022 2 14 2H18C18.4885 2.00014 18.9054 2.3532 18.986 2.835L19.631 6.7L20.175 6.925L23.296 4.683C23.6937 4.39749 24.2397 4.44193 24.586 4.788L27.213 7.414C27.5927 7.79379 27.6046 8.40571 27.24 8.8L24.856 11.378C25.0391 11.7311 25.2011 12.0947 25.341 12.467L29.141 13.01C29.6338 13.0802 30 13.5022 30 14ZM22.761 20.258C23.1341 19.6693 23.4282 19.0342 23.636 18.369C23.7385 17.9792 24.0604 17.6859 24.458 17.62L25.885 17.42L28 17.12V14.854L25.885 14.554L24.458 14.354C24.0654 14.2911 23.7449 14.0064 23.636 13.624C23.4282 12.9588 23.1341 12.3237 22.761 11.735C22.5335 11.3576 22.5859 10.8748 22.889 10.555L23.725 9.655L25.119 8.145L23.773 6.8L22.042 8.05L20.856 8.902C20.5326 9.12609 20.1096 9.14551 19.767 8.952C19.351 8.7296 18.9159 8.54487 18.467 8.4C18.0974 8.28902 17.8214 7.97982 17.753 7.6L17.507 6.126L17.153 4H14.867L14.561 6.115L14.361 7.542C14.2981 7.93458 14.0134 8.25514 13.631 8.364C12.9658 8.57176 12.3307 8.86594 11.742 9.239C11.365 9.46665 10.8824 9.41426 10.563 9.111L9.658 8.275L8.148 6.882L6.881 8.148L8.275 9.668L9.111 10.568C9.41409 10.8878 9.46646 11.3706 9.239 11.748C8.86594 12.3367 8.57176 12.9718 8.364 13.637C8.25514 14.0194 7.93458 14.3041 7.542 14.367L6.115 14.567L4 14.867V17.133L6.115 17.443L7.542 17.643C7.93458 17.7059 8.25514 17.9906 8.364 18.373C8.57176 19.0382 8.86594 19.6733 9.239 20.262C9.46646 20.6394 9.41409 21.1222 9.111 21.442L8.275 22.342L6.881 23.852L8.154 25.119L9.664 23.725L10.569 22.89C10.8883 22.5859 11.3716 22.5331 11.749 22.761C12.3372 23.1342 12.972 23.4284 13.637 23.636C14.0194 23.7449 14.3041 24.0654 14.367 24.458L14.567 25.885L14.867 28H17.133L17.444 25.881L17.644 24.454C17.7069 24.0614 17.9916 23.7409 18.374 23.632C19.039 23.4244 19.6738 23.1302 20.262 22.757C20.6394 22.5291 21.1227 22.5819 21.442 22.886L22.342 23.721L23.852 25.115L25.119 23.848L23.725 22.338L22.889 21.438C22.5859 21.1182 22.5335 20.6354 22.761 20.258Z" fill="black"/>
</svg>
