<svg width="15" height="21" viewBox="0 0 15 21" xmlns="http://www.w3.org/2000/svg">
<path fill-rule="evenodd" clip-rule="evenodd" d="M4.98713 3.51471C4.98713 3.16124 5.05375 2.82962 5.18739 2.51998C5.32076 2.21061 5.49948 1.93882 5.72353 1.70435C5.94744 1.47029 6.21234 1.28657 6.51821 1.154C6.82382 1.02143 7.14899 0.955078 7.49359 0.955078C7.83793 0.955078 8.16098 1.02143 8.46249 1.154C8.764 1.28657 9.0289 1.47029 9.25718 1.70435C9.48532 1.93882 9.66417 2.21061 9.79331 2.51998C9.92245 2.82962 9.98709 3.16124 9.98709 3.51471C9.98709 3.86845 9.92245 4.20008 9.79331 4.50945C9.66417 4.81909 9.48532 5.09088 9.25718 5.32507C9.0289 5.55941 8.764 5.74286 8.46249 5.87543C8.16098 6.00813 7.83793 6.07448 7.49359 6.07448C7.14899 6.07448 6.82382 6.00813 6.51821 5.87543C6.21234 5.74286 5.94744 5.55941 5.72353 5.32507C5.49948 5.09088 5.32076 4.81909 5.18739 4.50945C5.05375 4.20008 4.98713 3.86845 4.98713 3.51471ZM0 18.3954V17.3742H11.4859V15.8357H0V10.1859C0 9.83239 0.0646375 9.50076 0.19378 9.19112C0.322923 8.88175 0.501635 8.60983 0.729915 8.3755C0.958063 8.1413 1.22296 7.95771 1.5246 7.82514C1.82598 7.69244 2.1489 7.62609 2.4935 7.62609H12.5065C12.851 7.62609 13.1761 7.69244 13.482 7.82514C13.7876 7.95771 14.0525 8.1413 14.2766 8.3755C14.5005 8.60983 14.6771 8.88175 14.8064 9.19112C14.9355 9.50076 15 9.83239 15 10.1859V11.2071H3.48844V12.7455H15V18.3954C15 18.7492 14.9355 19.0807 14.8064 19.3902C14.6771 19.6997 14.5005 19.9716 14.2766 20.2058C14.0525 20.4401 13.7876 20.6236 13.482 20.7562C13.1761 20.8887 12.851 20.9551 12.5065 20.9551H2.4935C2.1489 20.9551 1.82598 20.8887 1.5246 20.7562C1.22296 20.6236 0.958063 20.4401 0.729915 20.2058C0.501635 19.9716 0.322923 19.6997 0.19378 19.3902C0.0646375 19.0807 0 18.7492 0 18.3954Z"/>
</svg>