<svg width="32" height="32" viewBox="0 0 32 32" fill="none" xmlns="http://www.w3.org/2000/svg">
<circle cx="9" cy="9" r="1" fill="currentColor"/>
<path fill-rule="evenodd" clip-rule="evenodd" d="M17.269 2.293L28.918 13.942C30.3578 15.3931 30.3578 17.7339 28.918 19.185L19.194 28.908C17.7433 30.3545 15.3957 30.3545 13.945 28.908L13.919 28.881L2.293 17.268C2.10545 17.0805 2.00006 16.8262 2 16.561V3C2 2.44772 2.44772 2 3 2H16.562C16.8272 2.00006 17.0815 2.10545 17.269 2.293ZM17.779 27.493L27.5 17.767C28.161 17.0985 28.161 16.0225 27.5 15.354L16.147 4H4V16.146L15.358 27.491L15.379 27.514C16.0517 28.1607 17.1178 28.1513 17.779 27.493Z" fill="currentColor"/>
</svg>
