<svg width="24" height="24" viewBox="0 0 24 24" xmlns="http://www.w3.org/2000/svg">
<path d="M21.9471 20.263L20.4471 15.753C20.9966 14.4573 21.2546 13.0566 21.2029 11.6501C21.1512 10.2437 20.791 8.86571 20.1479 7.61381C19.5047 6.36192 18.5943 5.26666 17.4811 4.40554C16.3678 3.54442 15.0789 2.93847 13.7055 2.63059C12.3322 2.3227 10.908 2.32039 9.53361 2.62383C8.15927 2.92726 6.8684 3.52902 5.75236 4.38653C4.63631 5.24404 3.72235 6.33634 3.07514 7.58614C2.42794 8.83595 2.06331 10.2127 2.00705 11.619C1.93598 13.3559 2.33782 15.0794 3.1697 16.6057C4.00157 18.132 5.23226 19.4038 6.73042 20.2854C8.22858 21.167 9.93798 21.6252 11.6762 21.6112C13.4144 21.5972 15.1163 21.1116 16.6001 20.206L20.6511 21.556C20.8312 21.6162 21.0246 21.6251 21.2096 21.5816C21.3945 21.5381 21.5637 21.4439 21.6981 21.3097C21.8326 21.1755 21.927 21.0065 21.9708 20.8216C22.0145 20.6367 22.006 20.4433 21.9461 20.263H21.9471Z"/>
</svg>