<svg width="24" height="24" viewBox="0 0 24 24" fill="none" xmlns="http://www.w3.org/2000/svg">
<path d="M2.713 8.07103C2.96832 8.07077 3.21311 7.96922 3.39365 7.78868C3.57419 7.60814 3.67574 7.36335 3.676 7.10803V3.79403H6.989C7.11801 3.79819 7.24653 3.77637 7.36694 3.72987C7.48735 3.68337 7.59718 3.61314 7.68991 3.52336C7.78264 3.43357 7.85637 3.32606 7.90673 3.20721C7.95708 3.08836 7.98303 2.96061 7.98303 2.83153C7.98303 2.70246 7.95708 2.5747 7.90673 2.45585C7.85637 2.337 7.78264 2.22949 7.68991 2.1397C7.59718 2.04992 7.48735 1.97969 7.36694 1.93319C7.24653 1.88669 7.11801 1.86487 6.989 1.86903H3.426C2.98183 1.86956 2.55599 2.04617 2.24183 2.36015C1.92766 2.67413 1.75079 3.09986 1.75 3.54403V7.10803C1.75026 7.36335 1.85181 7.60814 2.03235 7.78868C2.21289 7.96922 2.45768 8.07077 2.713 8.07103Z" fill="black"/>
<path d="M20.5321 1.86903H16.9682C16.8391 1.86487 16.7106 1.88669 16.5902 1.93319C16.4698 1.97969 16.36 2.04992 16.2672 2.1397C16.1745 2.22949 16.1008 2.337 16.0504 2.45585C16.0001 2.5747 15.9741 2.70246 15.9741 2.83153C15.9741 2.96061 16.0001 3.08836 16.0504 3.20721C16.1008 3.32606 16.1745 3.43357 16.2672 3.52336C16.36 3.61314 16.4698 3.68337 16.5902 3.72987C16.7106 3.77637 16.8391 3.79819 16.9682 3.79403H20.2821V7.10803C20.2821 7.36343 20.3836 7.60838 20.5642 7.78897C20.7448 7.96957 20.9897 8.07103 21.2452 8.07103C21.5006 8.07103 21.7455 7.96957 21.9261 7.78897C22.1067 7.60838 22.2081 7.36343 22.2081 7.10803V3.54403C22.2074 3.09986 22.0305 2.67413 21.7163 2.36015C21.4022 2.04617 20.9763 1.86956 20.5321 1.86903Z" fill="black"/>
<path d="M21.2449 16.125C20.9897 16.1253 20.7451 16.2267 20.5646 16.407C20.3841 16.5873 20.2824 16.8319 20.2819 17.087V20.4H16.9679C16.7125 20.4 16.4675 20.5015 16.2869 20.6821C16.1063 20.8627 16.0049 21.1076 16.0049 21.363C16.0049 21.6184 16.1063 21.8633 16.2869 22.0439C16.4675 22.2245 16.7125 22.326 16.9679 22.326H20.5319C20.9762 22.3255 21.4022 22.1487 21.7164 21.8345C22.0306 21.5203 22.2074 21.0943 22.2079 20.65V17.087C22.2071 16.8319 22.1053 16.5876 21.9249 16.4073C21.7444 16.227 21.5 16.1255 21.2449 16.125Z" fill="black"/>
<path d="M6.989 20.4H3.676V17.087C3.676 16.8316 3.57454 16.5867 3.39394 16.4061C3.21335 16.2255 2.9684 16.124 2.713 16.124C2.4576 16.124 2.21265 16.2255 2.03206 16.4061C1.85146 16.5867 1.75 16.8316 1.75 17.087V20.651C1.75053 21.0954 1.92728 21.5214 2.24147 21.8355C2.55567 22.1497 2.98166 22.3265 3.426 22.327H6.989C7.2444 22.327 7.48935 22.2256 7.66994 22.045C7.85054 21.8644 7.952 21.6194 7.952 21.364C7.952 21.1086 7.85054 20.8637 7.66994 20.6831C7.48935 20.5025 7.2444 20.401 6.989 20.401V20.4Z" fill="black"/>
<path d="M21.2448 12.561H2.71278C2.58377 12.5569 2.45524 12.5787 2.33483 12.6252C2.21443 12.6717 2.10459 12.7419 2.01187 12.8317C1.91914 12.9215 1.84541 13.029 1.79505 13.1479C1.7447 13.2667 1.71875 13.3945 1.71875 13.5235C1.71875 13.6526 1.7447 13.7804 1.79505 13.8992C1.84541 14.0181 1.91914 14.1256 2.01187 14.2154C2.10459 14.3052 2.21443 14.3754 2.33483 14.4219C2.45524 14.4684 2.58377 14.4902 2.71278 14.486H21.2448C21.3738 14.4902 21.5023 14.4684 21.6227 14.4219C21.7431 14.3754 21.853 14.3052 21.9457 14.2154C22.0384 14.1256 22.1122 14.0181 22.1625 13.8992C22.2129 13.7804 22.2388 13.6526 22.2388 13.5235C22.2388 13.3945 22.2129 13.2667 22.1625 13.1479C22.1122 13.029 22.0384 12.9215 21.9457 12.8317C21.853 12.7419 21.7431 12.6717 21.6227 12.6252C21.5023 12.5787 21.3738 12.5569 21.2448 12.561Z" fill="black"/>
<path d="M6.73877 6.40002V12H8.66477V6.64602H11.7288V9.24602C11.7293 9.50099 11.8308 9.74538 12.0111 9.92567C12.1914 10.106 12.4358 10.2075 12.6908 10.208H15.2908V11.99H17.2168V9.24702C17.2171 9.1205 17.1924 8.99517 17.144 8.87828C17.0956 8.76139 17.0245 8.65525 16.9348 8.56602L13.3718 5.00002C13.1907 4.82007 12.946 4.71875 12.6908 4.71802H8.41477C8.19425 4.71828 7.97594 4.76201 7.77232 4.8467C7.56871 4.9314 7.38378 5.0554 7.22813 5.21161C7.07247 5.36783 6.94913 5.55319 6.86516 5.75711C6.7812 5.96102 6.73825 6.17949 6.73877 6.40002ZM13.5078 8.65802V7.86002L14.2998 8.65402L13.5078 8.65802Z" fill="black"/>
<path d="M17.2178 17.8001V15.0551H15.2918V17.5551H8.66477V15.0551H6.73877V17.8001C6.7393 18.2444 6.91605 18.6704 7.23024 18.9846C7.54444 19.2988 7.97043 19.4755 8.41477 19.4761H15.5418C15.9861 19.4755 16.4121 19.2988 16.7263 18.9846C17.0405 18.6704 17.2172 18.2444 17.2178 17.8001Z" fill="black"/>
<path d="M10.5529 10.422C10.4259 10.4224 10.3003 10.4478 10.1832 10.4968C10.0661 10.5457 9.95975 10.6173 9.87031 10.7074C9.78087 10.7975 9.71007 10.9043 9.66195 11.0218C9.61382 11.1393 9.58933 11.2651 9.58985 11.392C9.59446 11.5639 9.64598 11.7313 9.73885 11.876L9.81285 11.991H14.1449L14.2179 11.876C14.3107 11.7313 14.3622 11.5639 14.3669 11.392V11.385C14.3666 11.1297 14.265 10.8849 14.0845 10.7043C13.904 10.5238 13.6592 10.4223 13.4039 10.422H10.5529Z" fill="black"/>
<path d="M13.3998 16.6251C13.5268 16.6247 13.6524 16.5993 13.7695 16.5503C13.8866 16.5013 13.9929 16.4297 14.0824 16.3396C14.1718 16.2496 14.2426 16.1427 14.2907 16.0253C14.3389 15.9078 14.3634 15.782 14.3628 15.6551C14.3581 15.4829 14.3066 15.3152 14.2138 15.1701L14.1408 15.0551H9.81284L9.73884 15.1701C9.64509 15.3173 9.59356 15.4875 9.58984 15.6621C9.59037 15.9173 9.692 16.1619 9.87248 16.3424C10.053 16.5229 10.2976 16.6245 10.5528 16.6251H13.3998Z" fill="black"/>
</svg>
