<svg width="32" height="32" viewBox="0 0 32 32" fill="none" xmlns="http://www.w3.org/2000/svg">
<path d="M3 10C2.73478 10 2.48043 9.89464 2.29289 9.70711C2.10536 9.51957 2 9.26522 2 9V4C2 3.46957 2.21071 2.96086 2.58579 2.58579C2.96086 2.21071 3.46957 2 4 2H9C9.26522 2 9.51957 2.10536 9.70711 2.29289C9.89464 2.48043 10 2.73478 10 3C10 3.26522 9.89464 3.51957 9.70711 3.70711C9.51957 3.89464 9.26522 4 9 4H4V9C4 9.26522 3.89464 9.51957 3.70711 9.70711C3.51957 9.89464 3.26522 10 3 10Z" fill="black"/>
<path d="M29 10C28.7348 10 28.4804 9.89464 28.2929 9.70711C28.1054 9.51957 28 9.26522 28 9V4H23C22.7348 4 22.4804 3.89464 22.2929 3.70711C22.1054 3.51957 22 3.26522 22 3C22 2.73478 22.1054 2.48043 22.2929 2.29289C22.4804 2.10536 22.7348 2 23 2H28C28.5304 2 29.0391 2.21071 29.4142 2.58579C29.7893 2.96086 30 3.46957 30 4V9C30 9.26522 29.8946 9.51957 29.7071 9.70711C29.5196 9.89464 29.2652 10 29 10Z" fill="black"/>
<path d="M28 30H23C22.7348 30 22.4804 29.8946 22.2929 29.7071C22.1054 29.5196 22 29.2652 22 29C22 28.7348 22.1054 28.4804 22.2929 28.2929C22.4804 28.1054 22.7348 28 23 28H28V23C28 22.7348 28.1054 22.4804 28.2929 22.2929C28.4804 22.1054 28.7348 22 29 22C29.2652 22 29.5196 22.1054 29.7071 22.2929C29.8946 22.4804 30 22.7348 30 23V28C30 28.5304 29.7893 29.0391 29.4142 29.4142C29.0391 29.7893 28.5304 30 28 30Z" fill="black"/>
<path d="M9 30H4C3.46957 30 2.96086 29.7893 2.58579 29.4142C2.21071 29.0391 2 28.5304 2 28V23C2 22.7348 2.10536 22.4804 2.29289 22.2929C2.48043 22.1054 2.73478 22 3 22C3.26522 22 3.51957 22.1054 3.70711 22.2929C3.89464 22.4804 4 22.7348 4 23V28H9C9.26522 28 9.51957 28.1054 9.70711 28.2929C9.89464 28.4804 10 28.7348 10 29C10 29.2652 9.89464 29.5196 9.70711 29.7071C9.51957 29.8946 9.26522 30 9 30Z" fill="black"/>
<path d="M29 19H3C2.73478 19 2.48043 18.8946 2.29289 18.7071C2.10536 18.5196 2 18.2652 2 18C2 17.7348 2.10536 17.4804 2.29289 17.2929C2.48043 17.1054 2.73478 17 3 17H29C29.2652 17 29.5196 17.1054 29.7071 17.2929C29.8946 17.4804 30 17.7348 30 18C30 18.2652 29.8946 18.5196 29.7071 18.7071C29.5196 18.8946 29.2652 19 29 19Z" fill="black"/>
<path d="M11 8H16V12C16 12.2652 16.1054 12.5196 16.2929 12.7071C16.4804 12.8946 16.7348 13 17 13H21V15.5H23V12C22.9999 11.7348 22.8946 11.4805 22.707 11.293L17.707 6.293C17.5195 6.10545 17.2652 6.00006 17 6H11C10.4696 6 9.96086 6.21071 9.58579 6.58579C9.21071 6.96086 9 7.46957 9 8V15.5H11V8ZM18 9.414L19.586 11H18V9.414Z" fill="black"/>
<path d="M21 24H11V20.5H9V24C9 24.5304 9.21071 25.0391 9.58579 25.4142C9.96086 25.7893 10.4696 26 11 26H21C21.5304 26 22.0391 25.7893 22.4142 25.4142C22.7893 25.0391 23 24.5304 23 24V20.5H21V24Z" fill="black"/>
<path d="M19 15C19 14.7348 18.8946 14.4804 18.7071 14.2929C18.5196 14.1054 18.2652 14 18 14H14C13.7348 14 13.4804 14.1054 13.2929 14.2929C13.1054 14.4804 13 14.7348 13 15C13.0046 15.1775 13.0575 15.3503 13.153 15.5H18.847C18.9425 15.3503 18.9954 15.1775 19 15Z" fill="black"/>
<path d="M14 22H18C18.2652 22 18.5196 21.8946 18.7071 21.7071C18.8946 21.5196 19 21.2652 19 21C18.9954 20.8225 18.9425 20.6497 18.847 20.5H13.153C13.0575 20.6497 13.0046 20.8225 13 21C13 21.2652 13.1054 21.5196 13.2929 21.7071C13.4804 21.8946 13.7348 22 14 22Z" fill="black"/>
</svg>
