<svg width="32" height="32" viewBox="0 0 32 32" fill="none" xmlns="http://www.w3.org/2000/svg">
<path d="M8.61297 28H4.10497L4.81497 20.9C4.86633 20.389 5.29641 20 5.80997 20H9.42497C9.46497 19.838 9.51197 19.674 9.57197 19.5C9.77205 18.9451 10.08 18.4353 10.478 18H5.80997C4.54036 17.9986 3.40907 18.8012 2.99097 20C2.90731 20.2257 2.85156 20.4608 2.82497 20.7L2.11497 27.8C2.10897 27.867 2.11497 27.934 2.11497 28C2.11069 28.5302 2.31879 29.04 2.69285 29.4157C3.0669 29.7915 3.57579 30.0019 4.10597 30H9.24597C8.83509 29.4139 8.61381 28.7158 8.61197 28H8.61297Z" fill="black"/>
<path d="M13.488 12.706C11.817 13.3847 9.89845 12.8611 8.8038 11.4277C7.70915 9.99433 7.70915 8.00566 8.8038 6.57226C9.89845 5.13886 11.817 4.61531 13.488 5.29399C13.8278 4.69721 14.2473 4.14951 14.735 3.66599C12.5273 2.52463 9.84319 2.87295 7.99999 4.53999C7.61983 4.87996 7.28387 5.26631 6.99999 5.68999C6.90999 5.82599 6.83799 5.97399 6.75899 6.11699C5.747 7.90578 5.747 10.0942 6.75899 11.883C6.83799 12.026 6.90999 12.174 6.99999 12.31C7.28387 12.7337 7.61983 13.12 7.99999 13.46C9.84338 15.1275 12.5281 15.4758 14.736 14.334C14.248 13.8505 13.8281 13.3028 13.488 12.706Z" fill="black"/>
<path fill-rule="evenodd" clip-rule="evenodd" d="M26.19 18C27.7323 17.9958 29.0249 19.165 29.175 20.7L29.887 27.8C29.9434 28.3619 29.7597 28.9214 29.3812 29.3405C29.0027 29.7596 28.4647 29.9991 27.9 30H12.106C11.5758 30.0019 11.0669 29.7915 10.6928 29.4157C10.3188 29.04 10.1107 28.5302 10.115 28C10.115 27.9781 10.1143 27.956 10.1136 27.9339C10.1123 27.8895 10.111 27.8447 10.115 27.8L10.825 20.7C10.8516 20.4608 10.9073 20.2257 10.991 20C11.4091 18.8012 12.5404 17.9986 13.81 18H26.19ZM12.105 28H19.9H27.9L27.185 20.9C27.1336 20.389 26.7035 20 26.19 20H13.815C13.2995 19.9974 12.8665 20.3871 12.815 20.9L12.105 28Z" fill="black"/>
<path fill-rule="evenodd" clip-rule="evenodd" d="M16 4.53998C17.0966 3.54896 18.5219 3.00019 20 2.99998C22.6782 2.99395 25.0361 4.76365 25.7784 7.33694C26.5207 9.91023 25.4677 12.6639 23.1978 14.0853C20.9279 15.5066 17.9908 15.2515 16 13.46C15.6198 13.12 15.2839 12.7337 15 12.31C14.9355 12.2126 14.8803 12.109 14.8251 12.0055C14.8033 11.9645 14.7814 11.9236 14.759 11.883C13.747 10.0942 13.747 7.90578 14.759 6.11698C14.7814 6.07641 14.8033 6.03543 14.8251 5.99443C14.8803 5.89096 14.9355 5.78739 15 5.68998C15.2839 5.2663 15.6198 4.87995 16 4.53998ZM16 8.99998C16 11.2091 17.7908 13 20 13C21.0626 13.0059 22.0835 12.5863 22.8349 11.8349C23.5863 11.0835 24.0059 10.0626 24 8.99998C24 6.79085 22.2091 4.99998 20 4.99998C17.7908 4.99998 16 6.79085 16 8.99998Z" fill="black"/>
</svg>
