<?xml version="1.0" encoding="UTF-8"?>
<svg xmlns="http://www.w3.org/2000/svg" viewBox="0 0 24 24"><path d="M14,22a8,8,0,1,1,8-8A8.009,8.009,0,0,1,14,22ZM14,8a6,6,0,1,0,6,6A6.006,6.006,0,0,0,14,8Z"/><path d="M5.712,10.492a3.489,3.489,0,1,1,4.78-4.78,8.979,8.979,0,0,1,1.969-.571,5.5,5.5,0,1,0-7.32,7.32A8.979,8.979,0,0,1,5.712,10.492Z"/><path d="M11.253,14.812h-.984l.164-.655h.74c-.005-.079-.011-.159-.011-.239v-.25a5.4,5.4,0,0,1,.032-.569h-.925l.164-.655h.873a3.119,3.119,0,0,1,3.2-2.5,4.815,4.815,0,0,1,1.862.351l-.394,1.2a3.118,3.118,0,0,0-.367-.122,5.268,5.268,0,0,0-.947-.149,1.738,1.738,0,0,0-1.809,1.218h2.767l-.176.655H12.721a4.911,4.911,0,0,0-.042.553,3.719,3.719,0,0,0,.031.505h2.363l-.171.655H12.8a1.675,1.675,0,0,0,1.808,1.6,4.083,4.083,0,0,0,1.432-.229l.388,1.208a6.428,6.428,0,0,1-2.011.346A3.036,3.036,0,0,1,11.253,14.812Z"/><path d="M5.475,8.008l.392-.232A2.519,2.519,0,0,0,6,8.025l.063.106c.019.034.042.067.064.1l-.314.186.094.319.418-.247a2.366,2.366,0,0,0,.332.327c.143-.2.29-.4.449-.588A1.256,1.256,0,0,1,6.979,8.1L7.5,7.792c.11-.115.223-.226.339-.335L7.78,7.25l-1,.594a1.813,1.813,0,0,1-.14-.207,2.553,2.553,0,0,1-.121-.245l1.156-.684-.089-.322-1.175.7a.861.861,0,0,1,.461-.974,2.411,2.411,0,0,1,.441-.173A1.32,1.32,0,0,1,7.5,5.893l-.134-.6a2.362,2.362,0,0,0-.879.317A1.54,1.54,0,0,0,5.751,7.47l-.37.22Z"/></svg>