<svg width="24" height="24" viewBox="0 0 24 24" xmlns="http://www.w3.org/2000/svg">
<path d="M8.00009 8.99996C7.20444 8.99996 6.44138 8.68389 5.87877 8.12128C5.31616 7.55867 5.00009 6.79561 5.00009 5.99996C5.00009 5.20431 5.31616 4.44125 5.87877 3.87864C6.44138 3.31603 7.20444 2.99996 8.00009 2.99996C8.70543 3.003 9.38669 3.25679 9.92209 3.71596C10.1615 3.08131 10.4989 2.4881 10.9221 1.95796C10.2836 1.49668 9.54513 1.19296 8.76688 1.0716C7.98862 0.950238 7.1927 1.01468 6.44411 1.25967C5.69552 1.50466 5.01549 1.92325 4.45957 2.48124C3.90365 3.03923 3.48759 3.72081 3.24539 4.4703C3.00318 5.2198 2.94169 6.01596 3.06595 6.79375C3.1902 7.57155 3.49666 8.30893 3.96032 8.94566C4.42397 9.5824 5.03166 10.1004 5.73375 10.4575C6.43585 10.8145 7.21244 11.0004 8.00009 11C9.04994 10.9975 10.0719 10.6621 10.9191 10.042C10.4961 9.51168 10.1587 8.91852 9.91909 8.28396C9.38447 8.74247 8.70439 8.99622 8.00009 8.99996Z"/>
<path d="M8.52094 20.678L8.60894 20H4.13894L4.78794 15H9.25894L9.31694 14.549C9.39255 13.9902 9.60368 13.4585 9.93194 13H4.78794C4.30224 13.0001 3.83317 13.1769 3.46827 13.4974C3.10337 13.818 2.86759 14.2604 2.80494 14.742L2.00494 20.871C1.98656 21.0123 1.99858 21.1559 2.04022 21.2922C2.08186 21.4285 2.15214 21.5543 2.24636 21.6612C2.34057 21.7681 2.45655 21.8536 2.58652 21.9121C2.71649 21.9705 2.85744 22.0005 2.99994 22H8.72394C8.53702 21.5861 8.46682 21.1289 8.52094 20.678Z"/>
<path d="M16 11C15.0111 11 14.0444 10.7068 13.2222 10.1573C12.3999 9.60794 11.759 8.82705 11.3806 7.91342C11.0022 6.99979 10.9031 5.99446 11.0961 5.02455C11.289 4.05465 11.7652 3.16373 12.4645 2.46447C13.1637 1.76521 14.0546 1.289 15.0246 1.09608C15.9945 0.90315 16.9998 1.00217 17.9134 1.3806C18.8271 1.75904 19.6079 2.39991 20.1574 3.22215C20.7068 4.0444 21 5.0111 21 6C20.9984 7.3256 20.4711 8.59644 19.5338 9.53378C18.5964 10.4711 17.3256 10.9984 16 11ZM16 3C15.4067 3 14.8266 3.17595 14.3333 3.50559C13.8399 3.83524 13.4554 4.30377 13.2284 4.85195C13.0013 5.40013 12.9419 6.00333 13.0576 6.58527C13.1734 7.16722 13.4591 7.70176 13.8787 8.12132C14.2982 8.54088 14.8328 8.8266 15.4147 8.94236C15.9967 9.05811 16.5999 8.9987 17.1481 8.77164C17.6962 8.54458 18.1648 8.16006 18.4944 7.66671C18.8241 7.17337 19 6.59335 19 6C19 5.20435 18.6839 4.44129 18.1213 3.87868C17.5587 3.31607 16.7957 3 16 3Z"/>
<path d="M21.0001 22H11.0001C10.8579 21.9999 10.7174 21.9695 10.5879 21.9108C10.4585 21.8522 10.343 21.7665 10.2492 21.6597C10.1554 21.5529 10.0855 21.4272 10.0441 21.2912C10.0027 21.1552 9.99075 21.012 10.0091 20.871L10.8091 14.742C10.8717 14.2611 11.1069 13.8192 11.4709 13.4988C11.835 13.1783 12.3031 13.0011 12.7881 13H19.0351C19.5117 12.9983 19.9732 13.1675 20.3356 13.4771C20.698 13.7867 20.9373 14.216 21.0101 14.687L21.9871 20.843C22.0098 20.9858 22.0013 21.1318 21.9621 21.2709C21.9229 21.41 21.8541 21.539 21.7603 21.649C21.6665 21.759 21.5499 21.8473 21.4187 21.9079C21.2874 21.9685 21.1446 21.9999 21.0001 22ZM12.1391 20H19.8291L19.0351 15H12.7881L12.1391 20Z"/>
</svg>