<?xml version="1.0" encoding="UTF-8"?>
<svg xmlns="http://www.w3.org/2000/svg" viewBox="0 0 32 32"><path d="M25.518 11.605H11.425l.008-3.239a4.563 4.563 0 0 1 8.8-1.418 4.465 4.465 0 0 1 .328 1.252v.337h2.022a6.58 6.58 0 0 0-13.15-.229l-.01 3.3H6.482a1.539 1.539 0 0 0-1.539 1.539V28.4a1.539 1.539 0 0 0 1.539 1.539h19.036a1.539 1.539 0 0 0 1.539-1.539V13.144a1.539 1.539 0 0 0-1.539-1.539zm-.461 16.333H6.943V13.605h18.114z"/><path d="M14.983 21.445v2.162a1 1 0 0 0 1 1h.034a1 1 0 0 0 1-1v-2.162a2.144 2.144 0 1 0-2.034 0z"/></svg>