<?xml version="1.0" encoding="UTF-8"?>
<svg xmlns="http://www.w3.org/2000/svg" viewBox="0 0 32 32"><path d="M29 2.833A1.166 1.166 0 0 0 27.833 4v4.222a14.162 14.162 0 0 0-26 7.778 1.167 1.167 0 0 0 2.334 0A11.835 11.835 0 0 1 26.1 9.833H22a1.167 1.167 0 0 0 0 2.334h7A1.166 1.166 0 0 0 30.167 11V4A1.166 1.166 0 0 0 29 2.833z"/><path d="M29 14.833A1.166 1.166 0 0 0 27.833 16 11.836 11.836 0 0 1 5.9 22.167H10a1.167 1.167 0 0 0 0-2.334H3A1.166 1.166 0 0 0 1.833 21v7a1.167 1.167 0 0 0 2.334 0v-4.218a14.164 14.164 0 0 0 26-7.782A1.166 1.166 0 0 0 29 14.833z"/></svg>