<svg width="24" height="24" viewBox="0 0 24 24" fill="none" xmlns="http://www.w3.org/2000/svg">
<path d="M21.46 6.86989C21.332 6.80589 21.18 6.76789 21.02 6.76789C20.811 6.76789 20.617 6.83189 20.456 6.94189L20.459 6.93989L16.299 9.93989V7.76989C16.293 6.31589 15.114 5.13989 13.659 5.13989H4.65902C4.65002 5.13989 4.64002 5.13989 4.62902 5.13989C3.17602 5.13989 1.99902 6.31689 1.99902 7.76989V15.9399C1.99902 17.3949 3.17502 18.5739 4.62802 18.5799H13.629C15.087 18.5799 16.269 17.3979 16.269 15.9399V13.7999L20.429 16.7999C20.586 16.9189 20.783 16.9929 20.997 16.9999H20.999C21.167 16.9979 21.325 16.9579 21.465 16.8869L21.459 16.8899C21.782 16.7199 21.999 16.3859 21.999 16.0019C21.999 16.0009 21.999 16.0009 21.999 15.9999V7.75989C21.999 7.75889 21.999 7.75889 21.999 7.75789C21.999 7.37389 21.782 7.03989 21.464 6.87289L21.459 6.86989H21.46ZM14.26 15.9399C14.26 16.2929 13.973 16.5799 13.62 16.5799H4.62002C4.27502 16.5689 4.00002 16.2869 4.00002 15.9399V7.76989C4.00002 7.42189 4.28202 7.13989 4.63002 7.13989H13.63C13.98 7.13989 14.264 7.42089 14.27 7.76889V7.76989L14.26 15.9399ZM20 13.9999L17 11.8399L20 9.69989V13.9999Z" fill="black"/>
</svg>
