<svg width="24" height="24" viewBox="0 0 24 24" fill="none" xmlns="http://www.w3.org/2000/svg">
<g clip-path="url(#clip0_5371_280)">
<path d="M20 12.0001L21.72 10.2801C21.8838 10.0888 21.9694 9.84272 21.9597 9.59104C21.95 9.33937 21.8456 9.10063 21.6676 8.92253C21.4895 8.74444 21.2507 8.64011 20.999 8.63038C20.7474 8.62066 20.5013 8.70627 20.31 8.8701L18.6 10.5901L16.88 8.8701C16.6887 8.70627 16.4426 8.62066 16.1909 8.63038C15.9393 8.64011 15.7005 8.74444 15.5224 8.92253C15.3443 9.10063 15.24 9.33937 15.2303 9.59104C15.2206 9.84272 15.3062 10.0888 15.47 10.2801L17.19 12.0001L15.47 13.7201C15.2837 13.9075 15.1792 14.1609 15.1792 14.4251C15.1792 14.6893 15.2837 14.9427 15.47 15.1301C15.5634 15.2228 15.6742 15.2961 15.7961 15.3459C15.9179 15.3956 16.0484 15.4209 16.18 15.4201C16.4423 15.419 16.6937 15.3148 16.88 15.1301L18.6 13.4101L20.32 15.1301C20.5074 15.3163 20.7608 15.4209 21.025 15.4209C21.2892 15.4209 21.5426 15.3163 21.73 15.1301C21.9162 14.9427 22.0208 14.6893 22.0208 14.4251C22.0208 14.1609 21.9162 13.9075 21.73 13.7201L20 12.0001Z" fill="black"/>
<path d="M12.0902 19.5401C11.6848 19.5341 11.2961 19.3772 11.0002 19.1001L8.68018 17.0001H4.47018C4.1445 16.9988 3.82227 16.9333 3.52188 16.8075C3.2215 16.6816 2.94884 16.4979 2.71948 16.2666C2.49012 16.0354 2.30855 15.7613 2.18513 15.4599C2.06171 15.1585 1.99887 14.8358 2.00018 14.5101V9.51008C1.99622 9.18273 2.05711 8.85783 2.17934 8.55412C2.30157 8.25042 2.48272 7.97392 2.71235 7.74058C2.94197 7.50723 3.21552 7.32166 3.51723 7.19457C3.81893 7.06748 4.14281 7.00138 4.47018 7.00008H8.69018L11.0002 4.90008C11.2353 4.67912 11.53 4.53193 11.8479 4.47672C12.1658 4.42152 12.4929 4.46073 12.7887 4.58949C13.0845 4.71825 13.3361 4.93092 13.5123 5.20118C13.6886 5.47144 13.7817 5.78744 13.7802 6.11008V17.8901C13.7783 18.213 13.6828 18.5284 13.5054 18.7982C13.3279 19.068 13.076 19.2805 12.7802 19.4101C12.5614 19.4999 12.3266 19.5441 12.0902 19.5401ZM4.47018 9.00008C4.40674 9.00002 4.34394 9.01281 4.28558 9.03767C4.22721 9.06253 4.17448 9.09895 4.13057 9.14473C4.08665 9.19052 4.05246 9.24472 4.03005 9.30407C4.00764 9.36342 3.99748 9.4267 4.00018 9.49008V14.4901C3.99885 14.5526 4.01002 14.6148 4.03305 14.673C4.05607 14.7312 4.09048 14.7842 4.13426 14.8289C4.17803 14.8736 4.2303 14.9091 4.28798 14.9334C4.34566 14.9576 4.40761 14.9701 4.47018 14.9701H9.08018C9.33146 14.9682 9.57423 15.0611 9.76018 15.2301L11.7602 17.0801V6.90008L9.76018 8.74008C9.57423 8.90911 9.33146 9.00193 9.08018 9.00008H4.47018Z" fill="black"/>
</g>
<defs>
<clipPath id="clip0_5371_280">
<rect width="24" height="24" fill="white"/>
</clipPath>
</defs>
</svg>
