<svg width="40" height="40" viewBox="0 0 40 40" xmlns="http://www.w3.org/2000/svg">
<path d="M20.15 33.075C19.5395 33.0716 18.9536 32.8345 18.5125 32.4125L14.2375 28.45H6.4125C5.37484 28.45 4.37968 28.0378 3.64594 27.304C2.91221 26.5703 2.5 25.5751 2.5 24.5375V15.4625C2.5 14.4248 2.91221 13.4296 3.64594 12.6959C4.37968 11.9622 5.37484 11.55 6.4125 11.55H14.2375L18.5125 7.58747C18.8605 7.26739 19.2942 7.05544 19.7605 6.97747C20.2269 6.89949 20.7059 6.95884 21.1391 7.1483C21.5724 7.33776 21.9412 7.64914 22.2005 8.0445C22.4599 8.43985 22.5987 8.90212 22.6 9.37497V30.625C22.6056 31.1009 22.4695 31.5678 22.2091 31.9662C21.9487 32.3646 21.5757 32.6766 21.1375 32.8625C20.8262 32.9998 20.4902 33.0721 20.15 33.075ZM6.4 14.05C6.02857 14.0565 5.67436 14.2078 5.41285 14.4716C5.15134 14.7355 5.0032 15.091 5 15.4625V24.5375C5.00326 24.9111 5.15313 25.2685 5.41732 25.5326C5.68151 25.7968 6.03889 25.9467 6.4125 25.95H14.725C15.0408 25.9511 15.3445 26.0716 15.575 26.2875L20.2125 30.5875L20.1 9.51247L15.575 13.75C15.3445 13.9658 15.0408 14.0864 14.725 14.0875L6.4 14.05Z"/>
<path d="M26.9125 26.5501C26.6302 26.5485 26.3567 26.4513 26.1367 26.2744C25.9166 26.0976 25.7629 25.8514 25.7006 25.5761C25.6383 25.3007 25.671 25.0124 25.7935 24.758C25.9159 24.5036 26.1209 24.2982 26.375 24.1751C27.0412 23.7133 27.5743 23.0845 27.9209 22.3518C28.2675 21.619 28.4155 20.8081 28.35 20.0001C28.4077 19.2006 28.26 18.3995 27.9209 17.6731C27.5818 16.9468 27.0625 16.3192 26.4125 15.8501C26.2384 15.7981 26.0777 15.7088 25.9416 15.5884C25.8055 15.468 25.6973 15.3193 25.6246 15.1528C25.5518 14.9863 25.5163 14.8059 25.5203 14.6243C25.5244 14.4426 25.5681 14.264 25.6482 14.1009C25.7284 13.9379 25.8431 13.7942 25.9845 13.68C26.1258 13.5658 26.2903 13.4838 26.4666 13.4397C26.6429 13.3956 26.8267 13.3905 27.0051 13.4247C27.1836 13.4588 27.3525 13.5315 27.5 13.6376C28.5797 14.298 29.461 15.2378 30.0507 16.3578C30.6404 17.4777 30.9165 18.7362 30.85 20.0001C30.9351 21.2754 30.6675 22.5494 30.0766 23.6827C29.4857 24.816 28.5943 25.7648 27.5 26.4251C27.3172 26.5139 27.1156 26.5568 26.9125 26.5501Z"/>
<path d="M30.2999 32.3125C30.0725 32.3107 29.8499 32.2468 29.6561 32.1279C29.4622 32.009 29.3045 31.8394 29.1999 31.6375C29.0613 31.3492 29.0384 31.0187 29.1361 30.7141C29.2338 30.4095 29.4445 30.1539 29.7249 30C32.9249 28.275 34.9999 24.375 34.9999 20C34.9999 15.625 32.9624 11.825 29.8124 10.125C29.6677 10.0465 29.5399 9.94014 29.4363 9.8121C29.3328 9.68406 29.2556 9.53683 29.2091 9.37887C29.1627 9.2209 29.1479 9.05531 29.1656 8.89161C29.1833 8.72791 29.2332 8.56932 29.3124 8.42496C29.4709 8.13596 29.7372 7.92127 30.0532 7.82763C30.3693 7.73398 30.7095 7.76897 30.9999 7.92496C34.9999 9.99996 37.4999 14.8 37.4999 20C37.4999 25.2 34.8999 30 30.8874 32.15C30.708 32.2518 30.5062 32.3076 30.2999 32.3125Z"/>
</svg>