<?xml version="1.0" encoding="UTF-8"?>
<svg xmlns="http://www.w3.org/2000/svg" viewBox="0 0 32 32"><path d="M16 2a14 14 0 1 0 14 14A14.017 14.017 0 0 0 16 2zM4.566 16c0-.369.021-.733.055-1.093.972 1.531 3.127 2.554 4.268 3.093.11.051.227.106.324.153a6.435 6.435 0 0 0-.4 1.6 2.757 2.757 0 0 0 1.447 3.028c2.174 1.087 2.1 1.665 1.882 3.381-.026.2-.04.387-.054.571A11.443 11.443 0 0 1 4.566 16zm11.76 11.417a3.877 3.877 0 0 0 1.634-1.834c.11-.407.75-.925 1.369-1.427 1.05-.85 2.239-1.813 2.059-3.065-.085-.587-.965-1.148-1.339-1.362a5.261 5.261 0 0 0-2.371-.735c-.392-.009-.992-.577-1.572-1.127-1.2-1.136-2.843-2.692-4.9-1.651a2.954 2.954 0 0 1-1.81-.377 3.722 3.722 0 0 1-1.577-1.069 2.439 2.439 0 0 0-.507-2.018c-.262-.38-.345-.526-.2-.825.11-.23.316-.659.545-.736.033-.011.132-.044.339.063s.286.348.367.7c.078.333.207.893.8.87.743-.029.927-.862 1.089-1.6.04-.184.082-.373.13-.544.069-.245.224-.312.589-.417a1.162 1.162 0 0 0 .786-.5l.032-.06A3.655 3.655 0 0 1 13.2 8.119a1.331 1.331 0 0 0 .651-.665 1.029 1.029 0 0 0 .011-.6l-.008-.036a3.85 3.85 0 0 1 .541-.078c.525-.052 1.12-.112 1.392-.512a4.05 4.05 0 0 0 .649-1.638 11.363 11.363 0 0 1 4 .876 4.03 4.03 0 0 1 .727 1.265 2.35 2.35 0 0 0 .34 1.5 6.176 6.176 0 0 0-.959 3.091A6.59 6.59 0 0 0 21.5 14c.8 1.383 1.356 1.66 1.616 1.7a2.265 2.265 0 0 0 1.34-.48c.415-.242.984-.575 1.165-.406.687.643.519 2.718.359 3.9a34.7 34.7 0 0 1-.89 4.189 11.407 11.407 0 0 1-8.764 4.514z"/></svg>