<svg width="24" height="24" viewBox="0 0 24 24" fill="none" xmlns="http://www.w3.org/2000/svg">
  <path fill-rule="evenodd" clip-rule="evenodd" d="M 0,12.000021 C 0,5.372579 5.3725819,0 11.999996,0 18.627427,0 24,5.372579 24,12.000021 24,18.627352 18.627427,24 11.999996,24 5.3725819,24 0,18.627352 0,12.000021 Z m 1.7142863,0 c 0,5.680619 4.6050707,10.285696 10.2857097,10.285696 5.678145,-0.0062 10.279546,-4.607649 10.285718,-10.285696 0,-5.680669 -4.605088,-10.2857383 -10.285718,-10.2857383 -5.680639,0 -10.2857097,4.6050693 -10.2857097,10.2857383 z" fill="black"/>
  <path d="M 10.02108,15.645621 6.79307,12.348199 c -0.159146,-0.1626 -0.247132,-0.381771 -0.244552,-0.609257 0.0026,-0.227485 0.09549,-0.444599 0.258266,-0.603598 0.338409,-0.330257 0.880295,-0.324171 1.211152,0.01371 l 2.615144,2.670852 5.348573,-5.4634192 c 0.331115,-0.338142 0.873772,-0.34397 1.212001,-0.01286 0.3384,0.330943 0.344571,0.873513 0.01371,1.211998 l -5.961431,6.0857042 c -0.160628,0.165256 -0.381086,0.25877 -0.611571,0.259628 -0.2304,7.71e-4 -0.451458,-0.0912 -0.613286,-0.255343 z" fill="black"/>
</svg>