<svg viewBox="0 0 24 24" xmlns="http://www.w3.org/2000/svg">
  <circle fill="#444444" cx="12" cy="12" r="12"/>
  <path fill="#ffffff" d="M13.62 6.782c0 .45-.158.832-.473 1.147A1.562 1.562 0 0 1 12 8.401c-.45 0-.832-.157-1.147-.472a1.562 1.562 0 0 1-.472-1.147c0-.45.157-.832.472-1.147A1.562 1.562 0 0 1 12 5.163c.45 0 .832.157 1.147.472.315.315.472.697.472 1.147zm-3.24 10.391V12c0-.45.158-.832.473-1.147A1.562 1.562 0 0 1 12 10.381c.45 0 .832.157 1.147.472.315.315.472.697.472 1.147v5.173c0 .45-.157.84-.472 1.17-.315.33-.697.494-1.147.494-.45 0-.832-.165-1.147-.494a1.637 1.637 0 0 1-.472-1.17z"/>
</svg>
