<svg viewBox="0 0 24 24" xmlns="http://www.w3.org/2000/svg">
  <path fill="#565656" d="M12 8.414c-.322 0-.603-.12-.845-.362a1.158 1.158 0 0 1-.362-.845c0-.322.12-.603.362-.845.242-.241.523-.362.845-.362.322 0 .603.12.845.362.241.242.362.523.362.845 0 .322-.12.603-.362.845a1.158 1.158 0 0 1-.845.362ZM12 18c-.322 0-.603-.115-.845-.345a1.141 1.141 0 0 1-.362-.862V12c0-.322.12-.603.362-.845.242-.241.523-.362.845-.362.322 0 .603.12.845.362.241.242.362.523.362.845v4.793c0 .345-.12.632-.362.862-.242.23-.523.345-.845.345Z"/>
  <circle stroke="#565656" stroke-width="2" fill="none" cx="12" cy="12" r="11"/>
</svg>
