<svg width="16" height="16" viewBox="0 0 16 16" xmlns="http://www.w3.org/2000/svg">
<path d="M1.33325 10.6856C1.33317 10.5956 1.35084 10.5064 1.38525 10.4232C1.41966 10.3399 1.47013 10.2643 1.53379 10.2006L7.53899 4.20061C7.66772 4.07215 7.84215 4 8.02402 4C8.20588 4 8.38032 4.07215 8.50905 4.20061L14.5143 10.2006C14.6429 10.3292 14.7152 10.5037 14.7152 10.6856C14.7152 10.8676 14.6429 11.042 14.5143 11.1707C14.3856 11.2993 14.2111 11.3716 14.0292 11.3716C13.8473 11.3716 13.6728 11.2993 13.5442 11.1707L8.02419 5.65501L2.50419 11.1707C2.40831 11.2667 2.2861 11.332 2.15305 11.3585C2.02 11.385 1.88207 11.3714 1.75674 11.3195C1.63141 11.2676 1.52431 11.1796 1.449 11.0668C1.37368 10.9539 1.33354 10.8213 1.33365 10.6856H1.33325Z"/>
</svg>