<?xml version="1.0" encoding="UTF-8"?>
<svg xmlns="http://www.w3.org/2000/svg" viewBox="0 0 24 24"><path d="M20.711,5.484h-1.5V3.638A1.64,1.64,0,0,0,17.575,2H6.425A1.64,1.64,0,0,0,4.787,3.638V5.484h-1.5A1.29,1.29,0,0,0,2,6.774V9.561A1.29,1.29,0,0,0,3.289,10.85h1.5v7.422a1.64,1.64,0,0,0,1.394,1.619v.82A1.29,1.29,0,0,0,7.47,22H9.561a1.29,1.29,0,0,0,1.289-1.289v-.8h2.3v.8A1.29,1.29,0,0,0,14.439,22H16.53a1.29,1.29,0,0,0,1.289-1.289v-.82a1.64,1.64,0,0,0,1.394-1.619V10.85h1.5A1.29,1.29,0,0,0,22,9.561V6.774A1.29,1.29,0,0,0,20.711,5.484Zm-.593,1.882v1.6h-.9v-1.6ZM16.176,19.909v.505H14.767v-.505Zm-6.9,0v.505H7.767v-.505ZM17.331,4.787H6.669v-.9H17.331Zm0,9.548v3.693H6.669V14.335Zm0-1.882H6.669V6.669H17.331ZM4.787,7.366v1.6h-.9v-1.6Z"/><path d="M8.969,17.365A1.145,1.145,0,1,0,7.824,16.22,1.147,1.147,0,0,0,8.969,17.365Z"/><path d="M15.031,17.365a1.145,1.145,0,1,0-1.145-1.145A1.146,1.146,0,0,0,15.031,17.365Z"/></svg>