<svg width="24" height="24" viewBox="0 0 24 24" fill="none" xmlns="http://www.w3.org/2000/svg">
<path d="M2.28822 11.2821L8.28822 5.2821C8.47343 5.10019 8.723 4.9988 8.98261 5.00001C9.24222 5.00122 9.49083 5.10494 9.67434 5.28857C9.85784 5.47221 9.96138 5.7209 9.96241 5.98051C9.96343 6.24012 9.86187 6.48962 9.67982 6.6747L5.38882 10.9657H20.984C21.2526 10.9657 21.5102 11.0724 21.7001 11.2623C21.89 11.4522 21.9967 11.7098 21.9967 11.9784C21.9967 12.247 21.89 12.5046 21.7001 12.6945C21.5102 12.8844 21.2526 12.9911 20.984 12.9911H5.38882L9.67982 17.2821C9.77255 17.3732 9.84633 17.4817 9.8969 17.6015C9.94746 17.7212 9.9738 17.8498 9.97441 17.9798C9.97502 18.1098 9.94987 18.2386 9.90043 18.3588C9.85099 18.479 9.77823 18.5883 9.68635 18.6802C9.59446 18.7722 9.48528 18.845 9.3651 18.8945C9.24492 18.9441 9.11612 18.9693 8.98613 18.9688C8.85614 18.9683 8.72755 18.942 8.60776 18.8916C8.48797 18.8411 8.37937 18.7674 8.28822 18.6747L2.28822 12.6747C2.10367 12.49 2 12.2395 2 11.9784C2 11.7173 2.10367 11.4668 2.28822 11.2821Z" fill="currentColor"/>
</svg>
