<?xml version="1.0" encoding="UTF-8"?>
<svg xmlns="http://www.w3.org/2000/svg" viewBox="0 0 32 32"><path d="M18.75 25.25a1 1 0 0 0-1 1 1.75 1.75 0 0 1-3.5 0 1 1 0 0 0-2 0 3.75 3.75 0 0 0 7.5 0 1 1 0 0 0-1-1z"/><path d="M28.447 23.175c-.036-.026-3.565-2.6-3.565-11.175a9.01 9.01 0 0 0-6.932-8.751A.983.983 0 0 0 18 3a1 1 0 0 0-1-1h-2a1 1 0 0 0-1 1 .938.938 0 0 0 .039.191A9.016 9.016 0 0 0 6.882 12c0 8.574-3.528 11.149-3.554 11.168A1 1 0 0 0 3.882 25h24a1 1 0 0 0 .949-.7 1.008 1.008 0 0 0-.384-1.125zM6.13 23c1.258-1.831 2.752-5.224 2.752-11a7 7 0 0 1 14 0c0 5.776 1.495 9.169 2.752 11z"/></svg>