<?xml version="1.0" encoding="UTF-8" ?>
<svg xmlns="http://www.w3.org/2000/svg" viewBox="0 0 24 24"><path d="M6.946,12.5871H6.1753l.1294-.5408h.5787c0-.066-.0078-.132-.0078-.198V11.642a4.5011,4.5011,0,0,1,.0249-.47H6.1753l.1294-.5408h.6832A2.471,2.471,0,0,1,9.4956,8.57a3.5884,3.5884,0,0,1,1.4582.29l-.3064.9848a2.3814,2.3814,0,0,0-.2844-.1012,3.9653,3.9653,0,0,0-.7416-.123,1.3643,1.3643,0,0,0-1.4163,1.0065h2.1664l-.1372.5408H8.1013a4.0555,4.0555,0,0,0-.0334.4568,3.1364,3.1364,0,0,0,.0249.4178H9.9413l-.1329.5408h-1.65A1.3421,1.3421,0,0,0,9.5236,13.909l.0516-.0033a3.0538,3.0538,0,0,0,1.12-.189L11,14.7142A4.7986,4.7986,0,0,1,9.4252,15C8.2876,15,7.2126,14.394,6.946,12.5871Z"/><path d="M20.091,13,16,13a1.0293,1.0293,0,0,0-1,1l0,4.4447a1,1,0,1,0,2,0v-2.03l3.2676,3.2676a1,1,0,0,0,1.4143-1.4142L18.4143,15H20.091a1,1,0,0,0,0-2Z"/><path d="M13,17H5.2559A1.2575,1.2575,0,0,1,4,15.7437V8.2559A1.2575,1.2575,0,0,1,5.2559,7H18.7441A1.2575,1.2575,0,0,1,20,8.2559V11h2V8.2559A3.26,3.26,0,0,0,18.7441,5H5.2559A3.26,3.26,0,0,0,2,8.2559v7.4878A3.26,3.26,0,0,0,5.2559,19H13Z"/></svg>