<?xml version="1.0" encoding="UTF-8"?>
<svg xmlns="http://www.w3.org/2000/svg" viewBox="0 0 24 24"><path d="M15.752,5a.906.906,0,0,0-.994.8,2.7,2.7,0,0,1-2.766,2.579,2.67,2.67,0,0,1-2.75-2.57.906.906,0,0,0-1-.807.906.906,0,0,0-.994.807A4.5,4.5,0,0,0,12,9.993a4.5,4.5,0,0,0,4.747-4.184A.906.906,0,0,0,15.752,5Z"/><path d="M19,3.713l0-.027-.014-.039a1,1,0,0,0-.064-.267L18.9,3.313a.974.974,0,0,0-.189-.271l-.75-.75a1,1,0,0,0-.7-.292H6.747a1,1,0,0,0-.7.292l-.752.752a.952.952,0,0,0-.183.261.506.506,0,0,0-.032.081.764.764,0,0,0-.055.225L4.252,20.963A1,1,0,0,0,5.246,22H18.755a1,1,0,0,0,.993-1.037Zm-1.283,16.3H6.284L6.948,4.739h10.1Z"/></svg>