<svg version="1.1" xmlns="http://www.w3.org/2000/svg"  viewBox="0 0 32 32">
<path d="M29 30h-25.9c-0.552 0-1-0.448-1-1s0.448-1 1-1v0h25.9c0.552 0 1 0.448 1 1s-0.448 1-1 1v0z"></path>
<path d="M7 15.060c-0.552 0-1 0.448-1 1v0 9.4c0 0.552 0.448 1 1 1s1-0.448 1-1v0-9.4c0-0.552-0.448-1-1-1v0z"></path>
<path d="M13 8.21c-0.552 0-1 0.448-1 1v0 16.25c0 0.552 0.448 1 1 1s1-0.448 1-1v0-16.25c0-0.552-0.448-1-1-1v0z"></path>
<path d="M19 2.17c-0.552 0-1 0.448-1 1v0 22.29c0 0.552 0.448 1 1 1s1-0.448 1-1v0-22.29c0-0.552-0.448-1-1-1v0z"></path>
<path d="M25 10.88c-0.552 0-1 0.448-1 1v0 13.58c0 0.552 0.448 1 1 1s1-0.448 1-1v0-13.58c0-0.552-0.448-1-1-1v0z"></path>
</svg>
