<?xml version="1.0" encoding="UTF-8"?>
<svg xmlns="http://www.w3.org/2000/svg" viewBox="0 0 32 32"><path d="M21 7c-.553 0-1 .336-1 .75a3.885 3.885 0 0 1-4 3.75 3.885 3.885 0 0 1-4-3.75c0-.414-.447-.75-1-.75s-1 .336-1 .75c0 2.895 2.691 5.25 6 5.25s6-2.355 6-5.25c0-.414-.447-.75-1-.75z"/><path d="M25.307 12.042L25 4.957c0-.02-.011-.036-.013-.055a.988.988 0 0 0-.063-.26c-.01-.026-.016-.054-.029-.08a.979.979 0 0 0-.187-.269l-1-1A1 1 0 0 0 23 3H9a1 1 0 0 0-.707.293l-1 1a.979.979 0 0 0-.187.269c-.013.026-.019.054-.029.08a.978.978 0 0 0-.063.26c0 .019-.012.035-.013.055l-1 23A1 1 0 0 0 7 29h18a1 1 0 0 0 1-1.043zM12.769 27H8.044l.913-21h14.086l.913 21z"/></svg>