<?xml version="1.0" encoding="UTF-8"?>
<svg xmlns="http://www.w3.org/2000/svg" viewBox="0 0 32 32"><path d="M24.2 29.8a6.19 6.19 0 0 1-2.207.22 2.929 2.929 0 0 1-.445-.071c-13.2-3.175-18.379-15.9-18.593-16.44A6 6 0 0 1 3.081 9.1a5.227 5.227 0 0 1 3.434-2.635l.441-.128a2.683 2.683 0 0 1 3.18 1.463l1.8 3.956a2.672 2.672 0 0 1-.294 2.705l-1.128 1.5a.707.707 0 0 0 0 .858 23.9 23.9 0 0 0 6.7 6.166.731.731 0 0 0 .933-.134l.927-1.066a2.669 2.669 0 0 1 2.581-.857l4.247.925a2.684 2.684 0 0 1 2.1 2.8l-.041.528A5.225 5.225 0 0 1 24.2 29.8zM7.063 8.341a3.38 3.38 0 0 0-2.225 1.613 4.039 4.039 0 0 0-.059 2.846c.2.491 5.006 12.308 17.222 15.248a1.3 1.3 0 0 0 .154.025 3.363 3.363 0 0 0 3.854-3.139l.031-.422a.721.721 0 0 0-.562-.752l-4.245-.925a.718.718 0 0 0-.692.232l-.927 1.064a2.681 2.681 0 0 1-3.416.526A25.806 25.806 0 0 1 8.945 18a2.681 2.681 0 0 1 0-3.208l1.127-1.5a.719.719 0 0 0 .079-.727L8.357 8.6a.719.719 0 0 0-.857-.387z"/><path d="M20 16a1 1 0 0 1-1-1 2 2 0 0 0-2-2 1 1 0 0 1 0-2 4 4 0 0 1 4 4 1 1 0 0 1-1 1z"/><path d="M24 16a1 1 0 0 1-1-1 6.006 6.006 0 0 0-6-6 1 1 0 0 1 0-2 8.009 8.009 0 0 1 8 8 1 1 0 0 1-1 1z"/><path d="M28 16a1 1 0 0 1-1-1A10.011 10.011 0 0 0 17 5a1 1 0 0 1 0-2 12.013 12.013 0 0 1 12 12 1 1 0 0 1-1 1z"/></svg>