<svg width="48" height="48" viewBox="0 0 48 48" xmlns="http://www.w3.org/2000/svg">
<path d="M4.66483 21.7651C5.18019 20.9252 5.84639 20.1878 6.62983 19.5901L7.12483 19.2751C22.9798 10.8001 39.5848 19.0201 40.2748 19.3651C42.0757 20.3364 43.454 21.9391 44.1448 23.8651C44.396 24.8284 44.4375 25.8343 44.2668 26.815C44.096 27.7957 43.7168 28.7284 43.1548 29.5501L42.8248 30.0751C42.3742 30.8164 41.664 31.3637 40.8323 31.6104C40.0006 31.8572 39.1068 31.7858 38.3248 31.4101L32.9998 29.0701C32.4078 28.8042 31.8963 28.3868 31.5171 27.8601C31.1378 27.3334 30.9042 26.7159 30.8398 26.0701L30.5998 23.5651C30.5782 23.358 30.4908 23.1632 30.3504 23.0093C30.21 22.8555 30.0241 22.7506 29.8198 22.7101C25.8254 21.865 21.7061 21.7937 17.6848 22.5001C17.4598 22.5393 17.2561 22.6576 17.1103 22.8335C16.9646 23.0095 16.8864 23.2316 16.8898 23.4601V25.3501C16.9141 25.9803 16.7681 26.6055 16.4672 27.1598C16.1663 27.7141 15.7216 28.1771 15.1798 28.5001L10.1698 31.2601C9.4155 31.6717 8.53919 31.8012 7.69805 31.6253C6.85691 31.4494 6.10595 30.9796 5.57983 30.3001L5.14483 29.7301C4.26566 28.6082 3.74885 27.2452 3.66311 25.8224C3.57737 24.3996 3.92676 22.9845 4.66483 21.7651V21.7651Z"/>
</svg>