<svg width="24" height="24" viewBox="0 0 24 24" fill="none" xmlns="http://www.w3.org/2000/svg">
<path d="M14 14H11C10.7348 14 10.4804 13.8946 10.2929 13.7071C10.1054 13.5196 10 13.2652 10 13V8C10 7.73478 10.1054 7.48043 10.2929 7.29289C10.4804 7.10536 10.7348 7 11 7C11.2652 7 11.5196 7.10536 11.7071 7.29289C11.8946 7.48043 12 7.73478 12 8V12H14C14.2652 12 14.5196 12.1054 14.7071 12.2929C14.8946 12.4804 15 12.7348 15 13C15 13.2652 14.8946 13.5196 14.7071 13.7071C14.5196 13.8946 14.2652 14 14 14Z" fill="currentColor"/>
<path d="M21.0002 4C20.735 4 20.4806 4.10535 20.2931 4.29289C20.1055 4.48043 20.0002 4.73478 20.0002 5V6C18.7271 4.30193 16.9469 3.05291 14.917 2.43365C12.887 1.81439 10.7127 1.85699 8.70864 2.5553C6.70454 3.25361 4.97457 4.57142 3.76903 6.31805C2.56349 8.06468 1.94489 10.1496 2.00274 12.271C2.06059 14.3925 2.79188 16.4406 4.09082 18.1189C5.38975 19.7973 7.18896 21.0189 9.22814 21.6069C11.2673 22.195 13.4407 22.119 15.4339 21.3901C17.427 20.6611 19.1366 19.3169 20.3152 17.552C20.3909 17.4429 20.4442 17.3199 20.4719 17.19C20.4996 17.0601 20.5011 16.9261 20.4764 16.7956C20.4517 16.6651 20.4013 16.5409 20.3281 16.4301C20.2548 16.3193 20.1603 16.2242 20.0499 16.1504C19.9396 16.0766 19.8156 16.0254 19.6853 16C19.5549 15.9746 19.4209 15.9754 19.2908 16.0024C19.1608 16.0293 19.0375 16.0819 18.928 16.157C18.8185 16.2322 18.7251 16.3284 18.6532 16.44C17.6898 17.8916 16.2795 18.9896 14.636 19.5676C12.9926 20.1457 11.2055 20.1723 9.5455 19.6435C7.88554 19.1146 6.44319 18.0591 5.437 16.6369C4.4308 15.2147 3.91559 13.5032 3.96944 11.7619C4.02329 10.0205 4.64326 8.34421 5.73541 6.98687C6.82757 5.62953 8.33238 4.66517 10.0218 4.2399C11.7113 3.81463 13.4934 3.95162 15.098 4.63013C16.7026 5.30864 18.0423 6.49168 18.9142 8H17.0002C16.735 8 16.4806 8.10535 16.2931 8.29289C16.1055 8.48043 16.0002 8.73478 16.0002 9C16.0002 9.26521 16.1055 9.51957 16.2931 9.7071C16.4806 9.89464 16.735 10 17.0002 10H21.0002C21.2654 10 21.5197 9.89464 21.7073 9.7071C21.8948 9.51957 22.0002 9.26521 22.0002 9V5C22.0002 4.73478 21.8948 4.48043 21.7073 4.29289C21.5197 4.10535 21.2654 4 21.0002 4Z" fill="currentColor"/>
</svg>
