<?xml version="1.0" encoding="UTF-8"?>
<svg xmlns="http://www.w3.org/2000/svg" viewBox="0 0 24 24"><path d="M17.0835,14.5A7.5835,7.5835,0,1,0,9.5,22.083,7.5916,7.5916,0,0,0,17.0835,14.5ZM9.5,19.917A5.417,5.417,0,1,1,14.9165,14.5,5.4232,5.4232,0,0,1,9.5,19.917Z"/><path d="M13.2915 14.0264a.4739.4739 0 00-.4741.4736A3.3222 3.3222 0 019.5 17.8184a.4736.4736 0 100 .9472A4.27 4.27 0 0013.7656 14.5.4739.4739 0 0013.2915 14.0264zM17.793 9.707a.9995.9995 0 001.414 0l2.5-2.5a1 1 0 10-1.414-1.414l-.793.7929V3a1 1 0 00-2 0V6.5859l-.793-.7929a1 1 0 00-1.414 1.414zM21.0645 14.1289H21V12.0645a.9357.9357 0 00-.9355-.9356H17.3917A8.5134 8.5134 0 0117.9437 13h1.1852v1.1289H18.0647c.0054.124.0188.2459.0188.3711a8.5738 8.5738 0 01-.14 1.5h2.1852v1.1289H17.6678A8.5344 8.5344 0 0116.7952 19h1.3337v1.1289H15.9641A8.6358 8.6358 0 0113.6629 22h5.4016A.9356.9356 0 0020 21.0645V19h1.0645A.9356.9356 0 0022 18.0645v-3A.9357.9357 0 0021.0645 14.1289z"/></svg>