<svg width="32" height="32" viewBox="0 0 32 32" fill="none" xmlns="http://www.w3.org/2000/svg">
<path fill-rule="evenodd" clip-rule="evenodd" d="M1.98511 15.726C1.98511 7.99397 8.25312 1.72595 15.9851 1.72595C23.7171 1.72595 29.9851 7.99397 29.9851 15.726C29.9851 23.4579 23.7171 29.726 15.9851 29.726C8.25312 29.726 1.98511 23.4579 1.98511 15.726ZM3.98511 15.726C3.98511 22.3534 9.35769 27.726 15.9851 27.726C22.6096 27.7188 27.9779 22.3504 27.9851 15.726C27.9851 9.09854 22.6125 3.72595 15.9851 3.72595C9.35769 3.72595 3.98511 9.09854 3.98511 15.726Z" fill="black"/>
<path d="M13.6759 19.97L9.90989 16.123C9.72422 15.9333 9.62157 15.6776 9.62458 15.4122C9.62758 15.1468 9.73598 14.8935 9.92589 14.708C10.3207 14.3227 10.9529 14.3298 11.3389 14.724L14.3899 17.84L20.6299 11.466C21.0162 11.0715 21.6493 11.0647 22.0439 11.451C22.4387 11.8371 22.4459 12.4701 22.0599 12.865L15.1049 19.965C14.9175 20.1578 14.6603 20.2669 14.3914 20.2679C14.1226 20.2688 13.8647 20.1615 13.6759 19.97Z" fill="black"/>
</svg>
