<?xml version="1.0" encoding="UTF-8"?>
<svg xmlns="http://www.w3.org/2000/svg" viewBox="0 0 32 32"><path d="M26.707 9.293l-7-7A1 1 0 0 0 19 2H7a2 2 0 0 0-2 2v24a2 2 0 0 0 2 2h18a2 2 0 0 0 2-2V10a1 1 0 0 0-.293-.707zM20 5.414L23.586 9H20zM7 28V4h11v5a2 2 0 0 0 2 2h5v17z"/><path d="M15.611 11.944a.719.719 0 0 0-.07.024.248.248 0 0 0-.082.018.275.275 0 0 0-.132.1 1.349 1.349 0 0 0-.13.512 4.612 4.612 0 0 0-.018 1.052 7.4 7.4 0 0 0 .2 1.118 16.054 16.054 0 0 0 .346-1.966l.029-.286c.018-.176.038-.356.042-.462a1.425 1.425 0 0 0-.185-.108m-.1 5.549a22.326 22.326 0 0 1-1.332 2.805c.036-.01.071-.022.109-.034a19.124 19.124 0 0 1 2.126-.516c.219-.042.419-.078.6-.108a16.772 16.772 0 0 1-.448-.57 16.119 16.119 0 0 1-1.064-1.58m3.447 2.944a.545.545 0 0 1 .046.05 10.085 10.085 0 0 0 1.282 1.148 3.568 3.568 0 0 0 .949.539.878.878 0 0 0 .555 0 .464.464 0 0 0 .27-.2.568.568 0 0 0-.024-.435 1.275 1.275 0 0 0-.483-.526 2.786 2.786 0 0 0-.877-.35 7.973 7.973 0 0 0-1.238-.208q-.237-.018-.48-.024m-7.106 1.8a6.086 6.086 0 0 0-1.517 1.07 1.247 1.247 0 0 0-.4.636c-.008.03-.012.06-.016.084a2.051 2.051 0 0 0 .779-.48 8.71 8.71 0 0 0 1.155-1.308M9.762 25a.679.679 0 0 1-.651-.388 1.344 1.344 0 0 1-.07-.882 2.252 2.252 0 0 1 .648-1.1 7.254 7.254 0 0 1 1.851-1.289c.374-.188.817-.382 1.3-.568a21.99 21.99 0 0 0 1.912-3.873c.066-.176.126-.354.184-.532a9.075 9.075 0 0 1-.372-1.1 9.094 9.094 0 0 1-.292-1.521 5.843 5.843 0 0 1 .022-1.27 2.215 2.215 0 0 1 .278-.916 1.192 1.192 0 0 1 .573-.458 1.17 1.17 0 0 1 .284-.068.833.833 0 0 1 .447.01 1.593 1.593 0 0 1 .35.176v-.006c.555.272.5.752.431 1.414l-.03.28a19.3 19.3 0 0 1-.715 3.4c.03.066.064.132.1.2a14.051 14.051 0 0 0 1.274 1.982c.246.324.532.676.827 1.022a9.554 9.554 0 0 1 1.4.006 8.777 8.777 0 0 1 1.379.232 3.558 3.558 0 0 1 1.144.468 2.163 2.163 0 0 1 .831.942 1.525 1.525 0 0 1 .016 1.227 1.3 1.3 0 0 1-.815.694 1.728 1.728 0 0 1-1.092.006 4.437 4.437 0 0 1-1.217-.674 11.052 11.052 0 0 1-1.4-1.251c-.2-.21-.409-.434-.613-.662-.334.038-.7.1-1.169.188a17.91 17.91 0 0 0-2.033.494c-.377.114-.753.242-1.108.374l-.136.209a12.627 12.627 0 0 1-2.018 2.5 2.717 2.717 0 0 1-1.3.714 1.425 1.425 0 0 1-.218.02" style="" fill="#ff0000"/></svg>