<?xml version="1.0" encoding="UTF-8"?>
<svg xmlns="http://www.w3.org/2000/svg" viewBox="0 0 24 24"><path d="M15.5,9A6.5,6.5,0,1,0,22,15.5h0A6.51,6.51,0,0,0,15.5,9Zm4.563,6.5A4.564,4.564,0,1,1,15.5,10.936h0A4.568,4.568,0,0,1,20.064,15.5Z"/><path d="M15.586,12.092l1.107,2.243,2.476.36-1.791,1.747.423,2.466-2.215-1.164-2.215,1.164.423-2.466L12,14.7l2.476-.36Z"/><path d="M10.2,20.8a7.652,7.652,0,0,1-.687-.8H4V4H9V8a1,1,0,0,0,1,1h1.774A7.445,7.445,0,0,1,15.5,8c.169,0,.334.015.5.026V8a1,1,0,0,0-.293-.707l-5-5A1,1,0,0,0,10,2H4A2,2,0,0,0,2,4V20a2,2,0,0,0,2,2h7.768A7.533,7.533,0,0,1,10.2,20.8ZM11,5.414,12.586,7H11Z"/><path d="M9.514,11H7a1,1,0,0,0,0,2H8.438A7.477,7.477,0,0,1,9.514,11Z"/><path d="M8,15.5c0-.168.014-.333.025-.5H7a1,1,0,0,0,0,2H8.15A7.634,7.634,0,0,1,8,15.5Z"/><path d="M11.991,16.044c0-.015.009-.028.009-.044a.979.979,0,0,0-.027-.133C11.979,15.926,11.982,15.986,11.991,16.044Z"/></svg>