<?xml version="1.0" encoding="UTF-8"?>
<svg xmlns="http://www.w3.org/2000/svg" viewBox="0 0 24 24"><path d="M14.71,4.326,12.655,2.27a.929.929,0,0,0-1.31,0L9.29,4.326a.923.923,0,0,0,0,1.309.947.947,0,0,0,1.309,0l.475-.475v.914a.926.926,0,0,0,1.852,0V5.16l.475.475a.947.947,0,0,0,1.309,0,.923.923,0,0,0,0-1.309Z"/><path d="M14.71,19.674,12.655,21.73a.929.929,0,0,1-1.31,0L9.29,19.674a.923.923,0,0,1,0-1.309.947.947,0,0,1,1.309,0l.475.475v-.914a.926.926,0,1,1,1.852,0v.914l.475-.475a.947.947,0,0,1,1.309,0,.923.923,0,0,1,0,1.309Z"/><path d="M19,16H5a3,3,0,0,1-3-3V11A3,3,0,0,1,5,8H19a3,3,0,0,1,3,3v2A3,3,0,0,1,19,16ZM5,10a1,1,0,0,0-1,1v2a1,1,0,0,0,1,1H19a1,1,0,0,0,1-1V11a1,1,0,0,0-1-1Z"/></svg>