<svg width="32" height="32" viewBox="0 0 32 32" fill="none" xmlns="http://www.w3.org/2000/svg">
<path d="M14.9681 23.089L2.41006 10.9C2.14741 10.6357 2 10.2782 2 9.90553C2 9.53288 2.14741 9.17537 2.41006 8.91103C2.68586 8.64716 3.05285 8.49988 3.43456 8.49988C3.81626 8.49988 4.18325 8.64716 4.45906 8.91103L15.9931 20.111L27.5261 8.91103C27.8019 8.64716 28.1689 8.49988 28.5506 8.49988C28.9323 8.49988 29.2992 8.64716 29.5751 8.91103C29.7057 9.03587 29.8104 9.18523 29.8832 9.35057C29.9561 9.5159 29.9957 9.69398 29.9997 9.87461C30.0036 10.0552 29.972 10.2349 29.9065 10.4033C29.841 10.5717 29.743 10.7255 29.6181 10.856C29.6041 10.871 29.5901 10.886 29.5751 10.9L17.0171 23.089C16.7412 23.3529 16.3743 23.5002 15.9926 23.5002C15.6109 23.5002 15.2439 23.3529 14.9681 23.089Z" fill="#565656"/>
</svg>
