<?xml version="1.0" encoding="UTF-8"?>
<svg xmlns="http://www.w3.org/2000/svg" viewBox="0 0 32 32"><path d="M18.45,30.02c-6.05,0-10.97-4.92-10.97-10.97,0-6.04,4.93-10.97,10.97-10.97h0c6.05,0,10.97,4.92,10.97,10.97s-4.92,10.97-10.97,10.97Zm0-19.95c-4.94,0-8.97,4.03-8.98,8.98,0,4.95,4.03,8.97,8.97,8.97s8.97-4.03,8.97-8.97-4.03-8.97-8.97-8.97h0Zm1.33-5.63l-1.87-2.12c-.34-.39-.94-.43-1.33-.08-.39,.34-.43,.94-.08,1.33l.29,.33c-7.92,.58-14.21,7.2-14.22,15.26,0,.55,.45,1,1,1h0c.55,0,1-.45,1-1,0-6.92,5.33-12.62,12.09-13.26l-.32,.32c-.39,.34-.43,.94-.08,1.33,.34,.39,.94,.43,1.33,.08l2.12-1.87c.39-.34,.43-.94,.08-1.33Zm-6.59,16.08h1.38c.09,.67,.29,1.32,.6,1.93,.25,.48,.6,.91,1.02,1.26,.39,.31,.83,.55,1.31,.69,.48,.14,.97,.21,1.47,.21,.35,0,.71-.03,1.06-.07,.35-.04,.69-.1,1.03-.18,.25-.06,.49-.13,.72-.23l-.54-1.69c-.26,.09-.53,.16-.79,.22-.4,.08-.8,.11-1.2,.1-.26,0-.53-.03-.78-.09-.27-.06-.52-.17-.75-.33-.25-.18-.46-.41-.61-.68-.2-.35-.33-.74-.38-1.14h2.94l.24-.92h-3.29c-.03-.23-.05-.47-.05-.7,0-.26,.02-.52,.06-.77h3.8l.24-.92h-3.86c.1-.31,.26-.61,.47-.86,.18-.21,.39-.39,.63-.52,.22-.12,.46-.21,.72-.26,.47-.1,.95-.1,1.42,0,.28,.05,.48,.09,.62,.13,.17,.05,.34,.11,.51,.18l.55-1.67c-.34-.14-.69-.25-1.04-.33-.51-.12-1.04-.17-1.56-.16-.47,0-.93,.06-1.38,.18-.97,.25-1.82,.84-2.39,1.67-.34,.5-.58,1.05-.71,1.64h-1.22l-.23,.91h1.29c-.03,.26-.04,.53-.05,.79v.35c0,.11,0,.23,.01,.33h-1.03l-.23,.92Z"/></svg>