<?xml version="1.0" encoding="UTF-8"?>
<svg xmlns="http://www.w3.org/2000/svg" viewBox="0 0 24 24"><path d="M11.34,17.89v1.49c0,.36,.29,.66,.66,.66s.66-.29,.66-.66v-1.49c.63-.36,.84-1.17,.48-1.79-.36-.63-1.17-.84-1.79-.48-.63,.36-.84,1.17-.48,1.79,.12,.2,.28,.37,.48,.48h0Zm-6.49-4.42h14.3c.4,0,.72,.32,.72,.72h0v4.91c0,1.6-1.3,2.9-2.9,2.9H7.02c-1.6,0-2.9-1.3-2.9-2.9h0v-4.91c0-.4,.32-.72,.72-.72h.01Zm13.05-1.16v-.79c0-.57-.62-.91-1.22-.91H7.01c-.47-.04-.86,.27-.91,.72,0,.06,0,.11,0,.17v.81h-1.93v-.79c-.07-1.49,1.09-2.76,2.59-2.83,.08,0,.17,0,.25,0h9.66c1.62-.12,3.04,1.14,3.14,2.78v.85h-1.92ZM12,2c1.36,0,2.47,1.1,2.47,2.47s-1.11,2.47-2.47,2.47-2.47-1.1-2.47-2.47,1.11-2.47,2.47-2.47Z"/></svg>