<?xml version="1.0" encoding="UTF-8"?>
<svg xmlns="http://www.w3.org/2000/svg" viewBox="0 0 32 32"><path d="M14.5 24.807a1.5 1.5 0 0 1 3-.03 1.5 1.5 0 0 1-1.5 1.464 1.472 1.472 0 0 1-1.5-1.434zm1.446-13.241h.129A1.02 1.02 0 0 1 17.1 12.6l-.065 7.8a1.019 1.019 0 0 1-1.02 1.011A1.02 1.02 0 0 1 14.99 20.4l-.065-7.8a1.021 1.021 0 0 1 1.021-1.034z"/><path d="M29.778 27L17.831 3.137a2.043 2.043 0 0 0-3.662 0L2.222 27a2.071 2.071 0 0 0 .09 2.028A2.034 2.034 0 0 0 4.053 30h23.894a2.031 2.031 0 0 0 1.74-.975A2.069 2.069 0 0 0 29.778 27zM28 28l-23.986-.025a.078.078 0 0 1 0-.083L16.042 4.031 28 28z"/></svg>