<?xml version="1.0" encoding="UTF-8"?>
<svg xmlns="http://www.w3.org/2000/svg" viewBox="0 0 32 32"><path d="M4.6 18.645H2.039l.429-1.7h1.923a9.242 9.242 0 0 1-.028-.622v-.653a13.937 13.937 0 0 1 .083-1.48H2.039l.429-1.7h2.269A8.111 8.111 0 0 1 13.065 6a12.5 12.5 0 0 1 4.842.913l-1.023 3.113a7.666 7.666 0 0 0-.955-.318 13.665 13.665 0 0 0-2.462-.388 4.517 4.517 0 0 0-4.7 3.168h7.194l-.457 1.7H8.417a12.53 12.53 0 0 0-.111 1.439 9.6 9.6 0 0 0 .083 1.314h6.143l-.443 1.7H8.611c.594 3.486 2.78 4.164 4.7 4.164a10.631 10.631 0 0 0 3.722-.6l1.01 3.141a16.724 16.724 0 0 1-5.23.9c-3.76.008-7.329-1.901-8.213-7.601z"/><path d="M19.293 15.293l3-3a1 1 0 0 1 1.414 1.414L22.414 15H29a1 1 0 0 1 0 2h-6.586l1.293 1.293a1 1 0 1 1-1.414 1.414l-3-3a1 1 0 0 1 0-1.414z"/></svg>