<svg width="33" height="32" viewBox="0 0 33 32" xmlns="http://www.w3.org/2000/svg">
<path d="M16.5 5.33337C16.5 6.06975 17.097 6.66671 17.8333 6.66671L25.8333 6.66671C26.5697 6.66671 27.1667 7.26366 27.1667 8.00004L27.1667 25.3334C27.1667 26.0698 26.5697 26.6667 25.8333 26.6667L8.5 26.6667C7.76362 26.6667 7.16667 26.0698 7.16667 25.3334L7.16667 17.3334C7.16667 16.597 6.56971 16 5.83333 16C5.09695 16 4.5 16.597 4.5 17.3334L4.5 25.3334C4.5 27.5425 6.29086 29.3334 8.5 29.3334L25.8333 29.3334C28.0425 29.3334 29.8333 27.5425 29.8333 25.3334L29.8333 8.00004C29.8333 5.7909 28.0425 4.00004 25.8333 4.00004L17.8333 4.00004C17.097 4.00004 16.5 4.59699 16.5 5.33337Z"/>
<path d="M3.9905 2.76927C3.66395 2.90459 3.40449 3.16405 3.26917 3.49061C3.20221 3.65211 3.16734 3.82511 3.1665 3.99994L3.1665 11.9999C3.1665 12.7363 3.76346 13.3333 4.49984 13.3333C5.23622 13.3333 5.83317 12.7363 5.83317 11.9999L5.83317 7.21861L18.2238 19.6093C18.5586 19.9559 19.0543 20.0949 19.5205 19.9729C19.9867 19.8508 20.3507 19.4868 20.4728 19.0206C20.5948 18.5544 20.4558 18.0587 20.1092 17.7239L7.7185 5.33327L12.4998 5.33327C13.2362 5.33327 13.8332 4.73632 13.8332 3.99994C13.8332 3.26356 13.2362 2.66661 12.4998 2.66661L4.49984 2.66661C4.32494 2.66678 4.15181 2.70168 3.9905 2.76927Z"/>
</svg>