
<svg width="32" height="32" viewBox="0 0 32 32" fill="none" xmlns="http://www.w3.org/2000/svg">
<rect x="9" y="21" width="20" height="2" rx="1" fill="currentColor" fill-opacity="0.6"/>
<rect x="19" y="9" width="10" height="2" rx="1" fill="currentColor" fill-opacity="0.6"/>
<path d="M19 7.99999C18.2884 8.00198 17.6317 8.38308 17.277 8.99999H4C3.44772 8.99999 3 9.44771 3 9.99999C3 10.5523 3.44772 11 4 11H17.277C17.7629 11.8415 18.7833 12.212 19.6959 11.8783C20.6085 11.5446 21.1492 10.6032 20.9776 9.64673C20.806 8.69029 19.9717 7.9956 19 7.99999Z" fill="currentColor"/>
<path d="M27 14C26.2884 14.002 25.6317 14.3831 25.277 15H4C3.44772 15 3 15.4477 3 16C3 16.5523 3.44772 17 4 17H25.277C25.7629 17.8415 26.7833 18.212 27.6959 17.8783C28.6085 17.5446 29.1492 16.6032 28.9776 15.6467C28.806 14.6903 27.9717 13.9956 27 14Z" fill="currentColor"/>
<path d="M9 20C8.28837 20.002 7.63174 20.3831 7.277 21H4C3.44772 21 3 21.4477 3 22C3 22.5523 3.44772 23 4 23H7.277C7.76287 23.8415 8.78331 24.212 9.69592 23.8783C10.6085 23.5446 11.1492 22.6032 10.9776 21.6467C10.806 20.6903 9.97171 19.9956 9 20Z" fill="currentColor"/>
</svg>