<?xml version="1.0" encoding="UTF-8" ?>
<svg xmlns="http://www.w3.org/2000/svg" viewBox="0 0 32 32"><path d="M14.5,21.9a1.5,1.5,0,1,1,1.56,1.44H16A1.48,1.48,0,0,1,14.5,21.9ZM16,8.66h.13a1,1,0,0,1,1,1h0L17,17.46a1,1,0,0,1-2,0l-.06-7.8a1,1,0,0,1,1-1Z"/><path d="M16,30a2.56,2.56,0,0,1-1.83-.76L2.75,17.82a2.58,2.58,0,0,1,0-3.65h0L14.17,2.74a2.65,2.65,0,0,1,3.66,0L29.25,14.16a2.58,2.58,0,0,1,0,3.65h0L17.83,29.24A2.52,2.52,0,0,1,16,30ZM16,4a.58.58,0,0,0-.41.17L4.16,15.58a.59.59,0,0,0,0,.82L15.59,27.83a.59.59,0,0,0,.82,0L27.84,16.4a.59.59,0,0,0,0-.82L16.41,4.15A.62.62,0,0,0,16,4Z"/></svg>