<?xml version="1.0" encoding="UTF-8" ?>
<svg xmlns="http://www.w3.org/2000/svg" viewBox="0 0 32 32"><path d="M30,10.5C30,5.6543,27.9648,2,25.2666,2s-4.7334,3.6543-4.7334,8.5c0,4.2256,1.548,7.5434,3.7334,8.3239V27H21l-1,.0526V14.5308a1,1,0,0,0-.3672-.7745l-8-6.5307a.9989.9989,0,0,0-1.2646,0l-8,6.5307A.9984.9984,0,0,0,2,14.5308V28a1,1,0,0,0,1,1H29a1,1,0,0,0,0-2H26.2666V18.8239C28.452,18.0434,30,14.7256,30,10.5ZM11,27H9.5V20h3v7Zm3.5,0V19a1,1,0,0,0-1-1h-5a1,1,0,0,0-1,1v8H4V15.0054L11,9.291l7,5.7144V27Zm8.0332-16.5c0-3.72,1.4434-6.5,2.7334-6.5S28,6.78,28,10.5,26.5566,17,25.2666,17,22.5332,14.22,22.5332,10.5Z"/></svg>