<svg width="32" height="32" viewBox="0 0 32 32" fill="none" xmlns="http://www.w3.org/2000/svg">
<path d="M16.012 12.991C15.3395 12.9909 14.7929 13.5335 14.788 14.206L14.71 23.573C14.7073 23.8995 14.8352 24.2136 15.0653 24.4453C15.2954 24.677 15.6085 24.8072 15.935 24.807H16.09C16.4164 24.807 16.7292 24.6766 16.9591 24.4449C17.1889 24.2132 17.3167 23.8993 17.314 23.573L17.237 14.206C17.2315 13.5333 16.6847 12.9909 16.012 12.991Z" fill="black"/>
<path d="M15.9942 7.19308C15.0257 7.17849 14.2258 7.94585 14.2002 8.91408C14.2604 9.85741 15.0383 10.5945 15.9835 10.6039C16.9287 10.6134 17.7211 9.89202 17.8002 8.95008C17.7768 7.97046 16.9741 7.18953 15.9942 7.19308Z" fill="black"/>
<path fill-rule="evenodd" clip-rule="evenodd" d="M2 16C2 8.26801 8.26801 2 16 2C19.713 2 23.274 3.475 25.8995 6.1005C28.525 8.72601 30 12.287 30 16C30 23.732 23.732 30 16 30C8.26801 30 2 23.732 2 16ZM4 16C4 22.6274 9.37258 28 16 28C22.6244 27.9928 27.9928 22.6244 28 16C28 9.37258 22.6274 4 16 4C9.37258 4 4 9.37258 4 16Z" fill="black"/>
</svg>
