<?xml version="1.0" encoding="UTF-8"?>
<svg xmlns="http://www.w3.org/2000/svg" viewBox="0 0 32 32"><path d="M24.878 3.012a4.334 4.334 0 0 0-4.2-.769c-.269.083-.515.162-.742.236a12.614 12.614 0 0 1-7.864 0 48.573 48.573 0 0 0-.742-.236 4.335 4.335 0 0 0-4.2.769c-1.6 1.341-3.291 4.67-2.255 12.913 1.382 11.007 9.843 13.629 10.8 13.892a.983.983 0 0 0 .264.036h.132a.983.983 0 0 0 .264-.036c.96-.263 9.421-2.885 10.8-13.892 1.034-8.243-.656-11.572-2.257-12.913zm.27 12.664c-.895 7.127-5.059 10.247-7.542 11.494a3.575 3.575 0 0 1-3.212 0c-2.483-1.247-6.647-4.37-7.542-11.494C5.843 7.65 7.6 5.218 8.406 4.545a2.2 2.2 0 0 1 1.45-.535 2.957 2.957 0 0 1 .877.143c.255.079.487.153.7.224a14.658 14.658 0 0 0 9.13 0c.215-.071.447-.145.7-.224a2.339 2.339 0 0 1 2.326.392c.811.673 2.568 3.105 1.559 11.131z"/><path d="M18.962 16.973a6.043 6.043 0 0 1-3.033.7 6.044 6.044 0 0 1-3.034-.7.456.456 0 0 0-.671.316v.022a.429.429 0 0 0 .013.162c.082 2.389 1.7 5.493 3.694 5.493s3.611-3.1 3.693-5.493a.433.433 0 0 0 .013-.163v-.021a.456.456 0 0 0-.675-.316z"/><path d="M19.946 10.693a3.274 3.274 0 0 0-2.882 1.614.99.99 0 0 0 .407 1.328 1.01 1.01 0 0 0 1.354-.379 1.274 1.274 0 0 1 1.121-.563 1.357 1.357 0 0 1 1.137.59 1 1 0 0 0 1.727-1.009 3.37 3.37 0 0 0-2.864-1.581z"/><path d="M12.632 13.283a1 1 0 0 0 1.726-1.009 3.366 3.366 0 0 0-2.858-1.581 3.274 3.274 0 0 0-2.882 1.614.99.99 0 0 0 .407 1.328 1.01 1.01 0 0 0 1.354-.379 1.274 1.274 0 0 1 1.121-.563 1.36 1.36 0 0 1 1.132.59z"/></svg>