<?xml version="1.0" encoding="UTF-8"?>
<svg xmlns="http://www.w3.org/2000/svg" viewBox="0 0 24 24"><path d="M19.2,13.008H21A1.007,1.007,0,0,0,22,12V6.606A1.007,1.007,0,0,0,21,5.6H16.616V4.8a2.8,2.8,0,0,0-2.8-2.8h0a2.806,2.806,0,0,0-2.8,2.8v.8H6.636a1.007,1.007,0,0,0-1,1.007V11H4.847a2.875,2.875,0,0,0-1.993.789A2.79,2.79,0,0,0,2,13.755a2.825,2.825,0,0,0,2.841,2.852h.79V21a1.008,1.008,0,0,0,1,1h5.385a1.007,1.007,0,0,0,1-1.007V19.2a.79.79,0,1,1,1.579,0v1.8A1.008,1.008,0,0,0,15.611,22H21a1.007,1.007,0,0,0,1-1.007V15.6a1.008,1.008,0,0,0-1-1H19.2a.792.792,0,0,1,0-1.584Zm.79,6.979H16.616V19.2a2.8,2.8,0,0,0-2.8-2.805h0a2.805,2.805,0,0,0-2.8,2.805v.791H7.641V15.6a1.008,1.008,0,0,0-1-1H4.84a.792.792,0,0,1,0-1.584h1.8a1.009,1.009,0,0,0,1-1.007V7.612h4.38a1.008,1.008,0,0,0,1-1.006V4.8a.79.79,0,0,1,.231-.56.781.781,0,0,1,.559-.232h0a.792.792,0,0,1,.789.792v1.8a1.009,1.009,0,0,0,1.006,1.006H19.99V11H19.2a2.812,2.812,0,0,0-2.8,2.8h0a2.81,2.81,0,0,0,2.8,2.8h.79Z"/></svg>