<?xml version="1.0" encoding="UTF-8"?>
<svg xmlns="http://www.w3.org/2000/svg" viewBox="0 0 24 24"><path d="M6.91,21l.621-1.94a10.22,10.22,0,0,0,3.8.857c2.445,0,3.1-.724,3.1-1.837,0-.879-.857-1.423-1.953-1.759l-1.461-.44C8.9,15.251,6.936,14.514,6.936,12.07a3.363,3.363,0,0,1,2.2-3.143A3.421,3.421,0,0,1,7.026,5.793C7.026,3.024,9.536,2,12.136,2a12.026,12.026,0,0,1,4.023.608V4.731a14.034,14.034,0,0,0-3.842-.685c-1.863,0-2.781.53-2.781,1.669S10.6,7.163,12.563,7.681c2.057.582,4.527,1.332,4.527,4.022a3.573,3.573,0,0,1-2.044,3.155,3.323,3.323,0,0,1,1.97,3.171c0,2.677-2.2,3.971-5.357,3.971A11.507,11.507,0,0,1,6.91,21Zm7.71-9.071c0-1.435-1.889-1.888-3.286-2.25a2.245,2.245,0,0,0-1.928,2.044c0,1.487,1.721,1.85,3.738,2.357a2.233,2.233,0,0,0,1.476-2.148Z"/></svg>