<svg width="20" height="20" viewBox="0 0 20 20" fill="none" xmlns="http://www.w3.org/2000/svg">
<rect x="1" y="1" width="18" height="18" rx="3" stroke="currentColor" stroke-width="2"/>
<path d="M9.73047 14.1465C10.2461 14.1465 10.7012 14.0918 11.0957 13.9824C11.4902 13.873 11.8223 13.7119 12.0918 13.499C12.3613 13.2861 12.5654 13.0244 12.7041 12.7139C12.8428 12.4033 12.9121 12.0449 12.9121 11.6387C12.9121 11.4082 12.8877 11.1846 12.8389 10.9678C12.79 10.751 12.6973 10.5381 12.5605 10.3291C12.4238 10.1201 12.2529 9.93652 12.0479 9.77832C11.8428 9.62012 11.6455 9.49805 11.4561 9.41211C11.2666 9.32617 11.0117 9.22266 10.6914 9.10156C10.4688 9.02344 10.2119 8.9375 9.9209 8.84375C9.62988 8.75 9.37988 8.62207 9.1709 8.45996C8.96191 8.29785 8.85742 8.0957 8.85742 7.85352C8.85742 7.56055 8.9707 7.32812 9.19727 7.15625C9.42383 6.98438 9.79492 6.89844 10.3105 6.89844C10.5293 6.89844 10.7715 6.91797 11.0371 6.95703C11.3027 6.99609 11.5508 7.04199 11.7812 7.09473C12.0117 7.14746 12.2285 7.20898 12.4316 7.2793V5.82617C12.1543 5.74805 11.8213 5.67676 11.4326 5.6123C11.0439 5.54785 10.6445 5.51562 10.2344 5.51562C9.77734 5.51562 9.36035 5.57129 8.9834 5.68262C8.60645 5.79395 8.2832 5.95312 8.01367 6.16016C7.74414 6.36719 7.53516 6.62012 7.38672 6.91895C7.23828 7.21777 7.16406 7.55469 7.16406 7.92969C7.16406 8.19141 7.19727 8.42383 7.26367 8.62695C7.33008 8.83008 7.41797 9.01074 7.52734 9.16895C7.63672 9.32715 7.7627 9.46484 7.90527 9.58203C8.04785 9.69922 8.19531 9.80078 8.34766 9.88672C8.5 9.97266 8.65234 10.0469 8.80469 10.1094C8.95703 10.1719 9.09766 10.2285 9.22656 10.2793C9.45312 10.373 9.71973 10.4756 10.0264 10.5869C10.333 10.6982 10.5928 10.8389 10.8057 11.0088C11.0186 11.1787 11.125 11.3965 11.125 11.6621C11.125 11.8066 11.0996 11.9609 11.0488 12.125C10.998 12.2891 10.8457 12.4307 10.5918 12.5498C10.3379 12.6689 9.97656 12.7285 9.50781 12.7285C9.26172 12.7285 8.99902 12.7041 8.71973 12.6553C8.44043 12.6064 8.15234 12.5352 7.85547 12.4414C7.55859 12.3477 7.38477 12.2832 7.33398 12.248L6.91211 13.6309C6.95898 13.6504 7.07715 13.6953 7.2666 13.7656C7.45605 13.8359 7.79297 13.917 8.27734 14.0088C8.76172 14.1006 9.24609 14.1465 9.73047 14.1465Z" fill="currentColor"/>
</svg>
