<?xml version="1.0" encoding="UTF-8"?>
<svg xmlns="http://www.w3.org/2000/svg" viewBox="0 0 32 32"><path d="M16.946 9.968a15.435 15.435 0 0 1 6.447 1.106 1 1 0 0 1-.889 1.792 13.932 13.932 0 0 0-5.558-.9 1 1 0 0 1 0-2z"/><circle cx="11.946" cy="14.968" r="1"/><path d="M2.946 15.767l2.258-1.5c.879-1.442 1.458-2.466 1.65-2.863l-.726-5.085a2 2 0 0 1 .551-1.686 1.974 1.974 0 0 1 1.642-.589 6.87 6.87 0 0 1 5.085 2.68 18.192 18.192 0 0 1 5.54-.756c5.3 0 11 2.817 11 9 0 2.508-1.073 5.666-1.936 8.2a32.3 32.3 0 0 0-.988 3.222 2 2 0 0 1-1.953 1.575h-3.261a1.978 1.978 0 0 1-1.937-1.51 1.762 1.762 0 0 0-1.925-1.49 1.761 1.761 0 0 0-1.925 1.49 1.979 1.979 0 0 1-1.938 1.51H9.75a2 2 0 0 1-1.95-1.547 13.153 13.153 0 0 0-1.138-3.45H4.756A2.006 2.006 0 0 1 2.8 21.375c-.165-.8-.517-2.6-.707-3.566a1.99 1.99 0 0 1 .853-2.042zm1.81 5.2h2.19c.983 0 1.837.85 2.8 5l4.326.022a3.732 3.732 0 0 1 3.87-3.022 3.72 3.72 0 0 1 3.862 3h3.26a32.922 32.922 0 0 1 1.049-3.44c.815-2.4 1.829-5.382 1.829-7.56 0-5.537-5.887-7-9-7a16.328 16.328 0 0 0-4.928.66 1.979 1.979 0 0 1-2.251-.748 4.868 4.868 0 0 0-3.654-1.843l.759 5.318c.058.4.087.6-1.953 3.945a1.977 1.977 0 0 1-.6.624l-2.263 1.5c.19.967.54 2.751.704 3.545z"/></svg>