<svg width="24" height="24" viewBox="0 0 24 24" fill="none" xmlns="http://www.w3.org/2000/svg">
<path d="M8.59632 21.9849H8.56632C6.87669 21.9855 5.25581 21.3159 4.05922 20.123C1.74132 17.7622 1.61482 13.7837 3.78922 11.6089L12.0816 3.31691C12.4935 2.9014 12.9834 2.57134 13.5232 2.34567C14.0631 2.12 14.6421 2.00318 15.2272 2.0019C15.8123 2.00063 16.3918 2.11492 16.9326 2.33823C17.4734 2.56153 17.9647 2.88945 18.3785 3.30316C18.7922 3.71687 19.1201 4.20822 19.3434 4.749C19.5667 5.28978 19.681 5.86934 19.6798 6.45442C19.6785 7.03949 19.5617 7.61856 19.336 8.15837C19.1104 8.69817 18.7803 9.1881 18.3648 9.60001L11.2448 16.72C9.89672 18.0672 8.28582 18.1976 7.14182 17.053C6.84556 16.7708 6.62125 16.4216 6.48768 16.0349C6.35411 15.6481 6.31517 15.2349 6.37412 14.83C6.50794 14.0906 6.87578 13.4138 7.42342 12.8993L13.962 6.36001C14.1505 6.17717 14.4033 6.0758 14.6659 6.07779C14.9285 6.07978 15.1797 6.18496 15.3654 6.37063C15.5511 6.5563 15.6563 6.80755 15.6583 7.07012C15.6603 7.3327 15.5589 7.58552 15.3761 7.77401L8.83752 14.313C8.59828 14.5282 8.42932 14.8105 8.35262 15.123C8.33829 15.2193 8.34952 15.3177 8.38518 15.4082C8.42085 15.4988 8.47969 15.5784 8.55582 15.6391C8.68422 15.7685 9.02652 16.1103 9.83072 15.3066L16.9507 8.18661C17.4087 7.72836 17.666 7.10699 17.666 6.45911C17.666 5.81122 17.4087 5.18985 16.9507 4.73161C16.4852 4.28755 15.8665 4.03981 15.2232 4.03981C14.5798 4.03981 13.9612 4.28755 13.4956 4.73161L5.20322 13.0229C4.53223 13.8374 4.18933 14.873 4.24162 15.927C4.29391 16.981 4.73762 17.9776 5.48592 18.7217C6.31174 19.5297 7.42059 19.983 8.57592 19.9849H8.59642C9.06995 19.9973 9.54125 19.9159 9.9832 19.7455C10.4252 19.575 10.829 19.3188 11.1716 18.9917L20.0528 10.11C20.1451 10.0148 20.2555 9.93896 20.3774 9.88681C20.4993 9.83467 20.6304 9.80729 20.763 9.80628C20.8956 9.80527 21.0271 9.83064 21.1498 9.88091C21.2725 9.93119 21.3839 10.0054 21.4777 10.0991C21.5715 10.1929 21.6457 10.3044 21.6959 10.4271C21.7462 10.5497 21.7716 10.6812 21.7706 10.8138C21.7696 10.9464 21.7422 11.0775 21.6901 11.1994C21.638 11.3213 21.5621 11.4317 21.4669 11.524L12.5855 20.4054C12.058 20.9192 11.4338 21.3234 10.749 21.5945C10.0643 21.8656 9.33264 21.9983 8.59632 21.9849Z" fill="black"/>
</svg>
