<?xml version="1.0" encoding="UTF-8"?>
<svg xmlns="http://www.w3.org/2000/svg" viewBox="0 0 24 24"><path d="M17.394,8.237a11.214,11.214,0,0,0-4.686-.813h-.03a.967.967,0,1,0,.01,1.934h0a9.648,9.648,0,0,1,3.864.62.968.968,0,0,0,.429.1.95.95,0,0,0,.31-.051.96.96,0,0,0,.558-.486A.973.973,0,0,0,17.394,8.237Z"/><circle cx="9.092" cy="11.261" r="0.967"/><path d="M14.117,4.558a13.13,13.13,0,0,0-3.887.5A5.156,5.156,0,0,0,6.521,3.179,1.685,1.685,0,0,0,4.673,5.094l.51,3.57c-.146.285-.507.926-1.11,1.917L2.5,11.625a1.674,1.674,0,0,0-.718,1.722l.071.362c.14.716.336,1.712.436,2.2a1.7,1.7,0,0,0,1.648,1.341H5.146a9.19,9.19,0,0,1,.729,2.281,1.679,1.679,0,0,0,1.641,1.3h3.119a1.67,1.67,0,0,0,1.627-1.3,1.025,1.025,0,0,1,1.159-.857,1.021,1.021,0,0,1,1.112.879,1.66,1.66,0,0,0,1.618,1.274H18.5a1.694,1.694,0,0,0,1.643-1.32,22.9,22.9,0,0,1,.7-2.29,20.608,20.608,0,0,0,1.4-5.961C22.25,6.655,18.031,4.558,14.117,4.558ZM5.7,11.629C7.208,9.153,7.186,9,7.133,8.634l-.5-3.5A3.226,3.226,0,0,1,8.756,6.32a1.675,1.675,0,0,0,1.89.634,11.4,11.4,0,0,1,3.463-.463c2.146,0,6.2,1,6.2,4.77a19.477,19.477,0,0,1-1.3,5.335,23.8,23.8,0,0,0-.713,2.3H16.36a2.906,2.906,0,0,0-2.954-2.15,2.94,2.94,0,0,0-2.988,2.166l-2.7-.015c-.623-2.61-1.228-3.586-2.206-3.586H4.14c-.117-.577-.306-1.541-.431-2.175l1.483-.983A1.693,1.693,0,0,0,5.7,11.629Z"/></svg>