<?xml version="1.0" encoding="UTF-8"?>
<svg xmlns="http://www.w3.org/2000/svg" viewBox="0 0 32 32"><path d="M9.05 28.605l.87-2.716a14.289 14.289 0 0 0 5.325 1.2c3.423 0 4.346-1.014 4.346-2.572 0-1.231-1.2-1.992-2.735-2.463l-2.046-.616c-2.97-.887-5.723-1.919-5.723-5.342a4.707 4.707 0 0 1 3.079-4.4 4.79 4.79 0 0 1-2.953-4.389C9.213 3.431 12.727 2 16.367 2A16.822 16.822 0 0 1 22 2.851v2.97a19.6 19.6 0 0 0-5.379-.959c-2.608 0-3.894.742-3.894 2.336 0 1.576 1.485 2.028 4.238 2.753 2.88.815 6.339 1.865 6.339 5.632A5 5 0 0 1 20.442 20a4.652 4.652 0 0 1 2.758 4.44c0 3.749-3.079 5.56-7.5 5.56a16.107 16.107 0 0 1-6.65-1.395zm10.795-12.7c0-2.01-2.644-2.644-4.6-3.151a3.143 3.143 0 0 0-2.7 2.862c0 2.082 2.409 2.59 5.234 3.3a3.124 3.124 0 0 0 2.066-3.007z"/></svg>