<svg width="24" height="24" viewBox="0 0 24 24" fill="none" xmlns="http://www.w3.org/2000/svg">
<path d="M21.525 7.09996L18.485 4.05996C18.3629 3.93825 18.2221 3.83695 18.068 3.75996L16.106 2.77996C15.8898 2.6704 15.6518 2.61074 15.4095 2.60538C15.1672 2.60001 14.9268 2.64908 14.706 2.74896C14.4857 2.84665 14.2904 2.9928 14.1346 3.17652C13.9788 3.36023 13.8664 3.57677 13.806 3.80996C13.7245 4.22249 13.4901 4.58899 13.1498 4.83601C12.8095 5.08302 12.3884 5.19231 11.971 5.14196C11.5571 5.18436 11.1425 5.06897 10.8101 4.81886C10.4776 4.56875 10.2519 4.20235 10.178 3.79296C10.1168 3.56381 10.0051 3.35131 9.85084 3.17113C9.69663 2.99096 9.50392 2.84771 9.28695 2.75196C9.06606 2.65261 8.82583 2.60366 8.58368 2.60868C8.34153 2.61369 8.10353 2.67255 7.88695 2.78096L5.92795 3.76096C5.7717 3.837 5.6291 3.93837 5.50595 4.06096L2.47495 7.09996C2.32377 7.25089 2.20383 7.43015 2.122 7.62748C2.04017 7.82481 1.99805 8.03634 1.99805 8.24996C1.99805 8.46359 2.04017 8.67512 2.122 8.87244C2.20383 9.06977 2.32377 9.24903 2.47495 9.39996L4.39995 11.327C4.64515 11.5721 4.96221 11.7326 5.30495 11.785V19.769C5.30574 20.1996 5.47724 20.6124 5.78184 20.9168C6.08644 21.2212 6.49931 21.3924 6.92995 21.393H17.068C17.4986 21.3924 17.9115 21.2212 18.2161 20.9168C18.5207 20.6124 18.6922 20.1996 18.693 19.769V11.784C19.0344 11.7301 19.3497 11.5685 19.593 11.323L21.525 9.39996C21.8298 9.09488 22.001 8.68124 22.001 8.24996C22.001 7.81868 21.8298 7.40505 21.525 7.09996ZM7.04795 9.12896C6.93256 9.0144 6.77655 8.95011 6.61395 8.95011C6.45135 8.95011 6.29534 9.0144 6.17995 9.12896L5.55095 9.75796L4.04295 8.25096L6.82895 5.46096L8.43695 4.66096C8.69092 5.39021 9.17376 6.01786 9.81349 6.45035C10.4532 6.88284 11.2156 7.09702 11.987 7.06096C12.7628 7.10361 13.5314 6.89246 14.1766 6.45945C14.8218 6.02644 15.3084 5.39512 15.563 4.66096L17.163 5.46096L19.957 8.25396L18.4489 9.75896L17.82 9.13096C17.763 9.07355 17.6953 9.02806 17.6206 8.99715C17.5459 8.96625 17.4658 8.95054 17.385 8.95096C17.2224 8.95149 17.0666 9.01638 16.9517 9.13144C16.8369 9.2465 16.7722 9.40237 16.7719 9.56496V19.472H7.22795V9.56596C7.22864 9.48479 7.21306 9.40431 7.18215 9.32926C7.15124 9.2542 7.10561 9.1861 7.04795 9.12896Z" fill="black"/>
</svg>
