<svg width="24" height="24" viewBox="0 0 24 24" xmlns="http://www.w3.org/2000/svg">
<path fill-rule="evenodd" clip-rule="evenodd" d="M20.4471 15.753L21.9471 20.263H21.9461C22.0683 20.6307 21.9723 21.0359 21.6981 21.3097C21.4239 21.5834 21.0186 21.6788 20.6511 21.556L16.6001 20.206C13.5767 22.0511 9.78306 22.0816 6.73045 20.2853C3.67783 18.4891 1.86227 15.1579 2.00708 11.619C2.16089 7.77397 4.59467 4.3919 8.19166 3.02464C11.7887 1.65738 15.8545 2.56888 18.5235 5.34089C21.1925 8.11291 21.9495 12.2103 20.4471 15.753ZM16.2491 17.972L19.3631 18.972L18.3661 15.873L18.4201 15.779C18.9541 14.7158 19.2107 13.5349 19.1661 12.346C19.2718 8.57797 16.642 5.28411 12.9441 4.55298C12.5091 4.47779 12.0685 4.43998 11.6271 4.43998C7.45236 4.43446 4.06361 7.81426 4.05808 11.989C4.05256 16.1637 7.43236 19.5525 11.6071 19.558C13.2385 19.5184 14.8206 18.9907 16.1491 18.043L16.2491 17.972Z"/>
</svg>