<?xml version="1.0" encoding="UTF-8"?>
<svg xmlns="http://www.w3.org/2000/svg" viewBox="0 0 24 24"><path d="M9.561,17.233A2.335,2.335,0,1,0,11.9,19.567,2.335,2.335,0,0,0,9.561,17.233Zm0,2.787a.453.453,0,1,1,.453-.453h0A.454.454,0,0,1,9.561,20.02Z"/><path d="M16.529,17.233a2.335,2.335,0,1,0,2.335,2.335h0A2.337,2.337,0,0,0,16.529,17.233Zm0,2.787a.453.453,0,1,1,.453-.453h0A.454.454,0,0,1,16.529,20.02Z"/><path d="M21.783,6.55h0a.946.946,0,0,0-.724-.34H7.133L6.461,2.845A.947.947,0,0,0,5.539,2.1H2.94a.941.941,0,1,0,0,1.882H4.767l.661,3.278a.439.439,0,0,0,.018.115l1.377,6.873A2.588,2.588,0,0,0,9.348,16.33h8.779a2.6,2.6,0,0,0,2.539-2.09l1.317-6.909A.939.939,0,0,0,21.783,6.55Zm-2.966,7.322a.737.737,0,0,1-.721.575H9.371a.685.685,0,0,1-.7-.572L7.51,8.091H19.921Z"/></svg>