<svg width="24" height="24" viewBox="0 0 24 24" fill="none" xmlns="http://www.w3.org/2000/svg">
<path fill-rule="evenodd" clip-rule="evenodd" d="M12 2C6.47715 2 2 6.47715 2 12C2 17.5228 6.47715 22 12 22C17.5228 22 22 17.5228 22 12C21.9939 6.47967 17.5203 2.00606 12 2ZM4 12C3.99433 8.94466 5.7322 6.15381 8.47662 4.81095C11.221 3.4681 14.4911 3.80858 16.9 5.688L5.688 16.9C4.594 15.501 3.99977 13.776 4 12ZM7.1 18.312C8.49904 19.406 10.224 20.0002 12 20C15.0553 20.0057 17.8462 18.2678 19.189 15.5234C20.5319 12.779 20.1914 9.50892 18.312 7.1L7.1 18.312Z" fill="black"/>
</svg>
