<svg width="32" height="33" viewBox="0 0 32 33" fill="none" xmlns="http://www.w3.org/2000/svg">
<path d="M16.0003 29.8853C15.8452 29.8854 15.6922 29.8495 15.5533 29.7803C15.1193 29.5633 4.94434 24.3823 4.94434 16.3153V7.51529C4.94421 7.31159 5.00629 7.11272 5.12227 6.94527C5.23825 6.77782 5.4026 6.64978 5.59334 6.57829L15.6483 2.80829C15.8743 2.72528 16.1224 2.72528 16.3483 2.80829L26.4073 6.57929C26.5981 6.65078 26.7624 6.77882 26.8784 6.94627C26.9944 7.11372 27.0565 7.31259 27.0563 7.51629V16.3153C27.0563 24.3823 16.8813 29.5633 16.4473 29.7803C16.3085 29.8495 16.1555 29.8854 16.0003 29.8853ZM6.94434 8.20929V16.3153C6.94434 22.2773 14.1163 26.6933 16.0003 27.7483C17.8843 26.6933 25.0563 22.2773 25.0563 16.3153V8.20929L16.0003 4.81529L6.94434 8.20929Z" fill="#565656"/>
<path d="M15.0004 20.3153C14.7352 20.3152 14.4809 20.2098 14.2934 20.0223L11.2934 17.0223C11.1112 16.8337 11.0105 16.5811 11.0127 16.3189C11.015 16.0567 11.1202 15.8059 11.3056 15.6205C11.491 15.4351 11.7418 15.3299 12.004 15.3276C12.2662 15.3253 12.5188 15.4261 12.7074 15.6083L15.0004 17.9013L21.2934 11.6083C21.482 11.4261 21.7346 11.3253 21.9968 11.3276C22.259 11.3299 22.5098 11.4351 22.6952 11.6205C22.8806 11.8059 22.9858 12.0567 22.9881 12.3189C22.9904 12.5811 22.8896 12.8337 22.7074 13.0223L15.7074 20.0223C15.5199 20.2098 15.2656 20.3152 15.0004 20.3153Z" fill="#565656"/>
</svg>