<svg width="24" height="24" viewBox="0 0 24 24" xmlns="http://www.w3.org/2000/svg">
<path d="M21.192 9.67501L18.686 9.31701C18.6188 9.14801 18.5461 8.98134 18.468 8.81701L20.012 7.14501C20.1765 6.96695 20.2656 6.73212 20.2608 6.48977C20.256 6.24741 20.1575 6.01634 19.986 5.845L18.156 4.016C17.9988 3.85739 17.7901 3.76015 17.5675 3.74182C17.3449 3.72348 17.1231 3.78526 16.942 3.91601L14.876 5.40001L14.749 5.34701L14.322 2.78701C14.2863 2.56684 14.1732 2.36664 14.0031 2.22238C13.833 2.07812 13.617 1.99927 13.394 2.00001H10.606C10.3798 2.00097 10.1614 2.08303 9.99061 2.2313C9.81978 2.37957 9.70779 2.58419 9.675 2.80801L9.317 5.31301C9.1478 5.38041 8.98113 5.45374 8.817 5.533L7.148 3.98801C6.9696 3.82422 6.73492 3.73552 6.49279 3.74036C6.25065 3.7452 6.01971 3.84321 5.848 4.014L4.014 5.844C3.84253 6.01534 3.74405 6.24641 3.7392 6.48877C3.73435 6.73112 3.82352 6.96595 3.988 7.14401L5.532 8.82C5.457 8.97601 5.384 9.14001 5.314 9.32L2.808 9.67801C2.5847 9.71074 2.38049 9.82229 2.23229 9.9925C2.0841 10.1627 2.0017 10.3803 2 10.606V13.394C2.00096 13.6202 2.08303 13.8386 2.2313 14.0094C2.37956 14.1802 2.58419 14.2922 2.808 14.325L5.314 14.683C5.384 14.86 5.457 15.024 5.532 15.183L3.988 16.852C3.82352 17.0301 3.73435 17.2649 3.7392 17.5072C3.74405 17.7496 3.84253 17.9807 4.014 18.152L5.843 19.982C6.01459 20.153 6.24557 20.2512 6.48778 20.256C6.72999 20.2609 6.96471 20.172 7.143 20.008L8.82 18.467C8.977 18.544 9.141 18.617 9.32 18.687L9.678 21.193C9.71101 21.4166 9.82309 21.621 9.9939 21.7691C10.1647 21.9172 10.3829 21.9991 10.609 22H13.397C13.6232 21.999 13.8416 21.917 14.0124 21.7687C14.1832 21.6204 14.2952 21.4158 14.328 21.192L14.686 18.692C14.862 18.622 15.026 18.549 15.186 18.472L16.858 20.017C17.0362 20.1813 17.2709 20.2703 17.5132 20.2654C17.7555 20.2606 17.9865 20.1622 18.158 19.991L19.987 18.161C20.1585 17.9897 20.257 17.7586 20.2618 17.5162C20.2666 17.2739 20.1775 17.0391 20.013 16.861L18.468 15.18C18.543 15.024 18.616 14.86 18.686 14.68L21.192 14.322C21.4153 14.2893 21.6195 14.1777 21.7677 14.0075C21.9159 13.8373 21.9983 13.6197 22 13.394V10.606C21.999 10.3798 21.917 10.1615 21.7687 9.99062C21.6204 9.81978 21.4158 9.7078 21.192 9.67501ZM13.846 12C13.8459 12.4897 13.6512 12.9593 13.3049 13.3054C12.9586 13.6516 12.4889 13.8461 11.9993 13.846C11.5096 13.8459 11.04 13.6514 10.6937 13.3051C10.3475 12.9588 10.153 12.4892 10.153 11.9995C10.153 11.5098 10.3475 11.0402 10.6937 10.6939C11.04 10.3476 11.5096 10.1531 11.9993 10.153C12.4889 10.1529 12.9586 10.3474 13.3049 10.6936C13.6512 11.0398 13.8459 11.5093 13.846 11.999V12Z"/>
<path d="M21.192 9.67501L18.686 9.31701C18.6188 9.14801 18.5461 8.98134 18.468 8.81701L20.012 7.14501C20.1765 6.96695 20.2656 6.73212 20.2608 6.48977C20.256 6.24741 20.1575 6.01634 19.986 5.845L18.156 4.016C17.9988 3.85739 17.7901 3.76015 17.5675 3.74182C17.3449 3.72348 17.1231 3.78526 16.942 3.91601L14.876 5.40001L14.749 5.34701L14.322 2.78701C14.2863 2.56684 14.1732 2.36664 14.0031 2.22238C13.833 2.07812 13.617 1.99927 13.394 2.00001H10.606C10.3798 2.00097 10.1614 2.08303 9.99061 2.2313C9.81978 2.37957 9.70779 2.58419 9.675 2.80801L9.317 5.31301C9.1478 5.38041 8.98113 5.45374 8.817 5.533L7.148 3.98801C6.9696 3.82422 6.73492 3.73552 6.49279 3.74036C6.25065 3.7452 6.01971 3.84321 5.848 4.014L4.014 5.844C3.84253 6.01534 3.74405 6.24641 3.7392 6.48877C3.73435 6.73112 3.82352 6.96595 3.988 7.14401L5.532 8.82C5.457 8.97601 5.384 9.14001 5.314 9.32L2.808 9.67801C2.5847 9.71074 2.38049 9.82229 2.23229 9.9925C2.0841 10.1627 2.0017 10.3803 2 10.606V13.394C2.00096 13.6202 2.08303 13.8386 2.2313 14.0094C2.37956 14.1802 2.58419 14.2922 2.808 14.325L5.314 14.683C5.384 14.86 5.457 15.024 5.532 15.183L3.988 16.852C3.82352 17.0301 3.73435 17.2649 3.7392 17.5072C3.74405 17.7496 3.84253 17.9807 4.014 18.152L5.843 19.982C6.01459 20.153 6.24557 20.2512 6.48778 20.256C6.72999 20.2609 6.96471 20.172 7.143 20.008L8.82 18.467C8.977 18.544 9.141 18.617 9.32 18.687L9.678 21.193C9.71101 21.4166 9.82309 21.621 9.9939 21.7691C10.1647 21.9172 10.3829 21.9991 10.609 22H13.397C13.6232 21.999 13.8416 21.917 14.0124 21.7687C14.1832 21.6204 14.2952 21.4158 14.328 21.192L14.686 18.692C14.862 18.622 15.026 18.549 15.186 18.472L16.858 20.017C17.0362 20.1813 17.2709 20.2703 17.5132 20.2654C17.7555 20.2606 17.9865 20.1622 18.158 19.991L19.987 18.161C20.1585 17.9897 20.257 17.7586 20.2618 17.5162C20.2666 17.2739 20.1775 17.0391 20.013 16.861L18.468 15.18C18.543 15.024 18.616 14.86 18.686 14.68L21.192 14.322C21.4153 14.2893 21.6195 14.1777 21.7677 14.0075C21.9159 13.8373 21.9983 13.6197 22 13.394V10.606C21.999 10.3798 21.917 10.1615 21.7687 9.99062C21.6204 9.81978 21.4158 9.7078 21.192 9.67501ZM13.846 12C13.8459 12.4897 13.6512 12.9593 13.3049 13.3054C12.9586 13.6516 12.4889 13.8461 11.9993 13.846C11.5096 13.8459 11.04 13.6514 10.6937 13.3051C10.3475 12.9588 10.153 12.4892 10.153 11.9995C10.153 11.5098 10.3475 11.0402 10.6937 10.6939C11.04 10.3476 11.5096 10.1531 11.9993 10.153C12.4889 10.1529 12.9586 10.3474 13.3049 10.6936C13.6512 11.0398 13.8459 11.5093 13.846 11.999V12Z" fill-opacity="0.2"/>
</svg>