<svg width="24" height="24" viewBox="0 0 24 24" xmlns="http://www.w3.org/2000/svg">
<path d="M12 8.27197C11.2626 8.27197 10.5419 8.49062 9.92881 8.90025C9.31574 9.30989 8.83792 9.89213 8.55575 10.5733C8.27359 11.2545 8.19976 12.0041 8.34361 12.7273C8.48745 13.4504 8.84251 14.1147 9.36388 14.6361C9.88525 15.1574 10.5495 15.5125 11.2727 15.6563C11.9958 15.8002 12.7454 15.7264 13.4266 15.4442C14.1078 15.162 14.6901 14.6842 15.0997 14.0711C15.5093 13.4581 15.728 12.7373 15.728 12C15.7269 11.0116 15.3338 10.064 14.6349 9.36505C13.936 8.66614 12.9884 8.27303 12 8.27197ZM12 13.847C11.6346 13.8472 11.2774 13.739 10.9736 13.5362C10.6697 13.3334 10.4328 13.045 10.2929 12.7075C10.1529 12.37 10.1162 11.9986 10.1873 11.6403C10.2585 11.2819 10.4343 10.9527 10.6926 10.6943C10.9509 10.4359 11.28 10.2599 11.6383 10.1885C11.9966 10.1172 12.368 10.1537 12.7056 10.2935C13.0431 10.4332 13.3316 10.67 13.5346 10.9737C13.7376 11.2775 13.846 11.6346 13.846 12C13.8454 12.4895 13.6508 12.9588 13.3048 13.3051C12.9587 13.6513 12.4895 13.8462 12 13.847Z"/>
<path d="M21.192 9.67501L18.686 9.31701C18.6188 9.14803 18.546 8.98128 18.468 8.81701L20.012 7.14501C20.1765 6.96695 20.2656 6.73213 20.2608 6.48977C20.256 6.24741 20.1575 6.01635 19.986 5.84501L18.156 4.01601C17.9988 3.85739 17.7901 3.76015 17.5675 3.74182C17.3449 3.72348 17.1231 3.78526 16.942 3.91601L14.876 5.40001L14.749 5.34701L14.322 2.78701C14.2863 2.56684 14.1732 2.36664 14.0031 2.22238C13.833 2.07812 13.617 1.99927 13.394 2.00001H10.606C10.3798 2.00097 10.1614 2.08303 9.99061 2.2313C9.81978 2.37957 9.70779 2.58419 9.675 2.80801L9.317 5.31301C9.1478 5.38043 8.98103 5.45381 8.817 5.53301L7.148 3.98801C6.9696 3.82422 6.73492 3.73552 6.49279 3.74036C6.25065 3.7452 6.01971 3.84321 5.848 4.01401L4.014 5.84401C3.84253 6.01535 3.74405 6.24641 3.7392 6.48877C3.73435 6.73112 3.82352 6.96595 3.988 7.14401L5.532 8.82001C5.457 8.97601 5.384 9.14001 5.314 9.32001L2.808 9.67801C2.58469 9.71072 2.38047 9.82227 2.23227 9.99248C2.08407 10.1627 2.00168 10.3803 2 10.606V13.394C2.00096 13.6202 2.08303 13.8386 2.2313 14.0094C2.37956 14.1802 2.58419 14.2922 2.808 14.325L5.314 14.683C5.384 14.86 5.457 15.024 5.532 15.183L3.988 16.852C3.82352 17.0301 3.73435 17.2649 3.7392 17.5072C3.74405 17.7496 3.84253 17.9807 4.014 18.152L5.843 19.982C6.01459 20.153 6.24557 20.2512 6.48778 20.256C6.72999 20.2609 6.96471 20.172 7.143 20.008L8.82 18.467C8.977 18.544 9.141 18.617 9.32 18.687L9.678 21.193C9.71101 21.4166 9.82309 21.621 9.9939 21.7691C10.1647 21.9172 10.3829 21.9991 10.609 22H13.397C13.6232 21.999 13.8416 21.917 14.0124 21.7687C14.1832 21.6204 14.2952 21.4158 14.328 21.192L14.686 18.692C14.862 18.622 15.026 18.549 15.186 18.472L16.858 20.017C17.0362 20.1813 17.2709 20.2703 17.5132 20.2654C17.7555 20.2606 17.9865 20.1623 18.158 19.991L19.987 18.161C20.1585 17.9897 20.257 17.7586 20.2618 17.5162C20.2666 17.2739 20.1775 17.0391 20.013 16.861L18.468 15.18C18.543 15.024 18.616 14.86 18.686 14.68L21.192 14.322C21.4153 14.2893 21.6195 14.1777 21.7677 14.0075C21.9159 13.8373 21.9983 13.6197 22 13.394V10.606C21.999 10.3798 21.917 10.1615 21.7687 9.99062C21.6204 9.81978 21.4158 9.7078 21.192 9.67501ZM17.092 13.575C16.9525 14.0173 16.7566 14.4398 16.509 14.832C16.4021 15.005 16.3554 15.2085 16.3764 15.4108C16.3974 15.6131 16.4848 15.8027 16.625 15.95L18.02 17.461L17.468 18.013L15.958 16.618C15.8099 16.4789 15.6203 16.3922 15.4182 16.3711C15.2161 16.35 15.0127 16.3956 14.839 16.501C14.4474 16.7503 14.0244 16.9464 13.581 17.084C13.4064 17.1349 13.2499 17.2345 13.1299 17.3713C13.01 17.508 12.9316 17.6762 12.904 17.856L12.581 20.114H11.422L11.1 17.86C11.0723 17.6801 10.9938 17.5118 10.8737 17.3751C10.7535 17.2383 10.5968 17.1387 10.422 17.088C9.97903 16.9502 9.55633 16.7541 9.165 16.505C8.99167 16.3984 8.78798 16.3521 8.58561 16.3733C8.38324 16.3945 8.19354 16.4819 8.046 16.622L6.536 18.017L5.984 17.465L7.384 15.955C7.52426 15.8075 7.61172 15.6177 7.63271 15.4153C7.65369 15.2128 7.60703 15.0091 7.5 14.836C7.25241 14.4438 7.05645 14.0213 6.917 13.579C6.86645 13.4031 6.76628 13.2455 6.62847 13.1251C6.49067 13.0047 6.32108 12.9265 6.14 12.9L3.882 12.578V11.422L6.14 11.1C6.31999 11.0724 6.4883 10.9938 6.62495 10.8734C6.76161 10.7531 6.86088 10.5961 6.911 10.421C7.05045 9.97867 7.24641 9.55618 7.494 9.16401C7.60095 8.99104 7.64757 8.78751 7.62659 8.58523C7.6056 8.38296 7.51818 8.19333 7.378 8.04601L5.978 6.53501L6.53 5.98401L8.046 7.37901C8.1937 7.51857 8.38333 7.60549 8.58548 7.62629C8.78762 7.64708 8.99098 7.60058 9.164 7.49401C9.55584 7.24539 9.97884 7.0497 10.422 6.91201C10.5968 6.86132 10.7535 6.76173 10.8737 6.62495C10.9938 6.48818 11.0723 6.31992 11.1 6.14001L11.423 3.88201H12.6L12.985 6.18801C13.0161 6.36119 13.0943 6.52245 13.2111 6.65406C13.3279 6.78567 13.4787 6.88254 13.647 6.93401C13.9456 7.031 14.235 7.15414 14.512 7.30201C14.6691 7.38953 14.8477 7.43116 15.0273 7.42214C15.2069 7.41313 15.3804 7.35383 15.528 7.25101L17.391 5.91001L18.017 6.53501L16.622 8.04501C16.4817 8.19249 16.3943 8.38229 16.3733 8.58474C16.3523 8.78719 16.399 8.99088 16.506 9.16401C16.7536 9.55618 16.9495 9.97867 17.089 10.421C17.1391 10.5961 17.2384 10.7531 17.375 10.8734C17.5117 10.9938 17.68 11.0724 17.86 11.1L20.118 11.422V12.578L17.86 12.9C17.68 12.9276 17.5117 13.0062 17.375 13.1266C17.2384 13.2469 17.1391 13.4039 17.089 13.579L17.092 13.575Z"/>
</svg>