<?xml version="1.0" encoding="UTF-8"?>
<svg xmlns="http://www.w3.org/2000/svg" viewBox="0 0 32 32"><path d="M23.073,28.767H8.927A1.927,1.927,0,0,1,7,26.84V15.383a1.912,1.912,0,0,1-1.362-.564l-2.69-2.69a1.927,1.927,0,0,1,0-2.724L7.187,5.167a1.89,1.89,0,0,1,.5-.362l2.734-1.367a1.935,1.935,0,0,1,1.66-.035,1.883,1.883,0,0,1,1.055,1.231A2.651,2.651,0,0,0,16,6.767a2.651,2.651,0,0,0,2.862-2.133A1.883,1.883,0,0,1,19.917,3.4a1.937,1.937,0,0,1,1.661.036l2.738,1.368a1.882,1.882,0,0,1,.493.355L29.052,9.4a1.927,1.927,0,0,1,0,2.724l-2.69,2.69A1.912,1.912,0,0,1,25,15.383V26.84A1.927,1.927,0,0,1,23.073,28.767ZM9,26.767H23V12.6a.516.516,0,0,1,.881-.365L25,13.353l2.586-2.586L23.407,6.589,20.763,5.267A4.649,4.649,0,0,1,16,8.767a4.649,4.649,0,0,1-4.763-3.5L8.582,6.594,4.414,10.767,7,13.353l1.119-1.119A.516.516,0,0,1,9,12.6Z"/></svg>