<?xml version="1.0" encoding="UTF-8"?><svg xmlns="http://www.w3.org/2000/svg" viewBox="0 0 24 24"><defs><style>.d{fill:none;}</style></defs><g id="a"/><g id="b"><g id="c"><rect class="d" width="24" height="24"/><path d="M7.13,8.02c-.5,0-.91-.41-.91-.91s.41-.91,.91-.91,.91,.41,.91,.91-.41,.91-.91,.91Zm7.28,13.18l6.81-6.81c1.09-1.09,1.09-2.87,0-3.97L13.06,2.27c-.17-.17-.4-.27-.64-.27H2.93c-.5,0-.91,.41-.91,.91V12.41c0,.24,.09,.47,.27,.64l8.16,8.15c.53,.53,1.24,.82,1.99,.82s1.45-.29,1.99-.82ZM3.84,12.03V3.83H12.04l7.88,7.88c.38,.38,.38,1.01,0,1.39l-6.8,6.81c-.19,.19-.44,.29-.7,.29s-.5-.1-.7-.29L3.84,12.03Z"/></g></g></svg>