<?xml version="1.0" encoding="UTF-8"?>
<svg xmlns="http://www.w3.org/2000/svg" viewBox="0 0 32 32"><path d="M19.5,9.005A10.5,10.5,0,1,0,30,19.505,10.5,10.5,0,0,0,19.5,9.005Zm0,19a8.5,8.5,0,1,1,8.5-8.5A8.5,8.5,0,0,1,19.5,28.005Z"/><path d="M9.911,12.326a2.151,2.151,0,0,1-.788-.578l1.855-.675c.082-.083.17-.159.254-.24L11.176,9.9l-2.605.948-.1-.281-.06-.165a1.009,1.009,0,0,1-.047-.16L11.188,9.21l-.065-1.081-2.9,1.054A1.951,1.951,0,0,1,8.609,7.95a2.251,2.251,0,0,1,1.032-.717,4.793,4.793,0,0,1,.789-.223,2.711,2.711,0,0,1,.63-.047l-.011-1.289a4.887,4.887,0,0,0-.837.075,6.128,6.128,0,0,0-1.1.3,4.311,4.311,0,0,0-1,.517,3.194,3.194,0,0,0-.783.773A3.127,3.127,0,0,0,6.852,8.37a3.571,3.571,0,0,0-.06,1.335l-.715.261v1.1L7,10.733a1.009,1.009,0,0,0,.047.16l.06.165.1.281-.56.2v1.1l1.038-.378a3.693,3.693,0,0,0,.857.982,3.073,3.073,0,0,0,.534.328A11.927,11.927,0,0,1,9.911,12.326Z"/><path d="M4.365,12.058A6,6,0,0,1,7.948,4.367h0A6,6,0,0,1,15.64,7.951c.021.06.036.121.056.182a11.87,11.87,0,0,1,1.944-.47c-.04-.132-.074-.264-.121-.4A8,8,0,1,0,7.66,17.648a11.787,11.787,0,0,1,.472-1.943,5.937,5.937,0,0,1-3.767-3.644Z"/><path d="M15.489,20.872H14.1l.232-.924h1.045c-.009-.113-.014-.225-.015-.338v-.353a7.124,7.124,0,0,1,.045-.8H14.1l.232-.924h1.228a4.4,4.4,0,0,1,4.523-3.528,6.774,6.774,0,0,1,2.63.5l-.556,1.69a4.151,4.151,0,0,0-.519-.172,7.322,7.322,0,0,0-1.338-.218,2.451,2.451,0,0,0-2.555,1.721h3.907l-.248.924H17.562a6.808,6.808,0,0,0-.06.782,5.011,5.011,0,0,0,.045.713h3.336l-.24.924H17.668a2.366,2.366,0,0,0,2.462,2.267l.092,0a5.8,5.8,0,0,0,2.021-.323l.549,1.706a9.124,9.124,0,0,1-2.84.488C17.9,25.005,15.969,23.968,15.489,20.872Z"/></svg>