<svg width="32" height="32" viewBox="0 0 32 32" fill="none" xmlns="http://www.w3.org/2000/svg">
<path d="M13.2861 21.571H8.64307C8.30408 21.5821 7.98597 21.4076 7.81318 21.1158C7.6404 20.8239 7.6404 20.4611 7.81318 20.1692C7.98597 19.8774 8.30408 19.7029 8.64307 19.714H13.2861C13.787 19.7304 14.1846 20.1413 14.1846 20.6425C14.1846 21.1437 13.787 21.5546 13.2861 21.571Z" fill="black"/>
<path d="M17.9291 25.286H8.64307C8.30408 25.2971 7.98597 25.1226 7.81318 24.8307C7.6404 24.5389 7.6404 24.1761 7.81318 23.8842C7.98597 23.5923 8.30408 23.4178 8.64307 23.429H17.9291C18.43 23.4454 18.8276 23.8563 18.8276 24.3575C18.8276 24.8587 18.43 25.2695 17.9291 25.286Z" fill="black"/>
<circle cx="21.6429" cy="24.357" r="0.929" fill="black"/>
<circle cx="25.3572" cy="24.357" r="0.929" fill="black"/>
<path fill-rule="evenodd" clip-rule="evenodd" d="M27.214 11.3571H6.786C5.24802 11.3587 4.00165 12.6051 4 14.1431V26.2141C4.00165 27.752 5.24802 28.9984 6.786 29.0001H27.214C28.752 28.9984 29.9983 27.752 30 26.2141V14.1431C29.9983 12.6051 28.752 11.3587 27.214 11.3571ZM6.786 13.2141H27.214C27.7268 13.2146 28.1424 13.6302 28.143 14.1431V15.0711H5.857V14.1431C5.85755 13.6302 6.27316 13.2146 6.786 13.2141ZM6.786 27.1431H27.214C27.7268 27.1425 28.1424 26.7269 28.143 26.2141V17.8571H5.857V26.2141C5.85755 26.7269 6.27316 27.1425 6.786 27.1431Z" fill="black"/>
<path d="M3.94386 10.959L3.71686 10.059C3.59186 9.56206 3.89236 9.05766 4.38886 8.93099L24.1889 3.91899C24.6859 3.7934 25.1907 4.09413 25.3169 4.59099L25.5449 5.49099L8.30686 9.85699H19.6609L26.2329 8.19399L26.6539 9.85699H27.2139C27.699 9.86211 28.1796 9.95039 28.6349 10.118L27.1219 4.13799C26.7428 2.64773 25.229 1.74547 23.7379 2.12099L3.93386 7.13299C2.44325 7.51159 1.54075 9.02574 1.91686 10.517L2.59986 13.229C2.79709 12.3495 3.26754 11.5549 3.94386 10.959Z" fill="black"/>
</svg>
