<svg width="24" height="24" viewBox="0 0 24 24" fill="none" xmlns="http://www.w3.org/2000/svg">
<path d="M2 16.0284C1.99988 15.8933 2.02639 15.7596 2.078 15.6347C2.12962 15.5099 2.20532 15.3965 2.3008 15.3009L11.3086 6.30091C11.5017 6.10822 11.7634 6 12.0361 6C12.3089 6 12.5706 6.10822 12.7637 6.30091L21.7715 15.3009C21.9645 15.4939 22.0729 15.7556 22.0729 16.0285C22.0729 16.3013 21.9645 16.5631 21.7715 16.756C21.5785 16.949 21.3168 17.0574 21.044 17.0574C20.7711 17.0574 20.5094 16.949 20.3164 16.756L12.0364 8.48251L3.7564 16.756C3.61258 16.9 3.42928 16.998 3.2297 17.0378C3.03012 17.0775 2.82323 17.0571 2.63524 16.9792C2.44724 16.9013 2.28659 16.7694 2.17361 16.6001C2.06064 16.4309 2.00043 16.2319 2.0006 16.0284H2Z" fill="#565656"/>
</svg>
