<svg width="32" height="32" viewBox="0 0 32 32" fill="none" xmlns="http://www.w3.org/2000/svg">
<path d="M14.9681 8.91103L2.41006 21.1C2.14741 21.3644 2 21.7219 2 22.0945C2 22.4672 2.14741 22.8247 2.41006 23.089C2.68586 23.3529 3.05285 23.5002 3.43456 23.5002C3.81626 23.5002 4.18325 23.3529 4.45906 23.089L15.9931 11.894L27.5261 23.089C27.8019 23.3529 28.1689 23.5002 28.5506 23.5002C28.9323 23.5002 29.2992 23.3529 29.5751 23.089C29.7057 22.9642 29.8104 22.8148 29.8832 22.6495C29.9561 22.4841 29.9957 22.3061 29.9997 22.1254C30.0036 21.9448 29.972 21.7652 29.9065 21.5968C29.841 21.4284 29.743 21.2745 29.6181 21.144C29.6041 21.129 29.5901 21.114 29.5751 21.1L17.0171 8.91103C16.7412 8.64716 16.3743 8.49988 15.9926 8.49988C15.6109 8.49988 15.2439 8.64716 14.9681 8.91103Z" fill="#565656"/>
</svg>
