<svg width="40" height="40" viewBox="0 0 40 40" xmlns="http://www.w3.org/2000/svg">
<path d="M4.8 30.7874L6.825 28.7499H6.7C6.48227 28.7566 6.26538 28.7201 6.06183 28.6425C5.85829 28.5649 5.67212 28.4478 5.51408 28.2978C5.35604 28.1479 5.22924 27.9682 5.14101 27.769C5.05277 27.5699 5.00485 27.3552 5 27.1374V12.8624C5.00485 12.6447 5.05277 12.43 5.14101 12.2308C5.22924 12.0317 5.35604 11.852 5.51408 11.702C5.67212 11.5521 5.85829 11.435 6.06183 11.3574C6.26538 11.2798 6.48227 11.2433 6.7 11.2499H22.95C23.3215 11.247 23.6829 11.3704 23.975 11.5999L25.7625 9.81244C24.9908 9.1192 23.9873 8.74013 22.95 8.74994H6.7C5.59817 8.73994 4.53732 9.16722 3.75001 9.93812C2.96271 10.709 2.51319 11.7606 2.5 12.8624V27.1374C2.50913 27.8988 2.72884 28.6429 3.13479 29.2871C3.54074 29.9313 4.11709 30.4506 4.8 30.7874V30.7874Z"/>
<path d="M36.8376 11.75C36.641 11.6515 36.4219 11.6065 36.2025 11.6197C35.983 11.6328 35.7709 11.7037 35.5876 11.825L24.7126 19.5V27.1375C24.7046 27.3597 24.6524 27.5781 24.5591 27.78C24.4659 27.9818 24.3333 28.1631 24.1693 28.3132C24.0052 28.4633 23.8129 28.5792 23.6036 28.6542C23.3943 28.7292 23.1721 28.7618 22.9501 28.75H15.675L13.175 31.25H22.9501C24.0531 31.26 25.1152 30.8331 25.9045 30.0626C26.6938 29.292 27.1461 28.2404 27.1625 27.1375V22.3875L35.5376 28.175C35.8095 28.3635 36.1452 28.4365 36.4709 28.3779C36.7966 28.3193 37.0858 28.134 37.275 27.8625C37.4234 27.65 37.502 27.3966 37.5001 27.1375V12.8625C37.5017 12.6342 37.4409 12.4099 37.3241 12.2138C37.2073 12.0177 37.039 11.8573 36.8376 11.75ZM35 24.7625L28.1126 20L35 15.2375V24.7625Z"/>
<path d="M3.74992 37.5C3.58542 37.5009 3.42234 37.4694 3.27004 37.4072C3.11774 37.345 2.97922 37.2533 2.86242 37.1375C2.74526 37.0213 2.65227 36.883 2.58881 36.7307C2.52535 36.5784 2.49268 36.415 2.49268 36.25C2.49268 36.085 2.52535 35.9216 2.58881 35.7693C2.65227 35.6169 2.74526 35.4787 2.86242 35.3625L35.3624 2.86249C35.5978 2.62711 35.917 2.49487 36.2499 2.49487C36.5828 2.49487 36.902 2.62711 37.1374 2.86249C37.3728 3.09787 37.505 3.41711 37.505 3.74999C37.505 4.08286 37.3728 4.40211 37.1374 4.63749L4.63742 37.1375C4.52062 37.2533 4.3821 37.345 4.22981 37.4072C4.07751 37.4694 3.91443 37.5009 3.74992 37.5Z"/>
</svg>
