<svg width="32" height="32" viewBox="0 0 32 32" xmlns="http://www.w3.org/2000/svg">
<path d="M29.465 9.39999C29.3032 9.31602 29.1217 9.27754 28.9398 9.28863C28.7579 9.29973 28.5824 9.35999 28.432 9.46299L21.732 14.094V10.286C21.7204 9.40367 21.3591 8.56203 20.7274 7.94591C20.0957 7.32979 19.2453 6.98958 18.363 6.99999H5.363C4.4817 6.99118 3.63285 7.3321 3.00247 7.94805C2.37209 8.56399 2.0116 9.40472 2 10.286V21.714C2.0116 22.5953 2.37209 23.436 3.00247 24.0519C3.63285 24.6679 4.4817 25.0088 5.363 25H18.363C19.2446 25.0093 20.094 24.6686 20.7248 24.0526C21.3556 23.4366 21.7164 22.5956 21.728 21.714V17.906L28.428 22.537C28.5781 22.6417 28.7541 22.7032 28.9367 22.7147C29.1194 22.7263 29.3017 22.6876 29.4638 22.6027C29.626 22.5178 29.7617 22.39 29.8562 22.2333C29.9508 22.0766 30.0005 21.897 30 21.714V10.286C30.0001 10.1036 29.9503 9.92456 29.856 9.76839C29.7617 9.61222 29.6265 9.48482 29.465 9.39999ZM19.728 21.714C19.7168 22.0653 19.5668 22.3978 19.311 22.6388C19.0552 22.8798 18.7143 23.0097 18.363 23H5.363C5.01186 23.0097 4.67121 22.8798 4.41571 22.6387C4.16021 22.3976 4.01072 22.0651 4 21.714V10.286C4.01072 9.93488 4.16021 9.60235 4.41571 9.36128C4.67121 9.12022 5.01186 8.99029 5.363 8.99999H18.363C18.7143 8.99029 19.0552 9.12015 19.311 9.36116C19.5668 9.60217 19.7168 9.9347 19.728 10.286V21.714ZM28 19.808L22.487 16L28 12.192V19.808Z"/>
</svg>