<svg width="40" height="40" viewBox="0 0 40 40" xmlns="http://www.w3.org/2000/svg">
<path d="M20.1625 33.075C19.5477 33.0748 18.9567 32.8375 18.5125 32.4125L14.2375 28.45H6.4125C5.37484 28.45 4.37968 28.0378 3.64594 27.304C2.91221 26.5703 2.5 25.5751 2.5 24.5375V15.4625C2.5 14.4248 2.91221 13.4296 3.64594 12.6959C4.37968 11.9622 5.37484 11.55 6.4125 11.55H14.2375L18.5125 7.58747C18.8605 7.26739 19.2942 7.05544 19.7605 6.97747C20.2269 6.89949 20.7059 6.95884 21.1391 7.1483C21.5724 7.33776 21.9412 7.64914 22.2005 8.0445C22.4599 8.43985 22.5987 8.90212 22.6 9.37497V30.625C22.6073 31.1013 22.4719 31.5688 22.2112 31.9676C21.9506 32.3663 21.5767 32.678 21.1375 32.8625C20.8301 32.9981 20.4985 33.0704 20.1625 33.075ZM6.4125 14.05C6.03889 14.0532 5.68151 14.2031 5.41732 14.4673C5.15313 14.7315 5.00326 15.0889 5 15.4625V24.5375C5.00326 24.9111 5.15313 25.2685 5.41732 25.5326C5.68151 25.7968 6.03889 25.9467 6.4125 25.95H14.725C15.0408 25.9511 15.3445 26.0716 15.575 26.2875L20.2125 30.5875L20.1 9.51247L15.575 13.75C15.3445 13.9658 15.0408 14.0864 14.725 14.0875L6.4125 14.05Z"/>
<path d="M33.0124 20L37.1374 15.8875C37.254 15.7709 37.3464 15.6326 37.4095 15.4803C37.4726 15.328 37.505 15.1648 37.505 15C37.505 14.8352 37.4726 14.672 37.4095 14.5197C37.3464 14.3674 37.254 14.229 37.1374 14.1125C37.0209 13.9959 36.8825 13.9035 36.7302 13.8404C36.578 13.7773 36.4147 13.7449 36.2499 13.7449C36.0851 13.7449 35.9219 13.7773 35.7696 13.8404C35.6173 13.9035 35.479 13.9959 35.3624 14.1125L31.2499 18.2375L27.1374 14.1125C26.902 13.8771 26.5828 13.7449 26.2499 13.7449C25.917 13.7449 25.5978 13.8771 25.3624 14.1125C25.127 14.3479 24.9948 14.6671 24.9948 15C24.9948 15.3329 25.127 15.6521 25.3624 15.8875L29.4874 20L25.3624 24.1125C25.2453 24.2287 25.1523 24.3669 25.0888 24.5193C25.0253 24.6716 24.9927 24.835 24.9927 25C24.9927 25.165 25.0253 25.3284 25.0888 25.4807C25.1523 25.633 25.2453 25.7713 25.3624 25.8875C25.4786 26.0046 25.6169 26.0976 25.7692 26.1611C25.9215 26.2246 26.0849 26.2572 26.2499 26.2572C26.4149 26.2572 26.5783 26.2246 26.7306 26.1611C26.883 26.0976 27.0212 26.0046 27.1374 25.8875L31.2499 21.7625L35.3624 25.8875C35.4786 26.0046 35.6169 26.0976 35.7692 26.1611C35.9215 26.2246 36.0849 26.2572 36.2499 26.2572C36.4149 26.2572 36.5783 26.2246 36.7306 26.1611C36.883 26.0976 37.0212 26.0046 37.1374 25.8875C37.2546 25.7713 37.3476 25.633 37.411 25.4807C37.4745 25.3284 37.5072 25.165 37.5072 25C37.5072 24.835 37.4745 24.6716 37.411 24.5193C37.3476 24.3669 37.2546 24.2287 37.1374 24.1125L33.0124 20Z"/>
</svg>