<?xml version="1.0" encoding="UTF-8"?>
<svg xmlns="http://www.w3.org/2000/svg" viewBox="0 0 24 24"><path d="M12,2A10,10,0,1,0,22,12,10,10,0,0,0,12,2ZM3.832,12c0-.264.016-.524.04-.781A7.363,7.363,0,0,0,6.92,13.425l.231.109a4.549,4.549,0,0,0-.285,1.143A1.97,1.97,0,0,0,7.9,16.84c1.553.776,1.5,1.19,1.345,2.414-.019.147-.029.277-.039.409A8.175,8.175,0,0,1,3.832,12Zm8.4,8.155a2.775,2.775,0,0,0,1.168-1.31c.079-.286.536-.661.978-1.019.75-.607,1.6-1.3,1.471-2.191-.061-.419-.689-.82-.953-.973a3.777,3.777,0,0,0-1.694-.525c-.279-.006-.708-.412-1.122-.8-.857-.811-2.031-1.922-3.5-1.179a2.107,2.107,0,0,1-1.293-.269,2.656,2.656,0,0,1-1.13-.762A1.739,1.739,0,0,0,5.8,9.681c-.19-.271-.247-.376-.144-.59.079-.164.226-.47.39-.524.024-.009.1-.033.242.043s.2.25.263.5.147.638.571.62c.531-.02.662-.615.778-1.142.029-.131.058-.266.1-.388.05-.175.161-.223.421-.3a.825.825,0,0,0,.561-.356L9,7.5A2.616,2.616,0,0,1,10,6.37a.95.95,0,0,0,.465-.476.741.741,0,0,0,.007-.43l0-.026a2.781,2.781,0,0,1,.386-.055c.376-.038.8-.08,1-.366a2.888,2.888,0,0,0,.463-1.17,8.142,8.142,0,0,1,2.858.625,2.862,2.862,0,0,1,.519.9,1.69,1.69,0,0,0,.242,1.07,4.416,4.416,0,0,0-.685,2.207,4.7,4.7,0,0,0,.682,1.918c.571.988.968,1.186,1.154,1.216a1.623,1.623,0,0,0,.957-.342c.3-.174.7-.412.832-.286.49.46.371,1.942.256,2.784a24.641,24.641,0,0,1-.636,2.992A8.144,8.144,0,0,1,12.232,20.155Z"/></svg>