<svg width="24" height="24" viewBox="0 0 24 24" fill="none" xmlns="http://www.w3.org/2000/svg">
    <path d="M2 7.02906C1.99987 7.16416 2.02637 7.29796 2.07798 7.4228C2.1296 7.54765 2.20531 7.6611 2.3008 7.75666L11.3086 16.7567C11.5017 16.9494 11.7634 17.0576 12.0361 17.0576C12.3089 17.0576 12.5706 16.9494 12.7637 16.7567L21.7715 7.75666C21.867 7.66112 21.9428 7.5477 21.9945 7.42286C22.0462 7.29803 22.0729 7.16423 22.0729 7.02911C22.0729 6.894 22.0462 6.7602 21.9945 6.63537C21.9428 6.51053 21.867 6.39711 21.7715 6.30156C21.676 6.20602 21.5625 6.13023 21.4377 6.07853C21.3129 6.02682 21.1791 6.0002 21.044 6.0002C20.9088 6.0002 20.775 6.02682 20.6502 6.07853C20.5254 6.13023 20.4119 6.20602 20.3164 6.30156L12.0364 14.575L3.7564 6.30156C3.61259 6.1576 3.42929 6.05954 3.22972 6.0198C3.03015 5.98006 2.82327 6.00043 2.63528 6.07832C2.44729 6.15621 2.28664 6.28813 2.17366 6.45737C2.06068 6.62662 2.00045 6.82558 2.0006 7.02906H2Z" fill="black"/>
</svg>
